<?xml version="1.0" standalone="no"?>
<!DOCTYPE svg PUBLIC "-//W3C//DTD SVG 1.1//EN" "http://www.w3.org/Graphics/SVG/1.1/DTD/svg11.dtd" >
<svg>
<metadata>
Created by FontForge 20090622 at Tue Apr 26 15:32:38 2016
 By deploy user
Copyright &#194;&#169; 2008 - 2010 Linotype GmbH, www.linotype.com. All rights reserved. This font software may not be reproduced, modified, disclosed or transferred without the express written approval of Linotype GmbH.
</metadata>
<defs>
<font id="DINNextRoundedLTPro-Light" horiz-adv-x="532" >
  <font-face 
    font-family="DIN Next Rounded LT Pro Light"
    font-weight="300"
    font-stretch="normal"
    units-per-em="1000"
    panose-1="2 15 3 3 2 2 3 5 2 3"
    ascent="750"
    descent="-250"
    x-height="477"
    cap-height="684"
    bbox="-138 -213 984 914"
    underline-thickness="50"
    underline-position="-50"
    unicode-range="U+0020-U+FB04"
  />
<missing-glyph horiz-adv-x="470" 
d="M0 19v642q0 19 19 19h432q19 0 19 -19v-642q0 -19 -19 -19h-432q-19 0 -19 19zM39 43q0 -6 7 -6h379q6 0 6 6v594q0 6 -6 6h-379q-7 0 -7 -6v-594zM225 221q-9 0 -15 6t-6 16v15q0 38 22 66l38 49q22 29 29.5 45t7.5 36q0 31 -20.5 50t-52.5 19q-30 0 -47.5 -15
t-28.5 -48q-5 -15 -19 -15q-20 0 -20 21q0 8 3 16q12 36 41 58t72 22q51 0 82 -31t31 -78q0 -46 -37 -93l-39 -50q-20 -25 -20 -56v-11q0 -10 -6 -16t-15 -6zM195 142q0 13 9 21.5t21 8.5t21 -8.5t9 -21.5q0 -12 -9 -20.5t-21 -8.5t-21 8.5t-9 20.5z" />
    <glyph glyph-name="IJ" unicode="IJ" horiz-adv-x="715" 
d="M94 27v626q0 31 28 31q29 0 29 -31v-626q0 -31 -29 -31q-28 0 -28 31zM293 35q-12 9 -12 24q0 11 7.5 18.5t18.5 7.5q10 0 19 -6q51 -35 104 -35q140 0 140 160v449q0 31 28 31q29 0 29 -31v-450q0 -106 -52.5 -159.5t-145.5 -53.5q-76 0 -136 45z" />
    <glyph glyph-name="ij" unicode="ij" horiz-adv-x="476" 
d="M119 600q-17 0 -29.5 12.5t-12.5 29.5t12.5 29.5t29.5 12.5t29.5 -12.5t12.5 -29.5t-12.5 -29.5t-29.5 -12.5zM119 -4q-27 0 -27 29v427q0 29 27 29t27 -29v-427q0 -29 -27 -29zM357 600q-17 0 -29.5 12.5t-12.5 29.5t12.5 29.5t29.5 12.5t29.5 -12.5t12.5 -29.5
t-12.5 -29.5t-29.5 -12.5zM264 -180q-28 0 -28 26t28 26q38 0 52 15.5t14 57.5v507q0 29 27 29t27 -29v-506q0 -68 -27 -97t-93 -29z" />
    <glyph glyph-name="napostrophe" unicode="&#x22;n" horiz-adv-x="541" 
d="M428 -4q-27 0 -27 29v267q0 143 -125 143q-55 0 -92.5 -36.5t-37.5 -96.5v-277q0 -29 -27 -29t-27 29v427q0 29 27 29t27 -29v-33h1q43 68 141 68q79 0 123 -47.5t44 -134.5v-280q0 -29 -27 -29zM77 556q-8 -21 -26 -21q-11 0 -18.5 7t-7.5 18q0 6 2 12l29 91q7 21 26 21
q12 0 19.5 -7t7.5 -18q0 -6 -2 -12z" />
    <glyph glyph-name="f_f" unicode="ff" horiz-adv-x="616" 
d="M135 -4q-27 0 -27 29v398q0 6 -6 6h-39q-26 0 -26 24t26 24h39q6 0 6 6v51q0 84 29.5 115t103.5 31h14q28 0 28 -26t-28 -26q-60 0 -76.5 -15.5t-16.5 -71.5v-58q0 -6 6 -6h90q25 0 25 -24t-25 -24h-90q-6 0 -6 -6v-398q0 -29 -27 -29zM443 -4q-27 0 -27 29v398q0 6 -6 6
h-39q-26 0 -26 24t26 24h39q6 0 6 6v51q0 84 29.5 115t103.5 31h14q28 0 28 -26t-28 -26q-60 0 -76.5 -15.5t-16.5 -71.5v-58q0 -6 6 -6h90q25 0 25 -24t-25 -24h-90q-6 0 -6 -6v-398q0 -29 -27 -29z" />
    <glyph glyph-name="fi" unicode="fi" horiz-adv-x="546" 
d="M135 -4q-27 0 -27 29v398q0 6 -6 6h-39q-26 0 -26 24t26 24h39q6 0 6 6v51q0 84 29.5 115t103.5 31h14q28 0 28 -26t-28 -26q-60 0 -76.5 -15.5t-16.5 -71.5v-58q0 -6 6 -6h90q25 0 25 -24t-25 -24h-90q-6 0 -6 -6v-398q0 -29 -27 -29zM427 600q-17 0 -29.5 12.5
t-12.5 29.5t12.5 29.5t29.5 12.5t29.5 -12.5t12.5 -29.5t-12.5 -29.5t-29.5 -12.5zM427 -4q-27 0 -27 29v427q0 29 27 29t27 -29v-427q0 -29 -27 -29z" />
    <glyph glyph-name="fl" unicode="fl" horiz-adv-x="570" 
d="M135 -4q-27 0 -27 29v398q0 6 -6 6h-39q-26 0 -26 24t26 24h39q6 0 6 6v51q0 84 29.5 115t103.5 31h14q28 0 28 -26t-28 -26q-60 0 -76.5 -15.5t-16.5 -71.5v-58q0 -6 6 -6h90q25 0 25 -24t-25 -24h-90q-6 0 -6 -6v-398q0 -29 -27 -29zM508 -3h-10q-54 0 -76.5 26.5
t-22.5 85.5v546q0 29 27 29t27 -29v-544q0 -35 12 -48.5t43 -13.5q28 0 28 -26t-28 -26z" />
    <glyph glyph-name="f_f_i" unicode="ffi" horiz-adv-x="854" 
d="M135 -4q-27 0 -27 29v398q0 6 -6 6h-39q-26 0 -26 24t26 24h39q6 0 6 6v51q0 84 29.5 115t103.5 31h14q28 0 28 -26t-28 -26q-60 0 -76.5 -15.5t-16.5 -71.5v-58q0 -6 6 -6h90q25 0 25 -24t-25 -24h-90q-6 0 -6 -6v-398q0 -29 -27 -29zM443 -4q-27 0 -27 29v398q0 6 -6 6
h-39q-26 0 -26 24t26 24h39q6 0 6 6v51q0 84 29.5 115t103.5 31h14q28 0 28 -26t-28 -26q-60 0 -76.5 -15.5t-16.5 -71.5v-58q0 -6 6 -6h90q25 0 25 -24t-25 -24h-90q-6 0 -6 -6v-398q0 -29 -27 -29zM735 600q-17 0 -29.5 12.5t-12.5 29.5t12.5 29.5t29.5 12.5t29.5 -12.5
t12.5 -29.5t-12.5 -29.5t-29.5 -12.5zM735 -4q-27 0 -27 29v427q0 29 27 29t27 -29v-427q0 -29 -27 -29z" />
    <glyph glyph-name="f_f_l" unicode="ffl" horiz-adv-x="878" 
d="M135 -4q-27 0 -27 29v398q0 6 -6 6h-39q-26 0 -26 24t26 24h39q6 0 6 6v51q0 84 29.5 115t103.5 31h14q28 0 28 -26t-28 -26q-60 0 -76.5 -15.5t-16.5 -71.5v-58q0 -6 6 -6h90q25 0 25 -24t-25 -24h-90q-6 0 -6 -6v-398q0 -29 -27 -29zM443 -4q-27 0 -27 29v398q0 6 -6 6
h-39q-26 0 -26 24t26 24h39q6 0 6 6v51q0 84 29.5 115t103.5 31h14q28 0 28 -26t-28 -26q-60 0 -76.5 -15.5t-16.5 -71.5v-58q0 -6 6 -6h90q25 0 25 -24t-25 -24h-90q-6 0 -6 -6v-398q0 -29 -27 -29zM816 -3h-10q-54 0 -76.5 26.5t-22.5 85.5v546q0 29 27 29t27 -29v-544
q0 -35 12 -48.5t43 -13.5q28 0 28 -26t-28 -26z" />
    <glyph glyph-name=".notdef" horiz-adv-x="470" 
d="M0 19v642q0 19 19 19h432q19 0 19 -19v-642q0 -19 -19 -19h-432q-19 0 -19 19zM39 43q0 -6 7 -6h379q6 0 6 6v594q0 6 -6 6h-379q-7 0 -7 -6v-594zM225 221q-9 0 -15 6t-6 16v15q0 38 22 66l38 49q22 29 29.5 45t7.5 36q0 31 -20.5 50t-52.5 19q-30 0 -47.5 -15
t-28.5 -48q-5 -15 -19 -15q-20 0 -20 21q0 8 3 16q12 36 41 58t72 22q51 0 82 -31t31 -78q0 -46 -37 -93l-39 -50q-20 -25 -20 -56v-11q0 -10 -6 -16t-15 -6zM195 142q0 13 9 21.5t21 8.5t21 -8.5t9 -21.5q0 -12 -9 -20.5t-21 -8.5t-21 8.5t-9 20.5z" />
    <glyph glyph-name=".null" horiz-adv-x="500" 
 />
    <glyph glyph-name="nonmarkingreturn" horiz-adv-x="333" 
 />
    <glyph glyph-name="space" unicode=" " horiz-adv-x="246" 
 />
    <glyph glyph-name="exclam" unicode="!" horiz-adv-x="266" 
d="M133 172q-27 0 -27 28v455q0 29 27 29t27 -29v-455q0 -28 -27 -28zM91 38q0 17 12.5 29.5t29.5 12.5t29.5 -12.5t12.5 -29.5t-12.5 -29.5t-29.5 -12.5t-29.5 12.5t-12.5 29.5z" />
    <glyph glyph-name="quotedbl" unicode="&#x22;" horiz-adv-x="314" 
d="M217 516q-22 0 -22 25v118q0 25 22 25q23 0 23 -25v-118q0 -25 -23 -25zM96 516q-22 0 -22 25v118q0 25 22 25q23 0 23 -25v-118q0 -25 -23 -25z" />
    <glyph glyph-name="numbersign" unicode="#" horiz-adv-x="518" 
d="M91 22l27 197h-70q-24 0 -24 22t24 22h76l23 170h-75q-24 0 -24 22t24 22h81l25 187q3 20 23 20q25 0 22 -26l-25 -181h154l25 187q3 20 23 20q25 0 22 -26l-24 -181h72q24 0 24 -22t-24 -22h-78l-23 -170h77q24 0 24 -22t-24 -22h-83l-28 -203q-3 -20 -23 -20
q-25 0 -22 26l27 197h-154l-27 -203q-3 -20 -23 -20q-25 0 -22 26zM169 263h154l23 170h-154z" />
    <glyph glyph-name="dollar" unicode="$" 
d="M74 41q-13 7 -13 23q0 26 26 26q8 0 15 -4q65 -40 145 -44v277q-87 13 -131 61.5t-44 120.5q0 81 48.5 131.5t126.5 56.5v43q0 23 19 23q20 0 20 -23v-43q70 -4 130 -36q14 -8 14 -24q0 -11 -7 -18t-18 -7q-8 0 -18 5q-52 25 -101 28v-268q90 -12 135.5 -59.5
t45.5 -122.5q0 -82 -48 -135t-133 -60v-44q0 -23 -20 -23q-19 0 -19 23v42q-95 3 -173 51zM247 374v263q-56 -5 -89 -40.5t-33 -91.5q0 -110 122 -131zM286 43q61 7 94.5 43.5t33.5 97.5q0 110 -128 130v-271z" />
    <glyph glyph-name="percent" unicode="%" horiz-adv-x="771" 
d="M171 7q0 6 3 12l384 663q7 12 19 12q21 0 21 -21q0 -6 -3 -12l-384 -663q-7 -12 -19 -12q-21 0 -21 21zM204 330q-40 0 -68.5 19t-39.5 54q-8 24 -8 106t8 106q11 35 39.5 54t68.5 19t68.5 -19t39.5 -54q8 -24 8 -106t-8 -106q-11 -35 -39.5 -54t-68.5 -19zM204 371
q50 0 64 43q7 21 7 95t-7 95q-14 43 -64 43t-64 -43q-7 -21 -7 -95t7 -95q14 -43 64 -43zM459 65q-8 24 -8 106t8 106q11 35 39.5 54t68.5 19t68.5 -19t39.5 -54q8 -24 8 -106t-8 -106q-11 -35 -39.5 -54t-68.5 -19t-68.5 19t-39.5 54zM503 76q14 -43 64 -43t64 43
q7 21 7 95t-7 95q-14 43 -64 43t-64 -43q-7 -21 -7 -95t7 -95z" />
    <glyph glyph-name="ampersand" unicode="&#x26;" horiz-adv-x="618" 
d="M76 161q0 57 34 107.5t107 110.5q-59 79 -76 109.5t-17 64.5q0 60 41 98.5t103 38.5q63 0 103.5 -39t40.5 -97q0 -45 -26.5 -84.5t-98.5 -97.5l151 -199l63 79q9 11 21 11q22 0 22 -22q0 -9 -6 -18l-69 -90l51 -67q14 -20 39 -20q28 0 28 -26t-28 -26h-8q-26 0 -40 7.5
t-32 31.5l-45 59q-88 -102 -185 -102q-80 0 -126.5 47.5t-46.5 123.5zM257 411q64 52 83.5 81.5t19.5 61.5q0 37 -26 61.5t-66 24.5t-66 -24t-26 -62q0 -24 15 -50t66 -93zM128 164q0 -56 32 -90t91 -34q39 0 72.5 18.5t80.5 72.5l-157 209q-61 -47 -90 -88.5t-29 -87.5z
" />
    <glyph glyph-name="quotesingle" unicode="'" horiz-adv-x="194" 
d="M96 516q-22 0 -22 25v118q0 25 22 25q23 0 23 -25v-118q0 -25 -23 -25z" />
    <glyph glyph-name="parenleft" unicode="(" horiz-adv-x="276" 
d="M181 -75q-106 202 -106 403t106 403q7 13 21 13q8 0 14.5 -5.5t6.5 -13.5q0 -7 -4 -15q-92 -184 -92 -382t92 -382q4 -8 4 -15q0 -8 -6.5 -13.5t-14.5 -5.5q-14 0 -21 13z" />
    <glyph glyph-name="parenright" unicode=")" horiz-adv-x="276" 
d="M50 -54q92 184 92 382t-92 382q-4 8 -4 15q0 8 6.5 13.5t14.5 5.5q14 0 21 -13q106 -202 106 -403t-106 -403q-7 -13 -21 -13q-8 0 -14.5 5.5t-6.5 13.5q0 7 4 15z" />
    <glyph glyph-name="asterisk" unicode="*" horiz-adv-x="349" 
d="M174 398q-18 0 -18 20l1 92l-80 -47q-4 -3 -11 -3q-18 0 -18 19q0 10 10 16l81 46l-81 46q-10 6 -10 16q0 19 18 19q6 0 11 -3l80 -48l-1 93q0 20 18 20q19 0 19 -20l-1 -93l80 48q4 3 11 3q18 0 18 -19q0 -10 -10 -16l-82 -46l82 -46q10 -6 10 -16q0 -19 -18 -19
q-7 0 -11 3l-80 47l1 -92q0 -20 -19 -20z" />
    <glyph glyph-name="plus" unicode="+" 
d="M240 99v146q0 6 -6 6h-144q-28 0 -28 25t28 25h144q6 0 6 6v146q0 28 26 28t26 -28v-146q0 -6 6 -6h144q28 0 28 -25t-28 -25h-144q-6 0 -6 -6v-146q0 -28 -26 -28t-26 28z" />
    <glyph glyph-name="comma" unicode="," horiz-adv-x="213" 
d="M51 -89l44 133q8 23 26 23q12 0 20 -7t8 -19q0 -5 -2 -13l-47 -133q-8 -23 -26 -23q-25 0 -25 26q0 5 2 13z" />
    <glyph glyph-name="hyphen" unicode="-" horiz-adv-x="374" 
d="M73 240q-28 0 -28 25t28 25h228q28 0 28 -25t-28 -25h-228z" />
    <glyph glyph-name="period" unicode="." horiz-adv-x="220" 
d="M66 40q0 18 13 31t31 13t31 -13t13 -31t-13 -31t-31 -13t-31 13t-13 31z" />
    <glyph glyph-name="slash" unicode="/" horiz-adv-x="407" 
d="M72 8q0 5 2 11l215 656q6 19 22 19q24 0 24 -22q0 -5 -2 -11l-215 -656q-6 -19 -22 -19q-24 0 -24 22z" />
    <glyph glyph-name="zero" unicode="0" 
d="M91 112q-15 45 -15 228t15 228q19 59 64.5 90.5t110.5 31.5t110.5 -31.5t64.5 -90.5q15 -45 15 -228t-15 -228q-19 -59 -64.5 -90.5t-110.5 -31.5t-110.5 31.5t-64.5 90.5zM144 124q28 -83 122 -83t122 83q14 44 14 216t-14 216q-28 83 -122 83t-122 -83
q-14 -44 -14 -216t14 -216z" />
    <glyph glyph-name="one" unicode="1" 
d="M253 25v582h-2l-100 -68q-8 -5 -18 -5q-9 0 -16 6.5t-7 16.5q0 14 15 25l116 83q27 19 39 19q27 0 27 -28v-631q0 -29 -27 -29t-27 29z" />
    <glyph glyph-name="two" unicode="2" 
d="M79 25q0 16 16 36l243 317q55 73 55 133q0 56 -36 91.5t-93 35.5q-102 0 -127 -101q-5 -24 -25 -24q-27 0 -27 26q0 5 2 13q11 54 57 96t121 42q82 0 132 -50t50 -129q0 -78 -68 -165l-226 -292v-2h270q27 0 27 -26t-27 -26h-317q-27 0 -27 25z" />
    <glyph glyph-name="three" unicode="3" 
d="M76 115q-2 6 -2 12q0 24 26 24q15 0 26 -24q39 -85 136 -85q64 0 101.5 39.5t37.5 101.5q0 64 -39.5 104.5t-104.5 40.5h-15q-28 0 -28 26t28 26h15q58 0 94 36.5t36 94.5q0 57 -35 92t-94 35q-91 0 -125 -81q-9 -24 -26 -24q-26 0 -26 24q0 6 2 12q15 51 60.5 86
t115.5 35q82 0 132 -49.5t50 -128.5q0 -103 -91 -153v-2q41 -16 73 -60.5t32 -111.5q0 -86 -54 -140.5t-139 -54.5q-75 0 -122 35.5t-64 89.5z" />
    <glyph glyph-name="four" unicode="4" 
d="M80 136q-26 0 -26 24q0 14 11 37l214 467q9 20 25 20q25 0 25 -24q0 -6 -3 -14l-207 -456v-2h210q6 0 6 6v171q0 29 27 29t27 -29v-171q0 -6 6 -6h61q28 0 28 -26t-28 -26h-61q-6 0 -6 -6v-105q0 -29 -27 -29t-27 29v105q0 6 -6 6h-249z" />
    <glyph glyph-name="five" unicode="5" 
d="M95 116q-2 6 -2 12q0 24 26 24q18 0 26 -24q31 -86 128 -86q42 0 74 20t44 57q11 36 11 99t-13 99q-27 78 -114 78q-66 0 -112 -67q-20 -29 -36 -29q-25 0 -25 28v328q0 25 25 25h292q28 0 28 -26t-28 -26h-259q-6 0 -6 -6v-235h1q15 24 48 42t76 18q60 0 102 -28t59 -81
q16 -50 16 -120q0 -72 -14 -114q-18 -54 -62.5 -84t-106.5 -30q-70 0 -115.5 34t-62.5 92z" />
    <glyph glyph-name="six" unicode="6" 
d="M67 195q0 67 45 153l164 320q8 16 24 16q12 0 19.5 -7.5t7.5 -18.5q0 -8 -4 -16l-139 -265l2 -3q27 25 87 25q84 0 138 -56t54 -146q0 -95 -55.5 -151t-143.5 -56t-143.5 56t-55.5 149zM121 194q0 -67 40.5 -109.5t104.5 -42.5t104.5 42.5t40.5 109.5t-40.5 110
t-104.5 43t-104.5 -43t-40.5 -110z" />
    <glyph glyph-name="seven" unicode="7" 
d="M163 21q0 5 2 11l235 593v3h-246q-6 0 -6 -7v-77q0 -29 -27 -29t-27 29v111q0 25 25 25h319q27 0 27 -25q0 -11 -8 -30l-243 -611q-8 -18 -25 -18q-11 0 -18.5 7t-7.5 18z" />
    <glyph glyph-name="eight" unicode="8" 
d="M66 184q0 61 29.5 106.5t79.5 66.5v2q-41 20 -66 60t-25 92q0 77 50.5 128t131.5 51t131.5 -51t50.5 -128q0 -52 -25 -92t-66 -60v-2q50 -21 79.5 -66.5t29.5 -106.5q0 -85 -56 -139.5t-144 -54.5t-144 54.5t-56 139.5zM266 384q57 0 92.5 36t35.5 91t-35.5 91t-92.5 36
t-92.5 -36t-35.5 -91t35 -91t93 -36zM120 186q0 -63 40 -103.5t106 -40.5t106 40.5t40 103.5q0 64 -40.5 105t-105.5 41t-105.5 -41t-40.5 -105z" />
    <glyph glyph-name="nine" unicode="9" 
d="M205 22q0 8 4 16l139 265l-2 3q-27 -25 -87 -25q-84 0 -138 56t-54 146q0 95 55.5 151t143.5 56t143.5 -56t55.5 -149q0 -67 -45 -153l-164 -320q-8 -16 -24 -16q-12 0 -19.5 7.5t-7.5 18.5zM266 333q64 0 104.5 43t40.5 110t-40.5 109.5t-104.5 42.5t-104.5 -42.5
t-40.5 -109.5t40.5 -110t104.5 -43z" />
    <glyph glyph-name="colon" unicode=":" horiz-adv-x="228" 
d="M114 393q-18 0 -31 13t-13 31t13 31t31 13t31 -13t13 -31t-13 -31t-31 -13zM70 40q0 18 13 31t31 13t31 -13t13 -31t-13 -31t-31 -13t-31 13t-13 31z" />
    <glyph glyph-name="semicolon" unicode=";" horiz-adv-x="228" 
d="M114 393q-18 0 -31 13t-13 31t13 31t31 13t31 -13t13 -31t-13 -31t-31 -13zM51 -89l44 133q8 23 26 23q12 0 20 -7t8 -19q0 -5 -2 -13l-47 -133q-8 -23 -26 -23q-25 0 -25 26q0 5 2 13z" />
    <glyph glyph-name="less" unicode="&#x3c;" 
d="M89 244q-27 11 -27 32t27 32l344 140q6 2 12 2q11 0 18 -6.5t7 -17.5q0 -18 -17 -25l-314 -124v-2l314 -124q17 -7 17 -25q0 -11 -7 -17.5t-18 -6.5q-6 0 -12 2z" />
    <glyph glyph-name="equal" unicode="=" 
d="M90 348q-28 0 -28 25t28 25h352q28 0 28 -25t-28 -25h-352zM90 154q-28 0 -28 25t28 25h352q28 0 28 -25t-28 -25h-352z" />
    <glyph glyph-name="greater" unicode="&#x3e;" 
d="M87 102q-11 0 -18 6.5t-7 17.5q0 18 17 25l314 124v2l-314 124q-17 7 -17 25q0 11 7 17.5t18 6.5q6 0 12 -2l344 -140q27 -11 27 -32t-27 -32l-344 -140q-6 -2 -12 -2z" />
    <glyph glyph-name="question" unicode="?" horiz-adv-x="446" 
d="M196 199v23q0 55 31 97l57 76q36 48 48.5 74t12.5 57q0 53 -33.5 82.5t-85.5 29.5q-46 0 -77 -24t-42 -68q-7 -28 -28 -28q-11 0 -18.5 7t-7.5 18q0 5 2 13q15 61 59.5 97.5t113.5 36.5q76 0 123.5 -45.5t47.5 -117.5q0 -38 -13.5 -69t-46.5 -76l-56 -75
q-20 -27 -26.5 -44t-6.5 -45v-19q0 -29 -27 -29t-27 29zM181 38q0 17 12.5 29.5t29.5 12.5t29.5 -12.5t12.5 -29.5t-12.5 -29.5t-29.5 -12.5t-29.5 12.5t-12.5 29.5z" />
    <glyph glyph-name="at" unicode="@" horiz-adv-x="884" 
d="M49 267q0 174 109.5 283.5t282.5 109.5q174 0 284 -109.5t110 -283.5q0 -106 -42.5 -158.5t-110.5 -52.5q-42 0 -73 21t-45 57h-1q-35 -78 -137 -78q-107 0 -140 100q-13 42 -13 106q0 62 13 106q32 100 139 100q87 0 122 -59h2v27q0 26 24 26t24 -26v-234
q0 -49 25 -74.5t61 -25.5q46 0 75 38.5t29 126.5q0 155 -95 251t-251 96q-154 0 -249 -96t-95 -251t95 -251.5t249 -96.5q120 0 209 42q6 3 12 3q21 0 21 -20q0 -14 -13 -21q-91 -50 -229 -50q-173 0 -282.5 110t-109.5 284zM332 174q25 -71 103 -71q79 0 104 71
q10 30 10 88t-10 88q-24 71 -104 71q-79 0 -103 -71q-11 -33 -11 -88t11 -88z" />
    <glyph glyph-name="A" unicode="A" horiz-adv-x="596" 
d="M37 22q0 5 2 11l224 621q11 30 36 30t36 -30l222 -621q2 -6 2 -11q0 -12 -7.5 -19t-19.5 -7q-20 0 -28 20l-58 161h-296l-58 -161q-8 -20 -28 -20q-12 0 -19.5 7t-7.5 19zM169 232h258l-127 356h-3z" />
    <glyph glyph-name="B" unicode="B" horiz-adv-x="601" 
d="M94 27v626q0 27 28 27h210q95 0 146.5 -47.5t51.5 -129.5q0 -60 -28 -98.5t-77 -53.5v-2q44 -9 80 -51.5t36 -111.5q0 -88 -54.5 -137t-153.5 -49h-211q-28 0 -28 27zM157 373h175q67 0 104 34.5t37 92.5q0 59 -37 92.5t-105 33.5h-174q-6 0 -6 -6v-241q0 -6 6 -6z
M151 60q0 -6 6 -6h179q72 0 110 35.5t38 96.5q0 62 -38 97.5t-110 35.5h-179q-6 0 -6 -6v-253z" />
    <glyph glyph-name="C" unicode="C" horiz-adv-x="556" 
d="M83 142q-18 56 -18 198t18 198q51 152 217 152q64 0 117.5 -29.5t78.5 -85.5q4 -10 4 -16q0 -27 -27 -27q-15 0 -25 18q-49 86 -148 86q-122 0 -162 -113q-15 -45 -15 -183t15 -183q40 -113 162 -113q99 0 148 86q10 18 25 18q27 0 27 -27q0 -6 -4 -16
q-25 -56 -78.5 -85.5t-117.5 -29.5q-166 0 -217 152z" />
    <glyph glyph-name="D" unicode="D" horiz-adv-x="620" 
d="M94 27v626q0 27 28 27h179q181 0 231 -154q20 -63 20 -186t-20 -186q-50 -154 -231 -154h-179q-28 0 -28 27zM151 60q0 -6 6 -6h136q77 0 120 27.5t64 91.5q18 57 18 167t-18 167q-21 64 -64 91.5t-120 27.5h-136q-6 0 -6 -6v-560z" />
    <glyph glyph-name="E" unicode="E" horiz-adv-x="556" 
d="M94 27v626q0 27 28 27h356q29 0 29 -27t-29 -27h-321q-6 0 -6 -6v-242q0 -6 6 -6h274q29 0 29 -27t-29 -27h-274q-6 0 -6 -6v-252q0 -6 6 -6h321q29 0 29 -27t-29 -27h-356q-28 0 -28 27z" />
    <glyph glyph-name="F" unicode="F" horiz-adv-x="551" 
d="M94 27v626q0 27 28 27h356q29 0 29 -27t-29 -27h-321q-6 0 -6 -6v-249q0 -6 6 -6h274q29 0 29 -27t-29 -27h-274q-6 0 -6 -5v-279q0 -31 -28 -31q-29 0 -29 31z" />
    <glyph glyph-name="G" unicode="G" horiz-adv-x="609" 
d="M84 143q-19 59 -19 197t19 197q50 153 221 153q72 0 127 -30.5t79 -82.5q4 -10 4 -16q0 -27 -27 -27q-14 0 -25 18q-51 84 -159 84q-127 0 -165 -115q-16 -46 -16 -181t16 -181q38 -115 166 -115t166 113q16 46 16 129q0 6 -6 6h-143q-13 0 -20.5 7.5t-7.5 19.5t7.5 19.5
t20.5 7.5h179q11 0 19 -7.5t8 -18.5v-25q0 -95 -18 -151q-24 -75 -81 -114.5t-139 -39.5q-172 0 -222 153z" />
    <glyph glyph-name="H" unicode="H" horiz-adv-x="650" 
d="M94 27v626q0 31 28 31q29 0 29 -31v-275q0 -6 6 -6h335q7 0 7 6v275q0 31 28 31q29 0 29 -31v-626q0 -31 -29 -31q-28 0 -28 31v285q0 6 -7 6h-335q-6 0 -6 -6v-285q0 -31 -29 -31q-28 0 -28 31z" />
    <glyph glyph-name="I" unicode="I" horiz-adv-x="245" 
d="M94 27v626q0 31 28 31q29 0 29 -31v-626q0 -31 -29 -31q-28 0 -28 31z" />
    <glyph glyph-name="J" unicode="J" horiz-adv-x="470" 
d="M48 35q-12 9 -12 24q0 11 7.5 18.5t18.5 7.5q10 0 19 -6q51 -35 104 -35q140 0 140 160v449q0 31 28 31q29 0 29 -31v-450q0 -106 -52.5 -159.5t-145.5 -53.5q-76 0 -136 45z" />
    <glyph glyph-name="K" unicode="K" horiz-adv-x="585" 
d="M94 27v626q0 31 28 31q29 0 29 -31v-376l326 395q10 12 24 12q10 0 17.5 -7t7.5 -17t-8 -20l-189 -227l214 -372q6 -11 6 -18q0 -12 -7 -20t-19 -8q-17 0 -27 17l-205 355l-140 -166v-174q0 -31 -29 -31q-28 0 -28 31z" />
    <glyph glyph-name="L" unicode="L" horiz-adv-x="530" 
d="M94 27v626q0 31 28 31q29 0 29 -31v-593q0 -6 6 -6h322q29 0 29 -27t-29 -27h-358q-27 0 -27 27z" />
    <glyph glyph-name="M" unicode="M" horiz-adv-x="755" 
d="M94 27v621q0 36 34 36q25 0 38 -31l211 -470h4l208 470q13 31 38 31q34 0 34 -36v-621q0 -31 -29 -31q-28 0 -28 31v514h-4l-185 -409q-10 -21 -17.5 -27.5t-19.5 -6.5q-13 0 -20.5 6.5t-17.5 27.5l-184 409h-5v-514q0 -31 -29 -31q-28 0 -28 31z" />
    <glyph glyph-name="N" unicode="N" horiz-adv-x="651" 
d="M94 27v621q0 36 35 36q23 0 41 -31l327 -542h3v542q0 31 28 31q29 0 29 -31v-621q0 -36 -35 -36q-23 0 -42 31l-325 543h-4v-543q0 -31 -29 -31q-28 0 -28 31z" />
    <glyph glyph-name="O" unicode="O" horiz-adv-x="609" 
d="M305 -10q-170 0 -220 153q-20 60 -20 197t20 197q50 153 220 153q169 0 219 -153q20 -60 20 -197t-20 -197q-50 -153 -219 -153zM486 340q0 130 -17 181q-38 115 -164 115q-127 0 -165 -115q-17 -51 -17 -181t17 -181q38 -115 165 -115q126 0 164 115q17 51 17 181z" />
    <glyph glyph-name="P" unicode="P" horiz-adv-x="585" 
d="M122 -4q-28 0 -28 31v626q0 27 27 27h210q97 0 153 -52t56 -141t-56 -140.5t-153 -51.5h-174q-6 0 -6 -6v-262q0 -31 -29 -31zM329 349q74 0 114 36t40 102t-40 102.5t-114 36.5h-172q-6 0 -6 -6v-265q0 -6 6 -6h172z" />
    <glyph glyph-name="Q" unicode="Q" horiz-adv-x="608" 
d="M552 14q8 -10 8 -20t-7.5 -17.5t-18.5 -7.5t-20 9l-58 61q-56 -49 -151 -49q-170 0 -220 153q-20 60 -20 197t20 197q50 153 220 153q169 0 219 -153q20 -60 20 -197t-20 -197q-11 -34 -32 -65zM486 340q0 130 -17 181q-38 115 -164 115q-127 0 -165 -115
q-17 -51 -17 -181t17 -181q38 -115 165 -115q70 0 113 36l-74 79q-8 10 -8 20t7.5 17.5t18.5 7.5t20 -9l70 -75q11 21 17 39q17 51 17 181z" />
    <glyph glyph-name="R" unicode="R" horiz-adv-x="615" 
d="M510 -4q-16 0 -27 18l-141 290h-9h-176q-6 0 -6 -6v-271q0 -31 -29 -31q-28 0 -28 31v626q0 27 28 27h211q95 0 150.5 -50t55.5 -138q0 -71 -37 -118t-103 -63l136 -274q3 -8 3 -14q0 -11 -7.5 -19t-20.5 -8zM332 358q73 0 111.5 34.5t38.5 99.5t-38.5 99.5t-111.5 34.5
h-175q-6 0 -6 -6v-256q0 -6 6 -6h175z" />
    <glyph glyph-name="S" unicode="S" horiz-adv-x="593" 
d="M288 -10q-115 0 -209 66q-15 10 -15 27q0 11 8.5 19.5t20.5 8.5q11 0 21 -7q90 -60 181 -60q81 0 128.5 38t47.5 101q0 54 -37 87.5t-126 44.5l-32 4q-195 25 -195 180q0 88 58 139.5t155 51.5q102 0 175 -45q19 -12 19 -28q0 -11 -7.5 -19t-19.5 -8q-8 0 -20 6
q-74 40 -149 40q-73 0 -113.5 -36.5t-40.5 -95.5q0 -54 37.5 -86.5t122.5 -43.5l31 -4q199 -25 199 -183q0 -89 -62.5 -143t-177.5 -54z" />
    <glyph glyph-name="T" unicode="T" horiz-adv-x="523" 
d="M261 -4q-28 0 -28 31v593q0 6 -6 6h-180q-29 0 -29 27t29 27h429q29 0 29 -27t-29 -27h-180q-6 0 -6 -6v-593q0 -31 -29 -31z" />
    <glyph glyph-name="U" unicode="U" horiz-adv-x="635" 
d="M317 -10q-108 0 -169 62t-61 183v418q0 31 29 31q28 0 28 -31v-419q0 -94 45 -142t128 -48t128.5 48t45.5 142v419q0 31 28 31q29 0 29 -31v-418q0 -122 -61 -183.5t-170 -61.5z" />
    <glyph glyph-name="V" unicode="V" horiz-adv-x="559" 
d="M279 -4q-24 0 -34 31l-213 617q-2 8 -2 13q0 12 8 19.5t20 7.5q19 0 27 -22l195 -567h2l192 567q8 22 27 22q12 0 20 -7.5t8 -19.5q0 -7 -2 -13l-213 -617q-10 -31 -35 -31z" />
    <glyph glyph-name="W" unicode="W" horiz-adv-x="817" 
d="M596 -4q-23 0 -32 32l-154 539h-2l-155 -539q-9 -32 -32 -32q-24 0 -32 32l-153 619q-1 5 -1 10q0 11 7 19t20 8q22 0 28 -22l133 -552h2l151 542q9 32 33 32q23 0 32 -32l154 -542h2l130 552q6 22 28 22q13 0 20 -8t7 -19q0 -6 -2 -14l-152 -615q-8 -32 -32 -32z" />
    <glyph glyph-name="X" unicode="X" horiz-adv-x="535" 
d="M466 -4q-15 0 -24 15l-173 289h-1l-175 -289q-9 -15 -24 -15q-13 0 -21 8t-8 19q0 9 5 18l191 316l-169 282q-5 9 -5 18q0 11 8 19t21 8q15 0 24 -15l153 -255h1l154 255q9 15 24 15q13 0 21 -8t8 -19q0 -9 -5 -18l-171 -282l190 -316q5 -9 5 -18q0 -11 -8 -19t-21 -8z
" />
    <glyph glyph-name="Y" unicode="Y" horiz-adv-x="511" 
d="M255 -4q-28 0 -28 31v252l-195 364q-4 8 -4 15q0 11 8 18.5t20 7.5q16 0 25 -15l175 -322h3l172 322q7 15 25 15q12 0 19.5 -7.5t7.5 -18.5q0 -7 -4 -15l-195 -364v-252q0 -31 -29 -31z" />
    <glyph glyph-name="Z" unicode="Z" horiz-adv-x="540" 
d="M461 0h-382q-14 0 -22 7.5t-8 20.5q0 16 14 38l356 559v1h-328q-29 0 -29 27t29 27h368q14 0 22.5 -7.5t8.5 -20.5q0 -16 -14 -38l-356 -559v-1h341q29 0 29 -27t-29 -27z" />
    <glyph glyph-name="bracketleft" unicode="[" horiz-adv-x="283" 
d="M216 -84h-92q-24 0 -24 24v776q0 24 24 24h92q25 0 25 -24q0 -23 -25 -23h-58q-6 0 -6 -6v-718q0 -6 6 -6h58q25 0 25 -23q0 -24 -25 -24z" />
    <glyph glyph-name="backslash" unicode="\" horiz-adv-x="407" 
d="M311 -14q-16 0 -22 19l-215 656q-2 8 -2 11q0 22 24 22q16 0 22 -19l215 -656q2 -8 2 -11q0 -22 -24 -22z" />
    <glyph glyph-name="bracketright" unicode="]" horiz-adv-x="283" 
d="M160 -84h-93q-25 0 -25 24q0 23 25 23h59q6 0 6 6v718q0 6 -6 6h-59q-25 0 -25 23q0 24 25 24h93q23 0 23 -24v-776q0 -24 -23 -24z" />
    <glyph glyph-name="asciicircum" unicode="^" 
d="M433 279q-16 0 -24 18l-142 316h-2l-142 -316q-8 -18 -24 -18q-11 0 -18 6.5t-7 16.5q0 7 4 15l157 341q12 26 31 26t31 -26l157 -341q4 -8 4 -15q0 -10 -7 -16.5t-18 -6.5z" />
    <glyph glyph-name="underscore" unicode="_" horiz-adv-x="459" 
d="M459 -122h-459v40h459v-40z" />
    <glyph glyph-name="grave" unicode="`" horiz-adv-x="422" 
d="M244 554q-11 0 -18 11l-65 101q-5 8 -5 16q0 9 6.5 15.5t16.5 6.5q13 0 21 -13l62 -100q5 -8 5 -15q0 -22 -23 -22z" />
    <glyph glyph-name="a" unicode="a" horiz-adv-x="515" 
d="M456 37q4 -8 4 -15q0 -11 -7.5 -18.5t-20.5 -7.5q-16 0 -26 17l-23 38h-2q-55 -61 -152 -61q-71 0 -117 37.5t-46 103.5q0 70 47 106t134 36h122q6 0 6 6v34q0 62 -28 92.5t-96 30.5q-58 0 -109 -30q-9 -6 -19 -6q-25 0 -25 25q0 13 11 22q53 40 145 40q89 0 131 -41
t42 -129v-193q0 -31 10 -51zM238 41q62 0 99.5 28.5t37.5 77.5v71q0 6 -6 6h-114q-71 0 -103 -22.5t-32 -70.5q0 -90 118 -90z" />
    <glyph glyph-name="b" unicode="b" horiz-adv-x="531" 
d="M290 -10q-104 0 -143 70h-1v-35q0 -29 -27 -29t-27 29v630q0 29 27 29t27 -29v-238h1q39 70 143 70q60 0 102.5 -30.5t61.5 -87.5q17 -55 17 -130q0 -76 -17 -131q-19 -57 -61.5 -87.5t-102.5 -30.5zM281 42q93 0 122 86q13 40 13 111q0 70 -13 110q-29 86 -122 86
q-95 0 -123 -83q-12 -39 -12 -113q0 -75 12 -114q28 -83 123 -83z" />
    <glyph glyph-name="c" unicode="c" horiz-adv-x="465" 
d="M60 238q0 79 15 125q19 59 65.5 91.5t112.5 32.5q54 0 93.5 -22t60.5 -58q4 -7 4 -16q0 -10 -7 -17t-17 -7q-15 0 -25 15q-38 53 -109 53q-97 0 -125 -89q-13 -39 -13 -108q0 -68 13 -107q28 -89 125 -89q71 0 109 53q10 15 25 15q10 0 17 -7t7 -17q0 -9 -4 -16
q-21 -36 -60.5 -58t-93.5 -22q-66 0 -112.5 32.5t-65.5 91.5q-15 46 -15 124z" />
    <glyph glyph-name="d" unicode="d" horiz-adv-x="531" 
d="M412 -4q-27 0 -27 29v35h-1q-39 -70 -143 -70q-60 0 -102.5 30.5t-61.5 87.5q-17 55 -17 131q0 75 17 130q19 57 61.5 87.5t102.5 30.5q104 0 143 -70h1v238q0 29 27 29t27 -29v-630q0 -29 -27 -29zM250 42q95 0 123 83q12 39 12 114q0 74 -12 113q-28 83 -123 83
q-93 0 -122 -86q-13 -40 -13 -110q0 -71 13 -111q29 -86 122 -86z" />
    <glyph glyph-name="e" unicode="e" horiz-adv-x="503" 
d="M257 -10q-141 0 -182 125q-15 45 -15 124q0 77 15 124q19 60 65.5 92t110.5 32q65 0 111.5 -32t65.5 -92q15 -45 15 -114q0 -25 -25 -25h-297q-6 0 -6 -6q0 -53 10 -83q31 -93 135 -93q76 0 129 54q10 10 20 10t17 -6.5t7 -16.5q0 -11 -6 -18q-59 -75 -170 -75zM121 273
h261q6 0 6 6q0 39 -9 68q-29 90 -128 90q-98 0 -127 -90q-9 -29 -9 -68q0 -6 6 -6z" />
    <glyph glyph-name="f" unicode="f" horiz-adv-x="308" 
d="M135 -4q-27 0 -27 29v398q0 6 -6 6h-39q-26 0 -26 24t26 24h39q6 0 6 6v51q0 84 29.5 115t103.5 31h14q28 0 28 -26t-28 -26q-60 0 -76.5 -15.5t-16.5 -71.5v-58q0 -6 6 -6h90q25 0 25 -24t-25 -24h-90q-6 0 -6 -6v-398q0 -29 -27 -29z" />
    <glyph glyph-name="g" unicode="g" horiz-adv-x="522" 
d="M238 -190q-92 0 -149 57q-8 8 -8 18q0 12 7.5 20t19.5 8t23 -11q43 -40 109 -40q136 0 136 145v60h-1q-35 -69 -140 -69q-59 0 -100.5 31t-59.5 87q-16 49 -16 126q0 78 16 127q18 56 59.5 87t100.5 31q103 0 140 -70h1v35q0 29 27 29t27 -29v-443q0 -98 -50.5 -148.5
t-141.5 -50.5zM245 50q90 0 119 84q12 35 12 108q0 74 -12 109q-29 84 -119 84q-89 0 -118 -86q-13 -39 -13 -107q0 -67 13 -106q29 -86 118 -86z" />
    <glyph glyph-name="h" unicode="h" horiz-adv-x="541" 
d="M428 -4q-27 0 -27 29v267q0 143 -125 143q-55 0 -92.5 -36.5t-37.5 -96.5v-277q0 -29 -27 -29t-27 29v630q0 29 27 29t27 -29v-236h1q44 68 141 68q79 0 123 -47.5t44 -134.5v-280q0 -29 -27 -29z" />
    <glyph glyph-name="i" unicode="i" horiz-adv-x="238" 
d="M119 600q-17 0 -29.5 12.5t-12.5 29.5t12.5 29.5t29.5 12.5t29.5 -12.5t12.5 -29.5t-12.5 -29.5t-29.5 -12.5zM119 -4q-27 0 -27 29v427q0 29 27 29t27 -29v-427q0 -29 -27 -29z" />
    <glyph glyph-name="j" unicode="j" horiz-adv-x="238" 
d="M119 600q-17 0 -29.5 12.5t-12.5 29.5t12.5 29.5t29.5 12.5t29.5 -12.5t12.5 -29.5t-12.5 -29.5t-29.5 -12.5zM26 -180q-28 0 -28 26t28 26q38 0 52 15.5t14 57.5v507q0 29 27 29t27 -29v-506q0 -68 -27 -97t-93 -29z" />
    <glyph glyph-name="k" unicode="k" horiz-adv-x="493" 
d="M425 -4q-16 0 -26 16l-151 245l-102 -118v-114q0 -29 -27 -29t-27 29v630q0 29 27 29t27 -29v-444l220 260q8 10 20 10q10 0 17 -6.5t7 -17.5q0 -8 -6 -16l-120 -142l162 -262q5 -8 5 -17q0 -10 -7 -17t-19 -7z" />
    <glyph glyph-name="l" unicode="l" horiz-adv-x="262" 
d="M200 -3h-10q-54 0 -76.5 26.5t-22.5 85.5v546q0 29 27 29t27 -29v-544q0 -35 12 -48.5t43 -13.5q28 0 28 -26t-28 -26z" />
    <glyph glyph-name="m" unicode="m" horiz-adv-x="849" 
d="M737 -4q-27 0 -27 29v267q0 143 -125 143q-55 0 -92.5 -36.5t-37.5 -96.5v-277q0 -29 -27 -29t-27 29v267q0 143 -125 143q-55 0 -92.5 -36.5t-37.5 -96.5v-277q0 -29 -27 -29t-27 29v427q0 29 27 29t27 -29v-33h1q43 68 141 68q106 0 146 -80h1q51 80 160 80
q82 0 125.5 -47.5t43.5 -134.5v-280q0 -29 -27 -29z" />
    <glyph glyph-name="n" unicode="n" horiz-adv-x="541" 
d="M428 -4q-27 0 -27 29v267q0 143 -125 143q-55 0 -92.5 -36.5t-37.5 -96.5v-277q0 -29 -27 -29t-27 29v427q0 29 27 29t27 -29v-33h1q43 68 141 68q79 0 123 -47.5t44 -134.5v-280q0 -29 -27 -29z" />
    <glyph glyph-name="o" unicode="o" horiz-adv-x="509" 
d="M254 -10q-65 0 -112 32.5t-66 91.5q-16 51 -16 125q0 73 16 124q19 59 66 91.5t112 32.5q66 0 113 -32.5t66 -91.5q16 -51 16 -124q0 -74 -16 -125q-19 -59 -66 -91.5t-113 -32.5zM254 42q97 0 127 89q13 39 13 108q0 68 -13 107q-30 89 -127 89q-96 0 -126 -89
q-13 -39 -13 -107q0 -69 13 -108q30 -89 126 -89z" />
    <glyph glyph-name="p" unicode="p" horiz-adv-x="531" 
d="M119 -184q-27 0 -27 29v607q0 29 27 29t27 -29v-35h1q39 70 143 70q60 0 102.5 -30.5t61.5 -87.5q17 -55 17 -130q0 -76 -17 -131q-19 -57 -61.5 -87.5t-102.5 -30.5q-104 0 -143 70h-1v-215q0 -29 -27 -29zM281 42q93 0 122 86q13 40 13 111q0 70 -13 110
q-29 86 -122 86q-95 0 -123 -83q-12 -39 -12 -113q0 -75 12 -114q28 -83 123 -83z" />
    <glyph glyph-name="q" unicode="q" horiz-adv-x="531" 
d="M412 -184q-27 0 -27 29v215h-1q-39 -70 -143 -70q-60 0 -102.5 30.5t-61.5 87.5q-17 55 -17 131q0 75 17 130q19 57 61.5 87.5t102.5 30.5q104 0 143 -70h1v35q0 29 27 29t27 -29v-607q0 -29 -27 -29zM250 42q95 0 123 83q12 39 12 114q0 74 -12 113q-28 83 -123 83
q-93 0 -122 -86q-13 -40 -13 -110q0 -71 13 -111q29 -86 122 -86z" />
    <glyph glyph-name="r" unicode="r" horiz-adv-x="390" 
d="M119 -4q-27 0 -27 29v427q0 29 27 29t27 -29v-46h1q14 37 47 59t78 22q46 0 82 -21q16 -9 16 -24q0 -11 -7.5 -19t-19.5 -8q-7 0 -14 3q-37 17 -67 17q-60 0 -88 -44.5t-28 -116.5v-249q0 -29 -27 -29z" />
    <glyph glyph-name="s" unicode="s" horiz-adv-x="481" 
d="M241 -10q-97 0 -172 56q-12 9 -12 23q0 11 7.5 18t18.5 7q9 0 18 -6q67 -48 145 -48q60 0 92 25t32 67q0 39 -23 58t-86 26l-49 5q-67 7 -102.5 39t-35.5 87q0 66 45 103t123 37q79 0 142 -36q17 -10 17 -25q0 -10 -6.5 -17t-16.5 -7t-20 5q-56 30 -119 30
q-54 0 -82.5 -22.5t-28.5 -62.5q0 -36 25 -55t84 -25l49 -5q138 -15 138 -129q0 -69 -48 -108.5t-135 -39.5z" />
    <glyph glyph-name="t" unicode="t" horiz-adv-x="311" 
d="M241 -3h-13q-66 0 -94 29t-28 99v298q0 6 -6 6h-39q-26 0 -26 24t26 24h39q6 0 6 6v122q0 29 27 29t27 -29v-122q0 -6 6 -6h76q26 0 26 -24t-26 -24h-76q-6 0 -6 -6v-296q0 -46 17 -62t64 -16q28 0 28 -26t-28 -26z" />
    <glyph glyph-name="u" unicode="u" horiz-adv-x="535" 
d="M416 -4q-27 0 -27 29v33h-1q-43 -68 -139 -68q-79 0 -122 47.5t-43 134.5v280q0 29 27 29t27 -29v-267q0 -143 123 -143q55 0 91.5 36.5t36.5 96.5v277q0 29 27 29t27 -29v-427q0 -29 -27 -29z" />
    <glyph glyph-name="v" unicode="v" horiz-adv-x="468" 
d="M234 -4q-23 0 -35 33l-158 411q-3 9 -3 15q0 11 7 18.5t20 7.5q19 0 26 -20l144 -376h1l141 376q7 20 26 20q13 0 20 -7.5t7 -18.5q0 -6 -3 -15l-158 -411q-12 -33 -35 -33z" />
    <glyph glyph-name="w" unicode="w" horiz-adv-x="734" 
d="M519 -4q-24 0 -33 31l-118 364h-1l-119 -364q-9 -31 -33 -31t-33 31l-138 416q-2 6 -2 12q0 11 7 18.5t19 7.5q19 0 27 -23l121 -372h1l118 363q10 32 32 32t32 -32l121 -363h1l118 372q8 23 27 23q12 0 19 -7.5t7 -18.5q0 -6 -2 -12l-138 -416q-9 -31 -33 -31z" />
    <glyph glyph-name="x" unicode="x" horiz-adv-x="462" 
d="M387 -4q-15 0 -25 15l-130 191h-1l-132 -191q-10 -15 -25 -15q-10 0 -17 7.5t-7 16.5t7 19l144 211l-127 188q-7 10 -7 19t7 16.5t17 7.5q15 0 25 -15l115 -169h1l116 169q10 15 25 15q10 0 16.5 -7t6.5 -16t-7 -20l-128 -188l144 -211q7 -10 7 -19t-7.5 -16.5
t-17.5 -7.5z" />
    <glyph glyph-name="y" unicode="y" horiz-adv-x="468" 
d="M104 -180h-8q-28 0 -28 26t28 26q35 0 54 17.5t40 72.5l19 48l-169 433q-2 6 -2 13q0 10 7.5 17.5t19.5 7.5q19 0 26 -20l145 -377h1l141 377q7 20 26 20q12 0 19 -7.5t7 -17.5q0 -7 -2 -13l-188 -489q-30 -80 -59.5 -107t-76.5 -27z" />
    <glyph glyph-name="z" unicode="z" horiz-adv-x="455" 
d="M381 0h-306q-28 0 -28 26q0 15 16 35l275 362v2h-250q-28 0 -28 26t28 26h293q28 0 28 -26q0 -14 -16 -35l-275 -362v-2h263q28 0 28 -26t-28 -26z" />
    <glyph glyph-name="braceleft" unicode="{" horiz-adv-x="318" 
d="M252 -84h-18q-49 0 -72.5 24.5t-23.5 79.5v200q0 46 -10 62.5t-38 21.5q-28 3 -28 26t28 26q28 5 38 21.5t10 62.5v196q0 55 23.5 79.5t72.5 24.5h18q25 0 25 -24q0 -23 -26 -23h-13q-26 0 -37.5 -13t-11.5 -43v-192q0 -55 -11.5 -79t-40.5 -35v-2q29 -11 40.5 -35
t11.5 -79v-196q0 -30 11.5 -43t37.5 -13h13q26 0 26 -23q0 -24 -25 -24z" />
    <glyph glyph-name="bar" unicode="|" horiz-adv-x="246" 
d="M123 -88q-24 0 -24 26v780q0 26 24 26t24 -26v-780q0 -26 -24 -26z" />
    <glyph glyph-name="braceright" unicode="}" horiz-adv-x="318" 
d="M84 -84h-17q-26 0 -26 24q0 23 26 23h13q26 0 37.5 13t11.5 43v196q0 55 11.5 79t40.5 35v2q-29 11 -40.5 35t-11.5 79v192q0 30 -11.5 43t-37.5 13h-13q-26 0 -26 23q0 24 26 24h17q50 0 73.5 -24.5t23.5 -79.5v-196q0 -46 9.5 -62.5t37.5 -21.5q28 -3 28 -26t-28 -26
q-28 -5 -37.5 -21.5t-9.5 -62.5v-200q0 -55 -23.5 -79.5t-73.5 -24.5z" />
    <glyph glyph-name="asciitilde" unicode="~" 
d="M351 216q-43 0 -97 38q-46 33 -74 33q-43 0 -74 -47q-8 -12 -20 -12q-10 0 -16 6t-6 15q0 8 4 15q42 70 113 70q43 0 97 -38q46 -33 74 -33q43 0 74 47q8 12 20 12q10 0 16 -6t6 -15q0 -8 -4 -15q-42 -70 -113 -70z" />
    <glyph glyph-name="uni00A0" unicode="&#xa0;" horiz-adv-x="246" 
 />
    <glyph glyph-name="exclamdown" unicode="&#xa1;" horiz-adv-x="266" 
d="M133 305q27 0 27 -28v-455q0 -29 -27 -29t-27 29v455q0 28 27 28zM175 439q0 -17 -12.5 -29.5t-29.5 -12.5t-29.5 12.5t-12.5 29.5t12.5 29.5t29.5 12.5t29.5 -12.5t12.5 -29.5z" />
    <glyph glyph-name="cent" unicode="&#xa2;" 
d="M157 131q23 -75 102 -87v388q-78 -11 -102 -86q-14 -42 -14 -108q0 -65 14 -107zM259 -85v77q-58 6 -97.5 38t-56.5 84q-17 53 -17 124q0 72 17 125q17 52 56.5 84t97.5 38v76q0 21 19 21t19 -21v-75q51 -1 88.5 -24.5t56.5 -57.5q4 -7 4 -16q0 -10 -7 -17t-17 -7
q-15 0 -25 15q-36 51 -100 55v-392q65 5 100 56q10 15 25 15q10 0 17 -7t7 -17q0 -9 -4 -16q-42 -78 -145 -82v-76q0 -21 -19 -21t-19 21z" />
    <glyph glyph-name="sterling" unicode="&#xa3;" 
d="M429 0h-301q-27 0 -27 25q0 16 20 39q17 19 22.5 37t5.5 52v137q0 6 -6 6h-38q-25 0 -25 24t25 24h38q6 0 6 6v169q0 81 41 126t110 45q108 0 141 -103q2 -8 2 -13q0 -11 -7.5 -17.5t-18.5 -6.5q-17 0 -28 24q-27 64 -89 64q-45 0 -71 -28t-26 -84v-176q0 -6 7 -6h123
q26 0 26 -24t-26 -24h-123q-7 0 -7 -6v-130q0 -72 -32 -107v-1h258q27 0 27 -26t-27 -26z" />
    <glyph glyph-name="currency" unicode="&#xa4;" 
d="M266 135q-68 0 -116 37l-55 -55q-8 -8 -18 -8t-17 7t-7 17q0 8 8 18l54 56q-37 48 -37 117q0 68 37 117l-54 56q-8 10 -8 18q0 10 7 17t17 7t18 -8l55 -56q49 38 116 38q66 0 115 -38l56 56q8 8 18 8t17 -7t7 -17q0 -8 -8 -18l-55 -56q38 -51 38 -117q0 -68 -38 -117
l55 -56q8 -10 8 -18q0 -10 -7 -17t-17 -7t-18 8l-56 55q-48 -37 -115 -37zM266 180q61 0 101 41t40 103t-40 103t-101 41t-101 -41t-40 -103t40 -103t101 -41z" />
    <glyph glyph-name="yen" unicode="&#xa5;" 
d="M266 -4q-27 0 -27 29v130q0 6 -6 6h-120q-26 0 -26 22q0 23 26 23h120q6 0 6 6v60q0 6 -6 6h-120q-26 0 -26 22q0 23 26 23h108v1l-150 319q-4 8 -4 16q0 10 7.5 17.5t19.5 7.5q16 0 24 -17l148 -324h2l146 324q8 17 24 17q12 0 19.5 -7.5t7.5 -17.5q0 -8 -4 -16
l-150 -319v-1h108q26 0 26 -23q0 -22 -26 -22h-120q-6 0 -6 -6v-60q0 -6 6 -6h120q26 0 26 -23q0 -22 -26 -22h-120q-6 0 -6 -6v-130q0 -29 -27 -29z" />
    <glyph glyph-name="brokenbar" unicode="&#xa6;" horiz-adv-x="246" 
d="M123 384q-24 0 -24 26v308q0 26 24 26t24 -26v-308q0 -26 -24 -26zM123 -88q-24 0 -24 26v312q0 26 24 26t24 -26v-312q0 -26 -24 -26z" />
    <glyph glyph-name="section" unicode="&#xa7;" horiz-adv-x="530" 
d="M263 -190q-65 0 -105 33t-52 91q-2 8 -2 16q0 24 25 24q22 0 26 -23q17 -92 107 -92q50 0 79 25.5t29 74.5q0 48 -31.5 74.5t-106.5 41.5q-140 27 -140 178q0 59 28 103.5t82 59.5v1q-87 33 -87 131q0 63 42 102.5t110 39.5q121 0 149 -111q2 -8 2 -16q0 -24 -26 -24
q-18 0 -24 23q-19 79 -102 79q-46 0 -72.5 -24.5t-26.5 -68.5q0 -48 29.5 -75t102.5 -43q139 -31 139 -177q0 -60 -27 -103.5t-78 -58.5v-1q89 -38 89 -133q0 -67 -45 -107t-114 -40zM265 124q55 0 88 33.5t33 95.5q0 61 -33 94.5t-88 33.5t-88 -33.5t-33 -94.5
q0 -62 33 -95.5t88 -33.5z" />
    <glyph glyph-name="dieresis" unicode="&#xa8;" horiz-adv-x="421" 
d="M310 603q-16 0 -27 11t-11 27t11 27.5t27 11.5t27 -11.5t11 -27.5t-11 -27t-27 -11zM111 603q-16 0 -27 11t-11 27t11 27.5t27 11.5t27.5 -11.5t11.5 -27.5t-11.5 -27t-27.5 -11z" />
    <glyph glyph-name="copyright" unicode="&#xa9;" horiz-adv-x="830" 
d="M415 -10q-149 0 -249.5 100.5t-100.5 249.5t100.5 249.5t249.5 100.5t249.5 -100.5t100.5 -249.5t-100.5 -249.5t-249.5 -100.5zM415 31q131 0 218.5 88.5t87.5 220.5t-87.5 220.5t-218.5 88.5t-218.5 -88.5t-87.5 -220.5t87.5 -220.5t218.5 -88.5zM422 144
q-112 0 -145 102q-11 33 -11 94t11 94q33 102 145 102q42 0 74.5 -17.5t49.5 -45.5q3 -6 3 -11q0 -21 -21 -21q-11 0 -19 10q-34 42 -88 42q-78 0 -101 -71q-9 -27 -9 -82t9 -82q23 -71 101 -71q54 0 88 42q8 10 19 10q21 0 21 -21q0 -5 -3 -11q-17 -28 -49.5 -45.5
t-74.5 -17.5z" />
    <glyph glyph-name="ordfeminine" unicode="&#xaa;" horiz-adv-x="340" 
d="M306 424q4 -8 4 -14q0 -22 -24 -22q-13 0 -23 16l-11 17h-1q-33 -35 -97 -35q-50 0 -79.5 23t-29.5 63q0 91 121 91h69q6 0 6 6v12q0 64 -76 64q-41 0 -72 -18q-7 -4 -13 -4q-8 0 -13.5 6t-5.5 15q0 11 11 19q34 24 97 24q61 0 89 -26t28 -82v-99q0 -16 7 -30zM159 426
q35 0 58.5 15.5t23.5 38.5v39q0 6 -6 6h-65q-79 0 -79 -49q0 -24 18 -37t50 -13z" />
    <glyph glyph-name="guillemotleft" unicode="&#xab;" horiz-adv-x="528" 
d="M426 97q-10 0 -18 8l-127 130q-16 16 -16 29t16 29l127 130q8 8 18 8t17 -6.5t7 -16.5q0 -9 -8 -18l-119 -122q-4 -4 0 -8l119 -122q8 -9 8 -18q0 -10 -7 -16.5t-17 -6.5zM224 97q-10 0 -18 8l-127 130q-16 16 -16 29t16 29l127 130q8 8 18 8t17 -6.5t7 -16.5
q0 -9 -8 -18l-119 -122q-4 -4 0 -8l119 -122q8 -9 8 -18q0 -10 -7 -16.5t-17 -6.5z" />
    <glyph glyph-name="logicalnot" unicode="&#xac;" 
d="M440 113q-26 0 -26 28v104q0 6 -6 6h-318q-28 0 -28 25t28 25h350q26 0 26 -25v-135q0 -28 -26 -28z" />
    <glyph glyph-name="uni00AD" unicode="&#xad;" horiz-adv-x="373" 
d="M306 240h-229q-28 0 -28 25t28 25h229q28 0 28 -25t-28 -25z" />
    <glyph glyph-name="registered" unicode="&#xae;" horiz-adv-x="459" 
d="M230 300q-82 0 -137.5 55t-55.5 138q0 82 55.5 137t137.5 55t137 -55t55 -137q0 -83 -55 -138t-137 -55zM230 330q69 0 115 46.5t46 116.5t-46 116t-115 46q-70 0 -116 -46t-46 -116t46 -116.5t116 -46.5zM174 384q-18 0 -18 18v184q0 16 16 16h73q32 0 51 -17t19 -46
q0 -47 -43 -59l36 -71q3 -6 3 -11q0 -6 -5.5 -10t-11.5 -4q-10 0 -15 9l-41 83h-45q-3 0 -3 -3v-71q0 -18 -16 -18zM244 506q37 0 37 33q0 34 -37 34h-51q-3 0 -3 -2v-62q0 -3 3 -3h51z" />
    <glyph glyph-name="macron" unicode="&#xaf;" horiz-adv-x="422" 
d="M322 618h-222q-11 0 -18 6.5t-7 16.5t7 16.5t18 6.5h222q11 0 18 -6.5t7 -16.5t-7 -16.5t-18 -6.5z" />
    <glyph glyph-name="degree" unicode="&#xb0;" horiz-adv-x="447" 
d="M223 401q-61 0 -101.5 41t-40.5 102t40.5 102t101.5 41t102 -40.5t41 -102.5t-41 -102.5t-102 -40.5zM223 439q44 0 73 30t29 75t-28.5 75t-73.5 30q-44 0 -72.5 -30t-28.5 -75t28.5 -75t72.5 -30z" />
    <glyph glyph-name="plusminus" unicode="&#xb1;" 
d="M266 104q-26 0 -26 28v146q0 6 -6 6h-144q-28 0 -28 25t28 25h144q6 0 6 6v146q0 28 26 28t26 -28v-146q0 -6 6 -6h144q28 0 28 -25t-28 -25h-144q-6 0 -6 -6v-146q0 -28 -26 -28zM442 0h-352q-28 0 -28 25t28 25h352q28 0 28 -25t-28 -25z" />
    <glyph glyph-name="twosuperior" unicode="&#xb2;" horiz-adv-x="331" 
d="M269 430h-206q-24 0 -24 22q0 14 15 30l150 175q34 40 34 76q0 29 -18.5 48t-49.5 19q-55 0 -72 -49q-7 -20 -24 -20q-22 0 -22 20q0 6 2 12q11 34 39.5 57t75.5 23q54 0 85 -31.5t31 -78.5q0 -50 -45 -101l-135 -157v-2h164q23 0 23 -21q0 -22 -23 -22z" />
    <glyph glyph-name="threesuperior" unicode="&#xb3;" horiz-adv-x="331" 
d="M167 423q-93 0 -120 70q-3 7 -3 13q0 20 21 20q13 0 23 -17q29 -43 78 -43q35 0 56.5 22t21.5 55t-23 54.5t-62 21.5q-10 0 -17 6t-7 15q0 22 24 22q35 0 55 19t20 51q0 30 -19 49t-52 19q-45 0 -69 -39q-10 -17 -23 -17q-21 0 -21 20q0 6 3 13q12 28 41 47t70 19
q53 0 85 -30.5t32 -78.5q0 -57 -51 -90v-1q24 -10 42.5 -36t18.5 -64q0 -53 -34 -86.5t-90 -33.5z" />
    <glyph glyph-name="acute" unicode="&#xb4;" horiz-adv-x="422" 
d="M197 565q-7 -11 -18 -11q-23 0 -23 22q0 7 5 15l62 100q8 13 21 13q10 0 16.5 -6.5t6.5 -15.5q0 -8 -5 -16z" />
    <glyph glyph-name="mu" unicode="&#xb5;" horiz-adv-x="543" 
d="M424 -4q-27 0 -27 29v42h-1q-17 -36 -52 -56.5t-82 -20.5q-82 0 -115 51h-1v-196q0 -29 -27 -29t-27 29v607q0 29 27 29t27 -29v-267q0 -143 123 -143q55 0 91.5 36.5t36.5 96.5v277q0 29 27 29t27 -29v-427q0 -29 -27 -29z" />
    <glyph glyph-name="mu" unicode="&#x3bc;" horiz-adv-x="543" 
d="M424 -4q-27 0 -27 29v42h-1q-17 -36 -52 -56.5t-82 -20.5q-82 0 -115 51h-1v-196q0 -29 -27 -29t-27 29v607q0 29 27 29t27 -29v-267q0 -143 123 -143q55 0 91.5 36.5t36.5 96.5v277q0 29 27 29t27 -29v-427q0 -29 -27 -29z" />
    <glyph glyph-name="paragraph" unicode="&#xb6;" horiz-adv-x="570" 
d="M456 -184q-11 0 -18.5 7t-7.5 19v782q0 6 -6 6h-96q-6 0 -6 -6v-782q0 -12 -7.5 -19t-18.5 -7t-18 7t-7 19v425q-89 5 -141 62.5t-52 144.5q0 90 58 148t162 58h159q24 0 24 -24v-814q0 -12 -7 -19t-18 -7z" />
    <glyph glyph-name="periodcentered" unicode="&#xb7;" horiz-adv-x="220" 
d="M110 220q-18 0 -31 13t-13 31t13 31t31 13t31 -13t13 -31t-13 -31t-31 -13z" />
    <glyph glyph-name="cedilla" unicode="&#xb8;" horiz-adv-x="422" 
d="M212 -135q-6 -19 -24 -19q-10 0 -17 6.5t-7 17.5q0 8 3 15l43 115q4 10 13 10h29q10 0 7 -10z" />
    <glyph glyph-name="onesuperior" unicode="&#xb9;" horiz-adv-x="331" 
d="M182 428q-23 0 -23 26v324h-1l-48 -33q-8 -5 -15 -5q-9 0 -15 6t-6 16q0 12 12 21l61 42q18 13 32 13q27 0 27 -26v-358q0 -26 -24 -26z" />
    <glyph glyph-name="ordmasculine" unicode="&#xba;" horiz-adv-x="346" 
d="M173 385q-92 0 -119 80q-10 30 -10 71t10 71q27 80 119 80t119 -80q10 -30 10 -71t-10 -71q-27 -80 -119 -80zM173 428q57 0 73 52q8 22 8 56t-8 56q-16 52 -73 52t-73 -52q-8 -22 -8 -56t8 -56q16 -52 73 -52z" />
    <glyph glyph-name="guillemotright" unicode="&#xbb;" horiz-adv-x="528" 
d="M304 97q-10 0 -17 6.5t-7 16.5q0 9 8 18l119 122q4 4 0 8l-119 122q-8 9 -8 18q0 10 7 16.5t17 6.5t18 -8l127 -130q16 -16 16 -29t-16 -29l-127 -130q-8 -8 -18 -8zM102 97q-10 0 -17 6.5t-7 16.5q0 9 8 18l119 122q4 4 0 8l-119 122q-8 9 -8 18q0 10 7 16.5t17 6.5
t18 -8l127 -130q16 -16 16 -29t-16 -29l-127 -130q-8 -8 -18 -8z" />
    <glyph glyph-name="onequarter" unicode="&#xbc;" horiz-adv-x="828" 
d="M200 272q-23 0 -23 26v324h-1l-48 -33q-8 -5 -15 -5q-9 0 -15 6t-6 16q0 12 12 21l61 42q18 13 32 13q27 0 27 -26v-358q0 -26 -24 -26zM658 -2q-24 0 -24 26v46q0 6 -6 6h-150q-25 0 -25 22q0 12 12 35l128 260q7 15 21 15q9 0 15.5 -5.5t6.5 -14.5q0 -8 -4 -16
l-124 -252v-1h120q6 0 6 6v84q0 26 24 26q23 0 23 -26v-84q0 -6 6 -6h21q24 0 24 -21q0 -22 -24 -22h-21q-6 0 -6 -6v-46q0 -12 -6.5 -19t-16.5 -7zM226 -2q-7 -12 -19 -12q-21 0 -21 21q0 6 3 12l384 663q7 12 19 12q21 0 21 -21q0 -6 -3 -12z" />
    <glyph glyph-name="onehalf" unicode="&#xbd;" horiz-adv-x="859" 
d="M200 272q-23 0 -23 26v324h-1l-48 -33q-8 -5 -15 -5q-9 0 -15 6t-6 16q0 12 12 21l61 42q18 13 32 13q27 0 27 -26v-358q0 -26 -24 -26zM743 0h-206q-24 0 -24 22q0 14 15 30l150 175q34 40 34 76q0 29 -18.5 48t-49.5 19q-55 0 -72 -49q-7 -20 -24 -20q-22 0 -22 20
q0 6 2 12q11 34 39.5 57t75.5 23q54 0 85 -31.5t31 -78.5q0 -50 -45 -101l-135 -157v-2h164q23 0 23 -21q0 -22 -23 -22zM226 -2q-7 -12 -19 -12q-21 0 -21 21q0 6 3 12l384 663q7 12 19 12q21 0 21 -21q0 -6 -3 -12z" />
    <glyph glyph-name="threequarters" unicode="&#xbe;" horiz-adv-x="897" 
d="M727 -2q-24 0 -24 26v46q0 6 -6 6h-150q-25 0 -25 22q0 12 12 35l128 260q8 15 21 15q9 0 15.5 -5.5t6.5 -14.5q0 -8 -4 -16l-124 -252v-1h120q6 0 6 6v84q0 26 24 26q23 0 23 -26v-84q0 -6 6 -6h21q24 0 24 -21q0 -22 -24 -22h-21q-6 0 -6 -6v-46q0 -12 -6.5 -19
t-16.5 -7zM294 -2q-7 -12 -19 -12q-21 0 -21 21q0 6 3 12l384 663q7 12 19 12q21 0 21 -21q0 -6 -3 -12zM224 267q-93 0 -120 70q-3 7 -3 13q0 20 21 20q13 0 23 -17q29 -43 78 -43q35 0 56.5 22t21.5 55t-23 54.5t-62 21.5q-10 0 -17 6t-7 15q0 22 24 22q35 0 55 19t20 51
q0 30 -19 49t-52 19q-45 0 -69 -39q-10 -17 -23 -17q-21 0 -21 20q0 6 3 13q12 28 41 47t70 19q53 0 85 -30.5t32 -78.5q0 -57 -51 -90v-1q24 -10 42.5 -36t18.5 -64q0 -53 -34 -86.5t-90 -33.5z" />
    <glyph glyph-name="questiondown" unicode="&#xbf;" horiz-adv-x="446" 
d="M255 278v-23q0 -55 -31 -97l-57 -76q-36 -48 -48.5 -74t-12.5 -57q0 -53 33.5 -82.5t85.5 -29.5q46 0 77 24t42 68q7 28 28 28q11 0 18.5 -7t7.5 -18q0 -5 -2 -13q-15 -61 -59.5 -97.5t-113.5 -36.5q-76 0 -123.5 45.5t-47.5 117.5q0 38 13.5 69t46.5 76l56 75
q20 27 26.5 44t6.5 45v19q0 29 27 29t27 -29zM270 439q0 -17 -12.5 -29.5t-29.5 -12.5t-29.5 12.5t-12.5 29.5t12.5 29.5t29.5 12.5t29.5 -12.5t12.5 -29.5z" />
    <glyph glyph-name="Agrave" unicode="&#xc0;" horiz-adv-x="596" 
d="M37 22q0 5 2 11l224 621q11 30 36 30t36 -30l222 -621q2 -6 2 -11q0 -12 -7.5 -19t-19.5 -7q-20 0 -28 20l-58 161h-296l-58 -161q-8 -20 -28 -20q-12 0 -19.5 7t-7.5 19zM169 232h258l-127 356h-3zM285 771l-72 83q-6 8 -6 16q0 10 7 17t17 7q11 0 18 -9l72 -85
q7 -8 7 -17q0 -10 -6.5 -16.5t-16.5 -6.5q-11 0 -20 11z" />
    <glyph glyph-name="Aacute" unicode="&#xc1;" horiz-adv-x="596" 
d="M37 22q0 5 2 11l224 621q11 30 36 30t36 -30l222 -621q2 -6 2 -11q0 -12 -7.5 -19t-19.5 -7q-20 0 -28 20l-58 161h-296l-58 -161q-8 -20 -28 -20q-12 0 -19.5 7t-7.5 19zM169 232h258l-127 356h-3zM386 854l-72 -83q-9 -11 -20 -11q-10 0 -16.5 6.5t-6.5 16.5q0 9 7 17
l72 85q8 9 18 9t17 -7t7 -17q0 -8 -6 -16z" />
    <glyph glyph-name="Acircumflex" unicode="&#xc2;" horiz-adv-x="596" 
d="M37 22q0 5 2 11l224 621q11 30 36 30t36 -30l222 -621q2 -6 2 -11q0 -12 -7.5 -19t-19.5 -7q-20 0 -28 20l-58 161h-296l-58 -161q-8 -20 -28 -20q-12 0 -19.5 7t-7.5 19zM169 232h258l-127 356h-3zM390 751q-10 0 -17 9l-74 90h-2l-74 -90q-7 -9 -17 -9q-8 0 -13.5 5
t-5.5 13q0 7 5 14l72 94q18 22 34 22t34 -22l72 -94q5 -7 5 -14q0 -8 -5.5 -13t-13.5 -5z" />
    <glyph glyph-name="Atilde" unicode="&#xc3;" horiz-adv-x="596" 
d="M37 22q0 5 2 11l224 621q11 30 36 30t36 -30l222 -621q2 -6 2 -11q0 -12 -7.5 -19t-19.5 -7q-20 0 -28 20l-58 161h-296l-58 -161q-8 -20 -28 -20q-12 0 -19.5 7t-7.5 19zM169 232h258l-127 356h-3zM351 780q-27 0 -61 22q-29 19 -46 19q-20 0 -38 -26q-8 -12 -20 -12
q-21 0 -21 20q0 7 4 14q30 49 75 49q27 0 61 -22q29 -19 46 -19q20 0 38 26q7 12 20 12q21 0 21 -20q0 -7 -4 -14q-30 -49 -75 -49z" />
    <glyph glyph-name="Adieresis" unicode="&#xc4;" horiz-adv-x="596" 
d="M37 22q0 5 2 11l224 621q11 30 36 30t36 -30l222 -621q2 -6 2 -11q0 -12 -7.5 -19t-19.5 -7q-20 0 -28 20l-58 161h-296l-58 -161q-8 -20 -28 -20q-12 0 -19.5 7t-7.5 19zM169 232h258l-127 356h-3zM397 786q-16 0 -27 11t-11 27t11 27.5t27 11.5t27 -11.5t11 -27.5
t-11 -27t-27 -11zM198 786q-16 0 -27 11t-11 27t11 27.5t27 11.5t27.5 -11.5t11.5 -27.5t-11.5 -27t-27.5 -11z" />
    <glyph glyph-name="Aring" unicode="&#xc5;" horiz-adv-x="596" 
d="M37 22q0 5 2 11l224 621q11 30 36 30t36 -30l222 -621q2 -6 2 -11q0 -12 -7.5 -19t-19.5 -7q-20 0 -28 20l-58 161h-296l-58 -161q-8 -20 -28 -20q-12 0 -19.5 7t-7.5 19zM169 232h258l-127 356h-3zM385 826q0 -38 -25 -63t-63 -25t-63 25t-25 63t25 63t63 25t63 -25
t25 -63zM350 826q0 24 -14.5 40t-38.5 16t-38.5 -16t-14.5 -40t14.5 -40t38.5 -16t38.5 16t14.5 40z" />
    <glyph glyph-name="AE" unicode="&#xc6;" horiz-adv-x="932" 
d="M854 0h-357q-27 0 -27 27v144q0 6 -6 6h-273l-101 -165q-10 -16 -27 -16q-11 0 -18.5 7.5t-7.5 19.5q0 8 5 16l378 616q14 25 39 25h395q29 0 29 -27t-29 -27h-321q-6 0 -6 -6v-242q0 -6 6 -6h274q29 0 29 -27t-29 -27h-274q-6 0 -6 -6v-252q0 -6 6 -6h321q29 0 29 -27
t-29 -27zM467 626l-243 -395h240q6 0 6 6v389h-3z" />
    <glyph glyph-name="Ccedilla" unicode="&#xc7;" horiz-adv-x="556" 
d="M279 -135q-6 -19 -24 -19q-10 0 -17 6.5t-7 17.5q0 8 3 15l39 106q-145 12 -190 151q-18 56 -18 198t18 198q51 152 217 152q64 0 117.5 -29.5t78.5 -85.5q4 -10 4 -16q0 -27 -27 -27q-15 0 -25 18q-49 86 -148 86q-122 0 -162 -113q-15 -45 -15 -183t15 -183
q40 -113 162 -113q99 0 148 86q10 18 25 18q27 0 27 -27q0 -6 -4 -16q-22 -50 -68.5 -79.5t-104.5 -34.5z" />
    <glyph glyph-name="Egrave" unicode="&#xc8;" horiz-adv-x="556" 
d="M94 27v626q0 27 28 27h356q29 0 29 -27t-29 -27h-321q-6 0 -6 -6v-242q0 -6 6 -6h274q29 0 29 -27t-29 -27h-274q-6 0 -6 -6v-252q0 -6 6 -6h321q29 0 29 -27t-29 -27h-356q-28 0 -28 27zM280 771l-72 83q-6 8 -6 16q0 10 7 17t17 7t18 -9l72 -85q7 -8 7 -17
q0 -10 -6.5 -16.5t-16.5 -6.5q-11 0 -20 11z" />
    <glyph glyph-name="Eacute" unicode="&#xc9;" horiz-adv-x="556" 
d="M94 27v626q0 27 28 27h356q29 0 29 -27t-29 -27h-321q-6 0 -6 -6v-242q0 -6 6 -6h274q29 0 29 -27t-29 -27h-274q-6 0 -6 -6v-252q0 -6 6 -6h321q29 0 29 -27t-29 -27h-356q-28 0 -28 27zM376 854l-72 -83q-9 -11 -20 -11q-10 0 -16.5 6.5t-6.5 16.5q0 9 7 17l72 85
q8 9 18 9t17 -7t7 -17q0 -8 -6 -16z" />
    <glyph glyph-name="Ecircumflex" unicode="&#xca;" horiz-adv-x="556" 
d="M94 27v626q0 27 28 27h356q29 0 29 -27t-29 -27h-321q-6 0 -6 -6v-242q0 -6 6 -6h274q29 0 29 -27t-29 -27h-274q-6 0 -6 -6v-252q0 -6 6 -6h321q29 0 29 -27t-29 -27h-356q-28 0 -28 27zM390 751q-10 0 -17 9l-74 90h-2l-74 -90q-7 -9 -17 -9q-8 0 -13.5 5t-5.5 13
q0 7 5 14l72 94q18 22 34 22t34 -22l72 -94q5 -7 5 -14q0 -8 -5.5 -13t-13.5 -5z" />
    <glyph glyph-name="Edieresis" unicode="&#xcb;" horiz-adv-x="556" 
d="M94 27v626q0 27 28 27h356q29 0 29 -27t-29 -27h-321q-6 0 -6 -6v-242q0 -6 6 -6h274q29 0 29 -27t-29 -27h-274q-6 0 -6 -6v-252q0 -6 6 -6h321q29 0 29 -27t-29 -27h-356q-28 0 -28 27zM393 786q-16 0 -27 11t-11 27t11 27.5t27 11.5t27 -11.5t11 -27.5t-11 -27
t-27 -11zM194 786q-16 0 -27 11t-11 27t11 27.5t27 11.5t27.5 -11.5t11.5 -27.5t-11.5 -27t-27.5 -11z" />
    <glyph glyph-name="Igrave" unicode="&#xcc;" horiz-adv-x="245" 
d="M94 27v626q0 31 28 31q29 0 29 -31v-626q0 -31 -29 -31q-28 0 -28 31zM103 771l-72 83q-6 8 -6 16q0 10 7 17t17 7q11 0 18 -9l72 -85q7 -8 7 -17q0 -10 -6.5 -16.5t-16.5 -6.5q-11 0 -20 11z" />
    <glyph glyph-name="Iacute" unicode="&#xcd;" horiz-adv-x="245" 
d="M94 27v626q0 31 28 31q29 0 29 -31v-626q0 -31 -29 -31q-28 0 -28 31zM217 854l-72 -83q-9 -11 -20 -11q-10 0 -16.5 6.5t-6.5 16.5q0 9 7 17l72 85q7 9 18 9q10 0 17 -7t7 -17q0 -8 -6 -16z" />
    <glyph glyph-name="Icircumflex" unicode="&#xce;" horiz-adv-x="245" 
d="M94 27v626q0 31 28 31q29 0 29 -31v-626q0 -31 -29 -31q-28 0 -28 31zM215 751q-9 0 -17 9l-74 90h-2l-74 -90q-8 -9 -17 -9q-8 0 -13.5 5t-5.5 13q0 7 5 14l72 94q18 22 34 22t34 -22l72 -94q5 -7 5 -14q0 -8 -5.5 -13t-13.5 -5z" />
    <glyph glyph-name="Idieresis" unicode="&#xcf;" horiz-adv-x="245" 
d="M94 27v626q0 31 28 31q29 0 29 -31v-626q0 -31 -29 -31q-28 0 -28 31zM222 786q-16 0 -27 11t-11 27t11 27.5t27 11.5t27 -11.5t11 -27.5t-11 -27t-27 -11zM23 786q-16 0 -27 11t-11 27t11 27.5t27 11.5t27.5 -11.5t11.5 -27.5t-11.5 -27t-27.5 -11z" />
    <glyph glyph-name="Eth" unicode="&#xd0;" horiz-adv-x="620" 
d="M301 0h-179q-28 0 -28 27v286q0 7 -6 7h-26q-26 0 -26 25t26 25h26q6 0 6 6v277q0 27 28 27h179q181 0 231 -154q20 -63 20 -186t-20 -186q-50 -154 -231 -154zM293 54q77 0 120 27.5t64 91.5q18 57 18 167t-18 167q-21 64 -64 91.5t-120 27.5h-136q-6 0 -6 -6v-244
q0 -6 6 -6h119q26 0 26 -25t-26 -25h-119q-6 0 -6 -7v-253q0 -6 6 -6h136z" />
    <glyph glyph-name="Ntilde" unicode="&#xd1;" horiz-adv-x="651" 
d="M94 27v621q0 36 35 36q23 0 41 -31l327 -542h3v542q0 31 28 31q29 0 29 -31v-621q0 -36 -35 -36q-23 0 -42 31l-325 543h-4v-543q0 -31 -29 -31q-28 0 -28 31zM381 780q-27 0 -61 22q-29 19 -46 19q-20 0 -38 -26q-8 -12 -20 -12q-21 0 -21 20q0 7 4 14q30 49 75 49
q27 0 61 -22q29 -19 46 -19q20 0 38 26q7 12 20 12q21 0 21 -20q0 -7 -4 -14q-30 -49 -75 -49z" />
    <glyph glyph-name="Ograve" unicode="&#xd2;" horiz-adv-x="609" 
d="M305 -10q-170 0 -220 153q-20 60 -20 197t20 197q50 153 220 153q169 0 219 -153q20 -60 20 -197t-20 -197q-50 -153 -219 -153zM486 340q0 130 -17 181q-38 115 -164 115q-127 0 -165 -115q-17 -51 -17 -181t17 -181q38 -115 165 -115q126 0 164 115q17 51 17 181z
M288 771l-72 83q-6 8 -6 16q0 10 7 17t17 7q11 0 18 -9l72 -85q7 -8 7 -17q0 -10 -6.5 -16.5t-16.5 -6.5q-11 0 -20 11z" />
    <glyph glyph-name="Oacute" unicode="&#xd3;" horiz-adv-x="609" 
d="M305 -10q-170 0 -220 153q-20 60 -20 197t20 197q50 153 220 153q169 0 219 -153q20 -60 20 -197t-20 -197q-50 -153 -219 -153zM486 340q0 130 -17 181q-38 115 -164 115q-127 0 -165 -115q-17 -51 -17 -181t17 -181q38 -115 165 -115q126 0 164 115q17 51 17 181z
M393 854l-72 -83q-9 -11 -20 -11q-10 0 -16.5 6.5t-6.5 16.5q0 9 7 17l72 85q7 9 18 9q10 0 17 -7t7 -17q0 -8 -6 -16z" />
    <glyph glyph-name="Ocircumflex" unicode="&#xd4;" horiz-adv-x="609" 
d="M305 -10q-170 0 -220 153q-20 60 -20 197t20 197q50 153 220 153q169 0 219 -153q20 -60 20 -197t-20 -197q-50 -153 -219 -153zM486 340q0 130 -17 181q-38 115 -164 115q-127 0 -165 -115q-17 -51 -17 -181t17 -181q38 -115 165 -115q126 0 164 115q17 51 17 181z
M396 751q-10 0 -17 9l-74 90h-2l-74 -90q-7 -9 -17 -9q-8 0 -13.5 5t-5.5 13q0 7 5 14l72 94q18 22 34 22t34 -22l72 -94q5 -7 5 -14q0 -8 -5.5 -13t-13.5 -5z" />
    <glyph glyph-name="Otilde" unicode="&#xd5;" horiz-adv-x="609" 
d="M305 -10q-170 0 -220 153q-20 60 -20 197t20 197q50 153 220 153q169 0 219 -153q20 -60 20 -197t-20 -197q-50 -153 -219 -153zM486 340q0 130 -17 181q-38 115 -164 115q-127 0 -165 -115q-17 -51 -17 -181t17 -181q38 -115 165 -115q126 0 164 115q17 51 17 181z
M358 780q-27 0 -61 22q-29 19 -46 19q-20 0 -38 -26q-7 -12 -20 -12q-21 0 -21 20q0 7 4 14q30 49 75 49q27 0 61 -22q29 -19 46 -19q20 0 38 26q8 12 20 12q21 0 21 -20q0 -7 -4 -14q-30 -49 -75 -49z" />
    <glyph glyph-name="Odieresis" unicode="&#xd6;" horiz-adv-x="609" 
d="M305 -10q-170 0 -220 153q-20 60 -20 197t20 197q50 153 220 153q169 0 219 -153q20 -60 20 -197t-20 -197q-50 -153 -219 -153zM486 340q0 130 -17 181q-38 115 -164 115q-127 0 -165 -115q-17 -51 -17 -181t17 -181q38 -115 165 -115q126 0 164 115q17 51 17 181z
M404 786q-16 0 -27 11t-11 27t11 27.5t27 11.5t27 -11.5t11 -27.5t-11 -27t-27 -11zM205 786q-16 0 -27 11t-11 27t11 27.5t27 11.5t27.5 -11.5t11.5 -27.5t-11.5 -27t-27.5 -11z" />
    <glyph glyph-name="multiply" unicode="&#xd7;" 
d="M420 157q10 -10 10 -20t-7.5 -17.5t-17.5 -7.5t-20 10l-115 115q-4 4 -8 0l-115 -115q-10 -10 -20 -10t-17.5 7.5t-7.5 17.5t10 20l115 115q4 4 0 8l-115 115q-10 10 -10 20t7.5 17.5t17.5 7.5t20 -10l115 -115q4 -4 8 0l115 115q10 10 20 10t17.5 -7.5t7.5 -17.5
t-10 -20l-115 -115q-4 -4 0 -8z" />
    <glyph glyph-name="Oslash" unicode="&#xd8;" horiz-adv-x="609" 
d="M120 -21q-7 -13 -18 -13q-20 0 -20 18q0 7 4 14l39 69q-27 34 -40 76q-20 60 -20 197t20 197q50 153 220 153q92 0 149 -48l34 60q7 13 18 13q20 0 20 -18q0 -7 -4 -14l-39 -70q26 -32 41 -76q20 -60 20 -197t-20 -197q-50 -153 -219 -153q-94 0 -151 48zM140 159
q7 -21 17 -38l268 472q-46 43 -120 43q-127 0 -165 -115q-17 -51 -17 -181t17 -181zM486 340q0 132 -17 181q-8 23 -17 37l-269 -470q46 -44 122 -44q126 0 164 115q17 51 17 181z" />
    <glyph glyph-name="Ugrave" unicode="&#xd9;" horiz-adv-x="635" 
d="M317 -10q-108 0 -169 62t-61 183v418q0 31 29 31q28 0 28 -31v-419q0 -94 45 -142t128 -48t128.5 48t45.5 142v419q0 31 28 31q29 0 29 -31v-418q0 -122 -61 -183.5t-170 -61.5zM299 771l-72 83q-6 8 -6 16q0 10 7 17t17 7q11 0 18 -9l72 -85q7 -8 7 -17
q0 -10 -6.5 -16.5t-16.5 -6.5q-11 0 -20 11z" />
    <glyph glyph-name="Uacute" unicode="&#xda;" horiz-adv-x="635" 
d="M317 -10q-108 0 -169 62t-61 183v418q0 31 29 31q28 0 28 -31v-419q0 -94 45 -142t128 -48t128.5 48t45.5 142v419q0 31 28 31q29 0 29 -31v-418q0 -122 -61 -183.5t-170 -61.5zM406 854l-72 -83q-9 -11 -20 -11q-10 0 -16.5 6.5t-6.5 16.5q0 9 7 17l72 85q8 9 18 9
t17 -7t7 -17q0 -8 -6 -16z" />
    <glyph glyph-name="Ucircumflex" unicode="&#xdb;" horiz-adv-x="635" 
d="M317 -10q-108 0 -169 62t-61 183v418q0 31 29 31q28 0 28 -31v-419q0 -94 45 -142t128 -48t128.5 48t45.5 142v419q0 31 28 31q29 0 29 -31v-418q0 -122 -61 -183.5t-170 -61.5zM409 751q-9 0 -17 9l-74 90h-2l-74 -90q-7 -9 -17 -9q-8 0 -13.5 5t-5.5 13q0 7 5 14l72 94
q18 22 34 22t34 -22l72 -94q5 -7 5 -14q0 -8 -5.5 -13t-13.5 -5z" />
    <glyph glyph-name="Udieresis" unicode="&#xdc;" horiz-adv-x="635" 
d="M317 -10q-108 0 -169 62t-61 183v418q0 31 29 31q28 0 28 -31v-419q0 -94 45 -142t128 -48t128.5 48t45.5 142v419q0 31 28 31q29 0 29 -31v-418q0 -122 -61 -183.5t-170 -61.5zM417 786q-16 0 -27 11t-11 27t11 27.5t27 11.5t27 -11.5t11 -27.5t-11 -27t-27 -11z
M218 786q-16 0 -27 11t-11 27t11 27.5t27 11.5t27.5 -11.5t11.5 -27.5t-11.5 -27t-27.5 -11z" />
    <glyph glyph-name="Yacute" unicode="&#xdd;" horiz-adv-x="507" 
d="M253 -4q-28 0 -28 31v252l-195 364q-4 8 -4 15q0 11 8 18.5t20 7.5q16 0 25 -15l175 -322h3l172 322q7 15 25 15q12 0 19.5 -7.5t7.5 -18.5q0 -7 -4 -15l-195 -364v-252q0 -31 -29 -31zM354 854l-72 -83q-9 -11 -20 -11q-10 0 -16.5 6.5t-6.5 16.5q0 9 7 17l72 85
q8 9 18 9t17 -7t7 -17q0 -8 -6 -16z" />
    <glyph glyph-name="Thorn" unicode="&#xde;" horiz-adv-x="585" 
d="M122 -4q-28 0 -28 31v626q0 31 28 31q29 0 29 -31v-108q0 -6 6 -6h174q97 0 153 -52t56 -141t-56 -140.5t-153 -51.5h-174q-6 0 -6 -6v-121q0 -31 -29 -31zM329 208q74 0 114 36t40 102t-40 102.5t-114 36.5h-172q-6 0 -6 -6v-265q0 -6 6 -6h172z" />
    <glyph glyph-name="germandbls" unicode="&#xdf;" horiz-adv-x="533" 
d="M297 -5q-28 0 -28 26t28 26q48 0 73.5 14.5t38.5 49.5q8 27 8 110q0 85 -9 113q-22 65 -111 65q-27 0 -27 26t27 26q58 0 84 22t26 70q0 96 -125 96q-73 0 -104.5 -33.5t-31.5 -109.5v-471q0 -29 -27 -29t-27 29v470q0 97 45 146t145 49q87 0 133 -38.5t46 -107.5
q0 -87 -71 -116v-2q51 -21 70 -75q11 -34 11 -130q0 -90 -12 -132q-16 -50 -55.5 -72t-106.5 -22z" />
    <glyph glyph-name="agrave" unicode="&#xe0;" horiz-adv-x="515" 
d="M456 37q4 -8 4 -15q0 -11 -7.5 -18.5t-20.5 -7.5q-16 0 -26 17l-23 38h-2q-55 -61 -152 -61q-71 0 -117 37.5t-46 103.5q0 70 47 106t134 36h122q6 0 6 6v34q0 62 -28 92.5t-96 30.5q-58 0 -109 -30q-9 -6 -19 -6q-25 0 -25 25q0 13 11 22q53 40 145 40q89 0 131 -41
t42 -129v-193q0 -31 10 -51zM238 41q62 0 99.5 28.5t37.5 77.5v71q0 6 -6 6h-114q-71 0 -103 -22.5t-32 -70.5q0 -90 118 -90zM279 554q-11 0 -18 11l-65 101q-5 8 -5 16q0 9 6.5 15.5t16.5 6.5q13 0 21 -13l62 -100q5 -8 5 -15q0 -22 -23 -22z" />
    <glyph glyph-name="aacute" unicode="&#xe1;" horiz-adv-x="515" 
d="M456 37q4 -8 4 -15q0 -11 -7.5 -18.5t-20.5 -7.5q-16 0 -26 17l-23 38h-2q-55 -61 -152 -61q-71 0 -117 37.5t-46 103.5q0 70 47 106t134 36h122q6 0 6 6v34q0 62 -28 92.5t-96 30.5q-58 0 -109 -30q-9 -6 -19 -6q-25 0 -25 25q0 13 11 22q53 40 145 40q89 0 131 -41
t42 -129v-193q0 -31 10 -51zM238 41q62 0 99.5 28.5t37.5 77.5v71q0 6 -6 6h-114q-71 0 -103 -22.5t-32 -70.5q0 -90 118 -90zM278 565q-7 -11 -18 -11q-23 0 -23 22q0 7 5 15l62 100q8 13 21 13q10 0 16.5 -6.5t6.5 -15.5q0 -8 -5 -16z" />
    <glyph glyph-name="acircumflex" unicode="&#xe2;" horiz-adv-x="515" 
d="M456 37q4 -8 4 -15q0 -11 -7.5 -18.5t-20.5 -7.5q-16 0 -26 17l-23 38h-2q-55 -61 -152 -61q-71 0 -117 37.5t-46 103.5q0 70 47 106t134 36h122q6 0 6 6v34q0 62 -28 92.5t-96 30.5q-58 0 -109 -30q-9 -6 -19 -6q-25 0 -25 25q0 13 11 22q53 40 145 40q89 0 131 -41
t42 -129v-193q0 -31 10 -51zM238 41q62 0 99.5 28.5t37.5 77.5v71q0 6 -6 6h-114q-71 0 -103 -22.5t-32 -70.5q0 -90 118 -90zM348 554q-10 0 -17 9l-74 90h-2l-74 -90q-7 -9 -17 -9q-8 0 -13.5 5t-5.5 13q0 7 5 14l72 94q16 22 34 22t34 -22l72 -94q5 -7 5 -14
q0 -8 -5.5 -13t-13.5 -5z" />
    <glyph glyph-name="atilde" unicode="&#xe3;" horiz-adv-x="515" 
d="M456 37q4 -8 4 -15q0 -11 -7.5 -18.5t-20.5 -7.5q-16 0 -26 17l-23 38h-2q-55 -61 -152 -61q-71 0 -117 37.5t-46 103.5q0 70 47 106t134 36h122q6 0 6 6v34q0 62 -28 92.5t-96 30.5q-58 0 -109 -30q-9 -6 -19 -6q-25 0 -25 25q0 13 11 22q53 40 145 40q89 0 131 -41
t42 -129v-193q0 -31 10 -51zM238 41q62 0 99.5 28.5t37.5 77.5v71q0 6 -6 6h-114q-71 0 -103 -22.5t-32 -70.5q0 -90 118 -90zM310 595q-27 0 -61 22q-29 19 -46 19q-20 0 -38 -26q-7 -12 -20 -12q-21 0 -21 20q0 7 4 14q30 49 75 49q27 0 61 -22q29 -19 46 -19q20 0 38 26
q8 12 20 12q21 0 21 -20q0 -7 -4 -14q-30 -49 -75 -49z" />
    <glyph glyph-name="adieresis" unicode="&#xe4;" horiz-adv-x="515" 
d="M456 37q4 -8 4 -15q0 -11 -7.5 -18.5t-20.5 -7.5q-16 0 -26 17l-23 38h-2q-55 -61 -152 -61q-71 0 -117 37.5t-46 103.5q0 70 47 106t134 36h122q6 0 6 6v34q0 62 -28 92.5t-96 30.5q-58 0 -109 -30q-9 -6 -19 -6q-25 0 -25 25q0 13 11 22q53 40 145 40q89 0 131 -41
t42 -129v-193q0 -31 10 -51zM238 41q62 0 99.5 28.5t37.5 77.5v71q0 6 -6 6h-114q-71 0 -103 -22.5t-32 -70.5q0 -90 118 -90zM355 603q-16 0 -27 11t-11 27t11 27.5t27 11.5t27 -11.5t11 -27.5t-11 -27t-27 -11zM156 603q-16 0 -27 11t-11 27t11 27.5t27 11.5t27.5 -11.5
t11.5 -27.5t-11.5 -27t-27.5 -11z" />
    <glyph glyph-name="aring" unicode="&#xe5;" horiz-adv-x="515" 
d="M456 37q4 -8 4 -15q0 -11 -7.5 -18.5t-20.5 -7.5q-16 0 -26 17l-23 38h-2q-55 -61 -152 -61q-71 0 -117 37.5t-46 103.5q0 70 47 106t134 36h122q6 0 6 6v34q0 62 -28 92.5t-96 30.5q-58 0 -109 -30q-9 -6 -19 -6q-25 0 -25 25q0 13 11 22q53 40 145 40q89 0 131 -41
t42 -129v-193q0 -31 10 -51zM238 41q62 0 99.5 28.5t37.5 77.5v71q0 6 -6 6h-114q-71 0 -103 -22.5t-32 -70.5q0 -90 118 -90zM346 629q0 -38 -25 -63t-63 -25t-63 25t-25 63t25 63t63 25t63 -25t25 -63zM311 629q0 24 -14.5 40t-38.5 16t-38.5 -16t-14.5 -40t14.5 -40
t38.5 -16t38.5 16t14.5 40z" />
    <glyph glyph-name="ae" unicode="&#xe6;" horiz-adv-x="814" 
d="M569 -10q-113 0 -162 85h-2q-53 -85 -176 -85q-71 0 -117 37.5t-46 103.5q0 70 47 106t134 36h122q6 0 6 6v34q0 62 -28 92.5t-96 30.5q-58 0 -109 -30q-9 -6 -19 -6q-25 0 -25 25q0 13 11 22q53 40 145 40q119 0 155 -77h2q49 77 152 77q65 0 111.5 -32t65.5 -92
q15 -45 15 -114q0 -25 -25 -25h-297q-6 0 -6 -6q0 -54 10 -83q31 -93 135 -93q76 0 129 54q10 10 20 10t17 -6.5t7 -16.5q0 -11 -6 -18q-59 -75 -170 -75zM433 273h261q6 0 6 6q0 39 -9 68q-29 90 -128 90q-98 0 -127 -90q-9 -28 -9 -68q0 -6 6 -6zM238 41q62 0 99.5 28.5
t37.5 77.5v71q0 6 -6 6h-114q-71 0 -103 -22.5t-32 -70.5q0 -90 118 -90z" />
    <glyph glyph-name="ccedilla" unicode="&#xe7;" horiz-adv-x="465" 
d="M234 -135q-6 -19 -24 -19q-10 0 -17 6.5t-7 17.5q0 8 3 15l40 107q-57 5 -97.5 37t-56.5 85q-15 46 -15 124q0 79 15 125q19 59 65.5 91.5t112.5 32.5q54 0 93.5 -22t60.5 -58q4 -7 4 -16q0 -10 -7 -17t-17 -7q-15 0 -25 15q-38 53 -109 53q-97 0 -125 -89
q-13 -39 -13 -108q0 -68 13 -107q28 -89 125 -89q71 0 109 53q10 15 25 15q10 0 17 -7t7 -17q0 -9 -4 -16q-39 -68 -129 -78z" />
    <glyph glyph-name="egrave" unicode="&#xe8;" horiz-adv-x="503" 
d="M257 -10q-141 0 -182 125q-15 45 -15 124q0 77 15 124q19 60 65.5 92t110.5 32q65 0 111.5 -32t65.5 -92q15 -45 15 -114q0 -25 -25 -25h-297q-6 0 -6 -6q0 -53 10 -83q31 -93 135 -93q76 0 129 54q10 10 20 10t17 -6.5t7 -16.5q0 -11 -6 -18q-59 -75 -170 -75zM121 273
h261q6 0 6 6q0 39 -9 68q-29 90 -128 90q-98 0 -127 -90q-9 -29 -9 -68q0 -6 6 -6zM254 554q-11 0 -18 11l-65 101q-5 8 -5 16q0 9 6.5 15.5t16.5 6.5q13 0 21 -13l62 -100q5 -8 5 -15q0 -22 -23 -22z" />
    <glyph glyph-name="eacute" unicode="&#xe9;" horiz-adv-x="503" 
d="M257 -10q-141 0 -182 125q-15 45 -15 124q0 77 15 124q19 60 65.5 92t110.5 32q65 0 111.5 -32t65.5 -92q15 -45 15 -114q0 -25 -25 -25h-297q-6 0 -6 -6q0 -53 10 -83q31 -93 135 -93q76 0 129 54q10 10 20 10t17 -6.5t7 -16.5q0 -11 -6 -18q-59 -75 -170 -75zM121 273
h261q6 0 6 6q0 39 -9 68q-29 90 -128 90q-98 0 -127 -90q-9 -29 -9 -68q0 -6 6 -6zM269 565q-7 -11 -18 -11q-23 0 -23 22q0 7 5 15l62 100q8 13 21 13q10 0 16.5 -6.5t6.5 -15.5q0 -8 -5 -16z" />
    <glyph glyph-name="ecircumflex" unicode="&#xea;" horiz-adv-x="503" 
d="M257 -10q-141 0 -182 125q-15 45 -15 124q0 77 15 124q19 60 65.5 92t110.5 32q65 0 111.5 -32t65.5 -92q15 -45 15 -114q0 -25 -25 -25h-297q-6 0 -6 -6q0 -53 10 -83q31 -93 135 -93q76 0 129 54q10 10 20 10t17 -6.5t7 -16.5q0 -11 -6 -18q-59 -75 -170 -75zM121 273
h261q6 0 6 6q0 39 -9 68q-29 90 -128 90q-98 0 -127 -90q-9 -29 -9 -68q0 -6 6 -6zM343 554q-9 0 -17 9l-74 90h-2l-74 -90q-8 -9 -17 -9q-8 0 -13.5 5t-5.5 13q0 7 5 14l72 94q17 22 34 22t34 -22l72 -94q5 -7 5 -14q0 -8 -5.5 -13t-13.5 -5z" />
    <glyph glyph-name="edieresis" unicode="&#xeb;" horiz-adv-x="503" 
d="M257 -10q-141 0 -182 125q-15 45 -15 124q0 77 15 124q19 60 65.5 92t110.5 32q65 0 111.5 -32t65.5 -92q15 -45 15 -114q0 -25 -25 -25h-297q-6 0 -6 -6q0 -53 10 -83q31 -93 135 -93q76 0 129 54q10 10 20 10t17 -6.5t7 -16.5q0 -11 -6 -18q-59 -75 -170 -75zM121 273
h261q6 0 6 6q0 39 -9 68q-29 90 -128 90q-98 0 -127 -90q-9 -29 -9 -68q0 -6 6 -6zM350 603q-16 0 -27 11t-11 27t11 27.5t27 11.5t27 -11.5t11 -27.5t-11 -27t-27 -11zM151 603q-16 0 -27 11t-11 27t11 27.5t27 11.5t27.5 -11.5t11.5 -27.5t-11.5 -27t-27.5 -11z" />
    <glyph glyph-name="igrave" unicode="&#xec;" horiz-adv-x="238" 
d="M119 -4q-27 0 -27 29v427q0 29 27 29t27 -29v-427q0 -29 -27 -29zM121 554q-11 0 -18 11l-65 101q-5 8 -5 16q0 9 6.5 15.5t16.5 6.5q13 0 21 -13l62 -100q5 -8 5 -15q0 -22 -23 -22z" />
    <glyph glyph-name="iacute" unicode="&#xed;" horiz-adv-x="238" 
d="M119 -4q-27 0 -27 29v427q0 29 27 29t27 -29v-427q0 -29 -27 -29zM136 565q-7 -11 -18 -11q-23 0 -23 22q0 7 5 15l62 100q8 13 21 13q10 0 16.5 -6.5t6.5 -15.5q0 -8 -5 -16z" />
    <glyph glyph-name="icircumflex" unicode="&#xee;" horiz-adv-x="238" 
d="M119 -4q-27 0 -27 29v427q0 29 27 29t27 -29v-427q0 -29 -27 -29zM211 554q-9 0 -17 9l-74 90h-2l-74 -90q-8 -9 -17 -9q-8 0 -13.5 5t-5.5 13q0 7 5 14l72 94q16 22 34 22q17 0 34 -22l72 -94q5 -7 5 -14q0 -8 -5.5 -13t-13.5 -5z" />
    <glyph glyph-name="idieresis" unicode="&#xef;" horiz-adv-x="238" 
d="M119 -4q-27 0 -27 29v427q0 29 27 29t27 -29v-427q0 -29 -27 -29zM219 603q-16 0 -27 11t-11 27t11 27.5t27 11.5t27 -11.5t11 -27.5t-11 -27t-27 -11zM20 603q-16 0 -27 11t-11 27t11 27.5t27 11.5t27.5 -11.5t11.5 -27.5t-11.5 -27t-27.5 -11z" />
    <glyph glyph-name="eth" unicode="&#xf0;" horiz-adv-x="509" 
d="M294 575l38 -46q63 -76 90 -141t27 -144q0 -82 -16 -130q-19 -59 -66 -91.5t-113 -32.5t-113 32.5t-66 90.5q-15 47 -15 121q0 73 15 118q19 58 64 90.5t104 32.5q49 0 87 -27h1l-90 111l-85 -25q-6 -2 -11 -2q-22 0 -22 22q0 17 18 22l70 21l-36 45q-7 10 -7 18
q0 10 6.5 17t18.5 7q13 0 23 -13l47 -59l82 25q6 2 11 2q22 0 22 -22q0 -17 -18 -22zM254 42q98 0 127 89q13 41 13 103q0 61 -13 103q-29 88 -127 88q-97 0 -126 -88q-13 -42 -13 -103q0 -64 13 -104q29 -88 126 -88z" />
    <glyph glyph-name="ntilde" unicode="&#xf1;" horiz-adv-x="541" 
d="M428 -4q-27 0 -27 29v267q0 143 -125 143q-55 0 -92.5 -36.5t-37.5 -96.5v-277q0 -29 -27 -29t-27 29v427q0 29 27 29t27 -29v-33h1q43 68 141 68q79 0 123 -47.5t44 -134.5v-280q0 -29 -27 -29zM324 595q-27 0 -61 22q-29 19 -46 19q-20 0 -38 -26q-7 -12 -20 -12
q-21 0 -21 20q0 7 4 14q30 49 75 49q27 0 61 -22q29 -19 46 -19q20 0 38 26q8 12 20 12q21 0 21 -20q0 -7 -4 -14q-30 -49 -75 -49z" />
    <glyph glyph-name="ograve" unicode="&#xf2;" horiz-adv-x="509" 
d="M254 -10q-65 0 -112 32.5t-66 91.5q-16 51 -16 125q0 73 16 124q19 59 66 91.5t112 32.5q66 0 113 -32.5t66 -91.5q16 -51 16 -124q0 -74 -16 -125q-19 -59 -66 -91.5t-113 -32.5zM254 42q97 0 127 89q13 39 13 108q0 68 -13 107q-30 89 -127 89q-96 0 -126 -89
q-13 -39 -13 -107q0 -69 13 -108q30 -89 126 -89zM254 554q-11 0 -18 11l-65 101q-5 8 -5 16q0 9 6.5 15.5t16.5 6.5q13 0 21 -13l62 -100q5 -8 5 -15q0 -22 -23 -22z" />
    <glyph glyph-name="oacute" unicode="&#xf3;" horiz-adv-x="509" 
d="M254 -10q-65 0 -112 32.5t-66 91.5q-16 51 -16 125q0 73 16 124q19 59 66 91.5t112 32.5q66 0 113 -32.5t66 -91.5q16 -51 16 -124q0 -74 -16 -125q-19 -59 -66 -91.5t-113 -32.5zM254 42q97 0 127 89q13 39 13 108q0 68 -13 107q-30 89 -127 89q-96 0 -126 -89
q-13 -39 -13 -107q0 -69 13 -108q30 -89 126 -89zM273 565q-7 -11 -18 -11q-23 0 -23 22q0 7 5 15l62 100q8 13 21 13q10 0 16.5 -6.5t6.5 -15.5q0 -8 -5 -16z" />
    <glyph glyph-name="ocircumflex" unicode="&#xf4;" horiz-adv-x="509" 
d="M254 -10q-65 0 -112 32.5t-66 91.5q-16 51 -16 125q0 73 16 124q19 59 66 91.5t112 32.5q66 0 113 -32.5t66 -91.5q16 -51 16 -124q0 -74 -16 -125q-19 -59 -66 -91.5t-113 -32.5zM254 42q97 0 127 89q13 39 13 108q0 68 -13 107q-30 89 -127 89q-96 0 -126 -89
q-13 -39 -13 -107q0 -69 13 -108q30 -89 126 -89zM346 554q-10 0 -17 9l-74 90h-2l-74 -90q-8 -9 -17 -9q-8 0 -13.5 5t-5.5 13q0 7 5 14l72 94q16 22 34 22t34 -22l72 -94q5 -7 5 -14q0 -8 -5.5 -13t-13.5 -5z" />
    <glyph glyph-name="otilde" unicode="&#xf5;" horiz-adv-x="509" 
d="M254 -10q-65 0 -112 32.5t-66 91.5q-16 51 -16 125q0 73 16 124q19 59 66 91.5t112 32.5q66 0 113 -32.5t66 -91.5q16 -51 16 -124q0 -74 -16 -125q-19 -59 -66 -91.5t-113 -32.5zM254 42q97 0 127 89q13 39 13 108q0 68 -13 107q-30 89 -127 89q-96 0 -126 -89
q-13 -39 -13 -107q0 -69 13 -108q30 -89 126 -89zM308 595q-27 0 -61 22q-29 19 -46 19q-20 0 -38 -26q-7 -12 -20 -12q-21 0 -21 20q0 7 4 14q30 49 75 49q27 0 61 -22q29 -19 46 -19q20 0 38 26q8 12 20 12q21 0 21 -20q0 -7 -4 -14q-30 -49 -75 -49z" />
    <glyph glyph-name="odieresis" unicode="&#xf6;" horiz-adv-x="509" 
d="M254 -10q-65 0 -112 32.5t-66 91.5q-16 51 -16 125q0 73 16 124q19 59 66 91.5t112 32.5q66 0 113 -32.5t66 -91.5q16 -51 16 -124q0 -74 -16 -125q-19 -59 -66 -91.5t-113 -32.5zM254 42q97 0 127 89q13 39 13 108q0 68 -13 107q-30 89 -127 89q-96 0 -126 -89
q-13 -39 -13 -107q0 -69 13 -108q30 -89 126 -89zM354 603q-16 0 -27 11t-11 27t11 27.5t27 11.5t27 -11.5t11 -27.5t-11 -27t-27 -11zM155 603q-16 0 -27 11t-11 27t11 27.5t27 11.5t27.5 -11.5t11.5 -27.5t-11.5 -27t-27.5 -11z" />
    <glyph glyph-name="divide" unicode="&#xf7;" 
d="M223 423q0 18 12.5 30.5t30.5 12.5t30.5 -12.5t12.5 -30.5t-12.5 -30.5t-30.5 -12.5t-30.5 12.5t-12.5 30.5zM442 251h-352q-28 0 -28 25t28 25h352q28 0 28 -25t-28 -25zM223 129q0 18 12.5 30.5t30.5 12.5t30.5 -12.5t12.5 -30.5t-12.5 -30.5t-30.5 -12.5t-30.5 12.5
t-12.5 30.5z" />
    <glyph glyph-name="oslash" unicode="&#xf8;" horiz-adv-x="509" 
d="M83 -34q-16 0 -16 16q0 5 4 12l39 59q-24 29 -33 61q-17 53 -17 124q0 72 17 125q19 59 65 91.5t112 32.5q72 0 120 -39l36 54q6 9 15 9q16 0 16 -16q0 -5 -4 -12l-38 -59q20 -25 33 -61q17 -53 17 -125q0 -71 -17 -124q-19 -59 -65.5 -91.5t-112.5 -32.5q-71 0 -121 39
l-35 -54q-6 -9 -15 -9zM129 132q7 -20 14 -31l201 303q-34 31 -90 31q-97 0 -125 -90q-14 -42 -14 -107q0 -64 14 -106zM254 42q98 0 126 90q14 42 14 106q0 65 -14 107q-7 19 -14 31l-202 -302q35 -32 90 -32z" />
    <glyph glyph-name="ugrave" unicode="&#xf9;" horiz-adv-x="535" 
d="M416 -4q-27 0 -27 29v33h-1q-43 -68 -139 -68q-79 0 -122 47.5t-43 134.5v280q0 29 27 29t27 -29v-267q0 -143 123 -143q55 0 91.5 36.5t36.5 96.5v277q0 29 27 29t27 -29v-427q0 -29 -27 -29zM270 554q-11 0 -18 11l-65 101q-5 8 -5 16q0 9 6.5 15.5t16.5 6.5
q13 0 21 -13l62 -100q5 -8 5 -15q0 -22 -23 -22z" />
    <glyph glyph-name="uacute" unicode="&#xfa;" horiz-adv-x="535" 
d="M416 -4q-27 0 -27 29v33h-1q-43 -68 -139 -68q-79 0 -122 47.5t-43 134.5v280q0 29 27 29t27 -29v-267q0 -143 123 -143q55 0 91.5 36.5t36.5 96.5v277q0 29 27 29t27 -29v-427q0 -29 -27 -29zM280 565q-7 -11 -18 -11q-23 0 -23 22q0 7 5 15l62 100q8 13 21 13
q10 0 16.5 -6.5t6.5 -15.5q0 -8 -5 -16z" />
    <glyph glyph-name="ucircumflex" unicode="&#xfb;" horiz-adv-x="535" 
d="M416 -4q-27 0 -27 29v33h-1q-43 -68 -139 -68q-79 0 -122 47.5t-43 134.5v280q0 29 27 29t27 -29v-267q0 -143 123 -143q55 0 91.5 36.5t36.5 96.5v277q0 29 27 29t27 -29v-427q0 -29 -27 -29zM359 554q-9 0 -17 9l-74 90h-2l-74 -90q-7 -9 -17 -9q-8 0 -13.5 5t-5.5 13
q0 7 5 14l72 94q17 22 34 22t34 -22l72 -94q5 -7 5 -14q0 -8 -5.5 -13t-13.5 -5z" />
    <glyph glyph-name="udieresis" unicode="&#xfc;" horiz-adv-x="535" 
d="M416 -4q-27 0 -27 29v33h-1q-43 -68 -139 -68q-79 0 -122 47.5t-43 134.5v280q0 29 27 29t27 -29v-267q0 -143 123 -143q55 0 91.5 36.5t36.5 96.5v277q0 29 27 29t27 -29v-427q0 -29 -27 -29zM366 603q-16 0 -27 11t-11 27t11 27.5t27 11.5t27 -11.5t11 -27.5t-11 -27
t-27 -11zM167 603q-16 0 -27 11t-11 27t11 27.5t27 11.5t27.5 -11.5t11.5 -27.5t-11.5 -27t-27.5 -11z" />
    <glyph glyph-name="yacute" unicode="&#xfd;" horiz-adv-x="468" 
d="M104 -180h-8q-28 0 -28 26t28 26q35 0 54 17.5t40 72.5l19 48l-169 433q-2 6 -2 13q0 10 7.5 17.5t19.5 7.5q19 0 26 -20l145 -377h1l141 377q7 20 26 20q12 0 19 -7.5t7 -17.5q0 -7 -2 -13l-188 -489q-30 -80 -59.5 -107t-76.5 -27zM254 565q-7 -11 -18 -11
q-23 0 -23 22q0 7 5 15l62 100q8 13 21 13q10 0 16.5 -6.5t6.5 -15.5q0 -8 -5 -16z" />
    <glyph glyph-name="thorn" unicode="&#xfe;" horiz-adv-x="531" 
d="M119 -184q-27 0 -27 29v810q0 29 27 29t27 -29v-238h1q39 70 143 70q60 0 102.5 -30.5t61.5 -87.5q17 -55 17 -130q0 -76 -17 -131q-19 -57 -61.5 -87.5t-102.5 -30.5q-104 0 -143 70h-1v-215q0 -29 -27 -29zM281 42q93 0 122 86q13 40 13 111q0 70 -13 110
q-29 86 -122 86q-95 0 -123 -83q-12 -39 -12 -113q0 -75 12 -114q28 -83 123 -83z" />
    <glyph glyph-name="ydieresis" unicode="&#xff;" horiz-adv-x="468" 
d="M104 -180h-8q-28 0 -28 26t28 26q35 0 54 17.5t40 72.5l19 48l-169 433q-2 6 -2 13q0 10 7.5 17.5t19.5 7.5q19 0 26 -20l145 -377h1l141 377q7 20 26 20q12 0 19 -7.5t7 -17.5q0 -7 -2 -13l-188 -489q-30 -80 -59.5 -107t-76.5 -27zM333 603q-16 0 -27 11t-11 27
t11 27.5t27 11.5t27 -11.5t11 -27.5t-11 -27t-27 -11zM134 603q-16 0 -27 11t-11 27t11 27.5t27 11.5t27.5 -11.5t11.5 -27.5t-11.5 -27t-27.5 -11z" />
    <glyph glyph-name="Amacron" unicode="&#x100;" horiz-adv-x="596" 
d="M37 22q0 5 2 11l224 621q11 30 36 30t36 -30l222 -621q2 -6 2 -11q0 -12 -7.5 -19t-19.5 -7q-20 0 -28 20l-58 161h-296l-58 -161q-8 -20 -28 -20q-12 0 -19.5 7t-7.5 19zM169 232h258l-127 356h-3zM409 800h-222q-11 0 -18 6.5t-7 16.5t7 16.5t18 6.5h222q11 0 18 -6.5
t7 -16.5t-7 -16.5t-18 -6.5z" />
    <glyph glyph-name="amacron" unicode="&#x101;" horiz-adv-x="515" 
d="M456 37q4 -8 4 -15q0 -11 -7.5 -18.5t-20.5 -7.5q-16 0 -26 17l-23 38h-2q-55 -61 -152 -61q-71 0 -117 37.5t-46 103.5q0 70 47 106t134 36h122q6 0 6 6v34q0 62 -28 92.5t-96 30.5q-58 0 -109 -30q-9 -6 -19 -6q-25 0 -25 25q0 13 11 22q53 40 145 40q89 0 131 -41
t42 -129v-193q0 -31 10 -51zM238 41q62 0 99.5 28.5t37.5 77.5v71q0 6 -6 6h-114q-71 0 -103 -22.5t-32 -70.5q0 -90 118 -90zM367 618h-222q-11 0 -18 6.5t-7 16.5t7 16.5t18 6.5h222q11 0 18 -6.5t7 -16.5t-7 -16.5t-18 -6.5z" />
    <glyph glyph-name="Abreve" unicode="&#x102;" horiz-adv-x="596" 
d="M37 22q0 5 2 11l224 621q11 30 36 30t36 -30l222 -621q2 -6 2 -11q0 -12 -7.5 -19t-19.5 -7q-20 0 -28 20l-58 161h-296l-58 -161q-8 -20 -28 -20q-12 0 -19.5 7t-7.5 19zM169 232h258l-127 356h-3zM298 768q-54 0 -88.5 31t-34.5 67q0 18 19 18q15 0 21 -19
q19 -53 83 -53t83 53q6 19 21 19q19 0 19 -18q0 -36 -34.5 -67t-88.5 -31z" />
    <glyph glyph-name="abreve" unicode="&#x103;" horiz-adv-x="515" 
d="M456 37q4 -8 4 -15q0 -11 -7.5 -18.5t-20.5 -7.5q-16 0 -26 17l-23 38h-2q-55 -61 -152 -61q-71 0 -117 37.5t-46 103.5q0 70 47 106t134 36h122q6 0 6 6v34q0 62 -28 92.5t-96 30.5q-58 0 -109 -30q-9 -6 -19 -6q-25 0 -25 25q0 13 11 22q53 40 145 40q89 0 131 -41
t42 -129v-193q0 -31 10 -51zM238 41q62 0 99.5 28.5t37.5 77.5v71q0 6 -6 6h-114q-71 0 -103 -22.5t-32 -70.5q0 -90 118 -90zM256 570q-54 0 -88.5 31t-34.5 67q0 18 19 18q15 0 21 -19q19 -53 83 -53t83 53q6 19 21 19q19 0 19 -18q0 -36 -34.5 -67t-88.5 -31z" />
    <glyph glyph-name="Aogonek" unicode="&#x104;" horiz-adv-x="596" 
d="M421 -104q0 58 83 118l-58 163h-296l-58 -161q-8 -20 -28 -20q-12 0 -19.5 7t-7.5 19q0 5 2 11l224 621q11 30 36 30t36 -30l222 -621q2 -6 2 -12q0 -18 -26 -38q-63 -48 -63 -80q0 -28 29 -28q11 0 21 5q8 4 13 4q21 0 21 -22q0 -11 -11 -19q-22 -15 -52 -15
q-32 0 -51 18t-19 50zM297 588l-128 -356h257l-126 356h-3z" />
    <glyph glyph-name="aogonek" unicode="&#x105;" horiz-adv-x="515" 
d="M322 -104q0 30 18.5 55.5t65.5 62.5l-23 37h-2q-55 -61 -152 -61q-71 0 -117 37.5t-46 103.5q0 70 47 106t134 36h122q6 0 6 6v34q0 62 -28 92.5t-96 30.5q-58 0 -109 -30q-9 -6 -19 -6q-25 0 -25 25q0 13 11 22q53 40 145 40q89 0 131 -41t42 -129v-193q0 -31 10 -51
l19 -36q4 -8 4 -16q0 -15 -27 -37q-62 -49 -62 -81q0 -28 29 -28q11 0 21 5q8 4 13 4q21 0 21 -22q0 -11 -11 -19q-22 -15 -52 -15q-32 0 -51 18t-19 50zM238 41q62 0 99.5 28.5t37.5 77.5v71q0 6 -6 6h-114q-71 0 -103 -22.5t-32 -70.5q0 -90 118 -90z" />
    <glyph glyph-name="Cacute" unicode="&#x106;" horiz-adv-x="556" 
d="M83 142q-18 56 -18 198t18 198q51 152 217 152q64 0 117.5 -29.5t78.5 -85.5q4 -10 4 -16q0 -27 -27 -27q-15 0 -25 18q-49 86 -148 86q-122 0 -162 -113q-15 -45 -15 -183t15 -183q40 -113 162 -113q99 0 148 86q10 18 25 18q27 0 27 -27q0 -6 -4 -16
q-25 -56 -78.5 -85.5t-117.5 -29.5q-166 0 -217 152zM381 854l-72 -83q-9 -11 -20 -11q-10 0 -16.5 6.5t-6.5 16.5q0 9 7 17l72 85q7 9 18 9q10 0 17 -7t7 -17q0 -8 -6 -16z" />
    <glyph glyph-name="cacute" unicode="&#x107;" horiz-adv-x="465" 
d="M60 238q0 79 15 125q19 59 65.5 91.5t112.5 32.5q54 0 93.5 -22t60.5 -58q4 -7 4 -16q0 -10 -7 -17t-17 -7q-15 0 -25 15q-38 53 -109 53q-97 0 -125 -89q-13 -39 -13 -108q0 -68 13 -107q28 -89 125 -89q71 0 109 53q10 15 25 15q10 0 17 -7t7 -17q0 -9 -4 -16
q-21 -36 -60.5 -58t-93.5 -22q-66 0 -112.5 32.5t-65.5 91.5q-15 46 -15 124zM266 565q-7 -11 -18 -11q-23 0 -23 22q0 7 5 15l62 100q8 13 21 13q10 0 16.5 -6.5t6.5 -15.5q0 -8 -5 -16z" />
    <glyph glyph-name="Ccircumflex" unicode="&#x108;" horiz-adv-x="556" 
d="M83 142q-18 56 -18 198t18 198q51 152 217 152q64 0 117.5 -29.5t78.5 -85.5q4 -10 4 -16q0 -27 -27 -27q-15 0 -25 18q-49 86 -148 86q-122 0 -162 -113q-15 -45 -15 -183t15 -183q40 -113 162 -113q99 0 148 86q10 18 25 18q27 0 27 -27q0 -6 -4 -16
q-25 -56 -78.5 -85.5t-117.5 -29.5q-166 0 -217 152zM387 751q-9 0 -17 9l-74 90h-2l-74 -90q-8 -9 -17 -9q-8 0 -13.5 5t-5.5 13q0 7 5 14l72 94q18 22 34 22t34 -22l72 -94q5 -7 5 -14q0 -8 -5.5 -13t-13.5 -5z" />
    <glyph glyph-name="ccircumflex" unicode="&#x109;" horiz-adv-x="465" 
d="M60 238q0 79 15 125q19 59 65.5 91.5t112.5 32.5q54 0 93.5 -22t60.5 -58q4 -7 4 -16q0 -10 -7 -17t-17 -7q-15 0 -25 15q-38 53 -109 53q-97 0 -125 -89q-13 -39 -13 -108q0 -68 13 -107q28 -89 125 -89q71 0 109 53q10 15 25 15q10 0 17 -7t7 -17q0 -9 -4 -16
q-21 -36 -60.5 -58t-93.5 -22q-66 0 -112.5 32.5t-65.5 91.5q-15 46 -15 124zM345 554q-9 0 -17 9l-74 90h-2l-74 -90q-8 -9 -17 -9q-8 0 -13.5 5t-5.5 13q0 7 5 14l72 94q17 22 34 22t34 -22l72 -94q5 -7 5 -14q0 -8 -5.5 -13t-13.5 -5z" />
    <glyph glyph-name="Cdotaccent" unicode="&#x10a;" horiz-adv-x="556" 
d="M83 142q-18 56 -18 198t18 198q51 152 217 152q64 0 117.5 -29.5t78.5 -85.5q4 -10 4 -16q0 -27 -27 -27q-15 0 -25 18q-49 86 -148 86q-122 0 -162 -113q-15 -45 -15 -183t15 -183q40 -113 162 -113q99 0 148 86q10 18 25 18q27 0 27 -27q0 -6 -4 -16
q-25 -56 -78.5 -85.5t-117.5 -29.5q-166 0 -217 152zM295 781q-17 0 -29.5 12.5t-12.5 29.5t12.5 29.5t29.5 12.5t29.5 -12.5t12.5 -29.5t-12.5 -29.5t-29.5 -12.5z" />
    <glyph glyph-name="cdotaccent" unicode="&#x10b;" horiz-adv-x="465" 
d="M60 238q0 79 15 125q19 59 65.5 91.5t112.5 32.5q54 0 93.5 -22t60.5 -58q4 -7 4 -16q0 -10 -7 -17t-17 -7q-15 0 -25 15q-38 53 -109 53q-97 0 -125 -89q-13 -39 -13 -108q0 -68 13 -107q28 -89 125 -89q71 0 109 53q10 15 25 15q10 0 17 -7t7 -17q0 -9 -4 -16
q-21 -36 -60.5 -58t-93.5 -22q-66 0 -112.5 32.5t-65.5 91.5q-15 46 -15 124zM252 600q-17 0 -29.5 12.5t-12.5 29.5t12.5 29.5t29.5 12.5t29.5 -12.5t12.5 -29.5t-12.5 -29.5t-29.5 -12.5z" />
    <glyph glyph-name="Ccaron" unicode="&#x10c;" horiz-adv-x="556" 
d="M83 142q-18 56 -18 198t18 198q51 152 217 152q64 0 117.5 -29.5t78.5 -85.5q4 -10 4 -16q0 -27 -27 -27q-15 0 -25 18q-49 86 -148 86q-122 0 -162 -113q-15 -45 -15 -183t15 -183q40 -113 162 -113q99 0 148 86q10 18 25 18q27 0 27 -27q0 -6 -4 -16
q-25 -56 -78.5 -85.5t-117.5 -29.5q-166 0 -217 152zM296 750q-16 0 -34 22l-72 94q-5 7 -5 14q0 8 5.5 13t13.5 5q10 0 17 -9l74 -90h2l74 90q7 9 17 9q8 0 13.5 -5t5.5 -13q0 -7 -5 -14l-72 -94q-18 -22 -34 -22z" />
    <glyph glyph-name="ccaron" unicode="&#x10d;" horiz-adv-x="465" 
d="M60 238q0 79 15 125q19 59 65.5 91.5t112.5 32.5q54 0 93.5 -22t60.5 -58q4 -7 4 -16q0 -10 -7 -17t-17 -7q-15 0 -25 15q-38 53 -109 53q-97 0 -125 -89q-13 -39 -13 -108q0 -68 13 -107q28 -89 125 -89q71 0 109 53q10 15 25 15q10 0 17 -7t7 -17q0 -9 -4 -16
q-21 -36 -60.5 -58t-93.5 -22q-66 0 -112.5 32.5t-65.5 91.5q-15 46 -15 124zM252 554q-16 0 -34 22l-72 94q-5 7 -5 14q0 8 5.5 13t13.5 5q10 0 17 -9l74 -90h2l74 90q7 9 17 9q8 0 13.5 -5t5.5 -13q0 -7 -5 -14l-72 -94q-18 -22 -34 -22z" />
    <glyph glyph-name="Dcaron" unicode="&#x10e;" horiz-adv-x="620" 
d="M94 27v626q0 27 28 27h179q181 0 231 -154q20 -63 20 -186t-20 -186q-50 -154 -231 -154h-179q-28 0 -28 27zM151 60q0 -6 6 -6h136q77 0 120 27.5t64 91.5q18 57 18 167t-18 167q-21 64 -64 91.5t-120 27.5h-136q-6 0 -6 -6v-560zM297 750q-16 0 -34 22l-72 94
q-5 7 -5 14q0 8 5.5 13t13.5 5q10 0 17 -9l74 -90h2l74 90q8 9 17 9q8 0 13.5 -5t5.5 -13q0 -7 -5 -14l-72 -94q-18 -22 -34 -22z" />
    <glyph glyph-name="dcaron" unicode="&#x10f;" horiz-adv-x="531" 
d="M412 -4q-27 0 -27 29v35h-1q-39 -70 -143 -70q-60 0 -102.5 30.5t-61.5 87.5q-17 55 -17 131q0 75 17 130q19 57 61.5 87.5t102.5 30.5q104 0 143 -70h1v238q0 29 27 29t27 -29v-630q0 -29 -27 -29zM250 42q95 0 123 83q12 39 12 114q0 74 -12 113q-28 83 -123 83
q-93 0 -122 -86q-13 -40 -13 -110q0 -71 13 -111q29 -86 122 -86zM536 556q-8 -21 -26 -21q-11 0 -18.5 7t-7.5 18q0 6 2 12l29 91q7 21 26 21q12 0 19.5 -7t7.5 -18q0 -6 -2 -12z" />
    <glyph glyph-name="Dcroat" unicode="&#x110;" horiz-adv-x="620" 
d="M301 0h-179q-28 0 -28 27v286q0 7 -6 7h-26q-26 0 -26 25t26 25h26q6 0 6 6v277q0 27 28 27h179q181 0 231 -154q20 -63 20 -186t-20 -186q-50 -154 -231 -154zM293 54q77 0 120 27.5t64 91.5q18 57 18 167t-18 167q-21 64 -64 91.5t-120 27.5h-136q-6 0 -6 -6v-244
q0 -6 6 -6h119q26 0 26 -25t-26 -25h-119q-6 0 -6 -7v-253q0 -6 6 -6h136z" />
    <glyph glyph-name="dcroat" unicode="&#x111;" horiz-adv-x="531" 
d="M412 -4q-27 0 -27 29v35h-1q-39 -70 -143 -70q-60 0 -102.5 30.5t-61.5 87.5q-17 55 -17 131q0 75 17 130q19 57 61.5 87.5t102.5 30.5q104 0 143 -70h1v140q0 6 -6 6h-120q-25 0 -25 23t25 23h120q6 0 6 6v40q0 29 27 29t27 -29v-40q0 -6 6 -6h18q25 0 25 -23t-25 -23
h-18q-6 0 -6 -6v-532q0 -29 -27 -29zM250 42q95 0 123 83q12 39 12 114q0 74 -12 113q-28 83 -123 83q-93 0 -122 -86q-13 -40 -13 -110q0 -71 13 -111q29 -86 122 -86z" />
    <glyph glyph-name="Emacron" unicode="&#x112;" horiz-adv-x="556" 
d="M94 27v626q0 27 28 27h356q29 0 29 -27t-29 -27h-321q-6 0 -6 -6v-242q0 -6 6 -6h274q29 0 29 -27t-29 -27h-274q-6 0 -6 -6v-252q0 -6 6 -6h321q29 0 29 -27t-29 -27h-356q-28 0 -28 27zM404 800h-222q-11 0 -18 6.5t-7 16.5t7 16.5t18 6.5h222q11 0 18 -6.5t7 -16.5
t-7 -16.5t-18 -6.5z" />
    <glyph glyph-name="emacron" unicode="&#x113;" horiz-adv-x="503" 
d="M257 -10q-141 0 -182 125q-15 45 -15 124q0 77 15 124q19 60 65.5 92t110.5 32q65 0 111.5 -32t65.5 -92q15 -45 15 -114q0 -25 -25 -25h-297q-6 0 -6 -6q0 -53 10 -83q31 -93 135 -93q76 0 129 54q10 10 20 10t17 -6.5t7 -16.5q0 -11 -6 -18q-59 -75 -170 -75zM121 273
h261q6 0 6 6q0 39 -9 68q-29 90 -128 90q-98 0 -127 -90q-9 -29 -9 -68q0 -6 6 -6zM362 618h-222q-11 0 -18 6.5t-7 16.5t7 16.5t18 6.5h222q11 0 18 -6.5t7 -16.5t-7 -16.5t-18 -6.5z" />
    <glyph glyph-name="Ebreve" unicode="&#x114;" horiz-adv-x="556" 
d="M94 27v626q0 27 28 27h356q29 0 29 -27t-29 -27h-321q-6 0 -6 -6v-242q0 -6 6 -6h274q29 0 29 -27t-29 -27h-274q-6 0 -6 -6v-252q0 -6 6 -6h321q29 0 29 -27t-29 -27h-356q-28 0 -28 27zM296 768q-54 0 -88.5 31t-34.5 67q0 18 19 18q15 0 21 -19q19 -53 83 -53t83 53
q6 19 21 19q19 0 19 -18q0 -36 -34.5 -67t-88.5 -31z" />
    <glyph glyph-name="ebreve" unicode="&#x115;" horiz-adv-x="503" 
d="M257 -10q-141 0 -182 125q-15 45 -15 124q0 77 15 124q19 60 65.5 92t110.5 32q65 0 111.5 -32t65.5 -92q15 -45 15 -114q0 -25 -25 -25h-297q-6 0 -6 -6q0 -53 10 -83q31 -93 135 -93q76 0 129 54q10 10 20 10t17 -6.5t7 -16.5q0 -11 -6 -18q-59 -75 -170 -75zM121 273
h261q6 0 6 6q0 39 -9 68q-29 90 -128 90q-98 0 -127 -90q-9 -29 -9 -68q0 -6 6 -6zM251 570q-54 0 -88.5 31t-34.5 67q0 18 19 18q15 0 21 -19q19 -53 83 -53t83 53q6 19 21 19q19 0 19 -18q0 -36 -34.5 -67t-88.5 -31z" />
    <glyph glyph-name="Edotaccent" unicode="&#x116;" horiz-adv-x="556" 
d="M94 27v626q0 27 28 27h356q29 0 29 -27t-29 -27h-321q-6 0 -6 -6v-242q0 -6 6 -6h274q29 0 29 -27t-29 -27h-274q-6 0 -6 -6v-252q0 -6 6 -6h321q29 0 29 -27t-29 -27h-356q-28 0 -28 27zM298 781q-17 0 -29.5 12.5t-12.5 29.5t12.5 29.5t29.5 12.5t29.5 -12.5
t12.5 -29.5t-12.5 -29.5t-29.5 -12.5z" />
    <glyph glyph-name="edotaccent" unicode="&#x117;" horiz-adv-x="503" 
d="M257 -10q-141 0 -182 125q-15 45 -15 124q0 77 15 124q19 60 65.5 92t110.5 32q65 0 111.5 -32t65.5 -92q15 -45 15 -114q0 -25 -25 -25h-297q-6 0 -6 -6q0 -53 10 -83q31 -93 135 -93q76 0 129 54q10 10 20 10t17 -6.5t7 -16.5q0 -11 -6 -18q-59 -75 -170 -75zM121 273
h261q6 0 6 6q0 39 -9 68q-29 90 -128 90q-98 0 -127 -90q-9 -29 -9 -68q0 -6 6 -6zM251 600q-17 0 -29.5 12.5t-12.5 29.5t12.5 29.5t29.5 12.5t29.5 -12.5t12.5 -29.5t-12.5 -29.5t-29.5 -12.5z" />
    <glyph glyph-name="Eogonek" unicode="&#x118;" horiz-adv-x="556" 
d="M122 0q-28 0 -28 27v626q0 27 28 27h356q29 0 29 -27t-29 -27h-321q-6 0 -6 -6v-242q0 -6 6 -6h274q29 0 29 -27t-29 -27h-274q-6 0 -6 -6v-252q0 -6 6 -6h321q29 0 29 -27t-29 -27h-4q-83 -60 -83 -97q0 -28 29 -28q11 0 21 5q8 4 13 4q21 0 21 -22q0 -11 -11 -19
q-22 -15 -52 -15q-32 0 -51 18t-19 50q0 52 71 104h-291z" />
    <glyph glyph-name="eogonek" unicode="&#x119;" horiz-adv-x="503" 
d="M331 -172q-32 0 -51 18t-19 50q0 47 45 99q-25 -5 -49 -5q-141 0 -182 125q-15 45 -15 124q0 77 15 124q19 60 65.5 92t110.5 32q65 0 111.5 -32t65.5 -92q15 -45 15 -114q0 -25 -25 -25h-297q-6 0 -6 -6q0 -53 10 -83q31 -93 135 -93q76 0 129 54q10 10 20 10t17 -6.5
t7 -16.5q0 -11 -6 -18q-11 -14 -26 -27q-91 -90 -91 -135q0 -28 29 -28q11 0 21 5q8 4 13 4q21 0 21 -22q0 -11 -11 -19q-22 -15 -52 -15zM121 273h261q6 0 6 6q0 39 -9 68q-29 90 -128 90q-98 0 -127 -90q-9 -29 -9 -68q0 -6 6 -6z" />
    <glyph glyph-name="Ecaron" unicode="&#x11a;" horiz-adv-x="556" 
d="M94 27v626q0 27 28 27h356q29 0 29 -27t-29 -27h-321q-6 0 -6 -6v-242q0 -6 6 -6h274q29 0 29 -27t-29 -27h-274q-6 0 -6 -6v-252q0 -6 6 -6h321q29 0 29 -27t-29 -27h-356q-28 0 -28 27zM297 750q-16 0 -34 22l-72 94q-5 7 -5 14q0 8 5.5 13t13.5 5q10 0 17 -9l74 -90h2
l74 90q8 9 17 9q8 0 13.5 -5t5.5 -13q0 -7 -5 -14l-72 -94q-18 -22 -34 -22z" />
    <glyph glyph-name="ecaron" unicode="&#x11b;" horiz-adv-x="503" 
d="M257 -10q-141 0 -182 125q-15 45 -15 124q0 77 15 124q19 60 65.5 92t110.5 32q65 0 111.5 -32t65.5 -92q15 -45 15 -114q0 -25 -25 -25h-297q-6 0 -6 -6q0 -53 10 -83q31 -93 135 -93q76 0 129 54q10 10 20 10t17 -6.5t7 -16.5q0 -11 -6 -18q-59 -75 -170 -75zM121 273
h261q6 0 6 6q0 39 -9 68q-29 90 -128 90q-98 0 -127 -90q-9 -29 -9 -68q0 -6 6 -6zM251 554q-16 0 -34 22l-72 94q-5 7 -5 14q0 8 5.5 13t13.5 5q9 0 17 -9l74 -90h2l74 90q8 9 17 9q8 0 13.5 -5t5.5 -13q0 -7 -5 -14l-72 -94q-18 -22 -34 -22z" />
    <glyph glyph-name="Gcircumflex" unicode="&#x11c;" horiz-adv-x="609" 
d="M84 143q-19 59 -19 197t19 197q50 153 221 153q72 0 127 -30.5t79 -82.5q4 -10 4 -16q0 -27 -27 -27q-14 0 -25 18q-51 84 -159 84q-127 0 -165 -115q-16 -46 -16 -181t16 -181q38 -115 166 -115t166 113q16 46 16 129q0 6 -6 6h-143q-13 0 -20.5 7.5t-7.5 19.5t7.5 19.5
t20.5 7.5h179q11 0 19 -7.5t8 -18.5v-25q0 -95 -18 -151q-24 -75 -81 -114.5t-139 -39.5q-172 0 -222 153zM396 751q-10 0 -17 9l-74 90h-2l-74 -90q-7 -9 -17 -9q-8 0 -13.5 5t-5.5 13q0 7 5 14l72 94q18 22 34 22t34 -22l72 -94q5 -7 5 -14q0 -8 -5.5 -13t-13.5 -5z" />
    <glyph glyph-name="gcircumflex" unicode="&#x11d;" horiz-adv-x="522" 
d="M238 -190q-92 0 -149 57q-8 8 -8 18q0 12 7.5 20t19.5 8t23 -11q43 -40 109 -40q136 0 136 145v60h-1q-35 -69 -140 -69q-59 0 -100.5 31t-59.5 87q-16 49 -16 126q0 78 16 127q18 56 59.5 87t100.5 31q103 0 140 -70h1v35q0 29 27 29t27 -29v-443q0 -98 -50.5 -148.5
t-141.5 -50.5zM245 50q90 0 119 84q12 35 12 108q0 74 -12 109q-29 84 -119 84q-89 0 -118 -86q-13 -39 -13 -107q0 -67 13 -106q29 -86 118 -86zM342 554q-10 0 -17 9l-74 90h-2l-74 -90q-7 -9 -17 -9q-8 0 -13.5 5t-5.5 13q0 7 5 14l72 94q16 22 34 22t34 -22l72 -94
q5 -7 5 -14q0 -8 -5.5 -13t-13.5 -5z" />
    <glyph glyph-name="Gbreve" unicode="&#x11e;" horiz-adv-x="609" 
d="M84 143q-19 59 -19 197t19 197q50 153 221 153q72 0 127 -30.5t79 -82.5q4 -10 4 -16q0 -27 -27 -27q-14 0 -25 18q-51 84 -159 84q-127 0 -165 -115q-16 -46 -16 -181t16 -181q38 -115 166 -115t166 113q16 46 16 129q0 6 -6 6h-143q-13 0 -20.5 7.5t-7.5 19.5t7.5 19.5
t20.5 7.5h179q11 0 19 -7.5t8 -18.5v-25q0 -95 -18 -151q-24 -75 -81 -114.5t-139 -39.5q-172 0 -222 153zM304 768q-54 0 -88.5 31t-34.5 67q0 18 19 18q15 0 21 -19q19 -53 83 -53t83 53q6 19 21 19q19 0 19 -18q0 -36 -34.5 -67t-88.5 -31z" />
    <glyph glyph-name="gbreve" unicode="&#x11f;" horiz-adv-x="522" 
d="M238 -190q-92 0 -149 57q-8 8 -8 18q0 12 7.5 20t19.5 8t23 -11q43 -40 109 -40q136 0 136 145v60h-1q-35 -69 -140 -69q-59 0 -100.5 31t-59.5 87q-16 49 -16 126q0 78 16 127q18 56 59.5 87t100.5 31q103 0 140 -70h1v35q0 29 27 29t27 -29v-443q0 -98 -50.5 -148.5
t-141.5 -50.5zM245 50q90 0 119 84q12 35 12 108q0 74 -12 109q-29 84 -119 84q-89 0 -118 -86q-13 -39 -13 -107q0 -67 13 -106q29 -86 118 -86zM253 570q-54 0 -88.5 31t-34.5 67q0 18 19 18q15 0 21 -19q19 -53 83 -53t83 53q6 19 21 19q19 0 19 -18q0 -36 -34.5 -67
t-88.5 -31z" />
    <glyph glyph-name="Gdotaccent" unicode="&#x120;" horiz-adv-x="609" 
d="M84 143q-19 59 -19 197t19 197q50 153 221 153q72 0 127 -30.5t79 -82.5q4 -10 4 -16q0 -27 -27 -27q-14 0 -25 18q-51 84 -159 84q-127 0 -165 -115q-16 -46 -16 -181t16 -181q38 -115 166 -115t166 113q16 46 16 129q0 6 -6 6h-143q-13 0 -20.5 7.5t-7.5 19.5t7.5 19.5
t20.5 7.5h179q11 0 19 -7.5t8 -18.5v-25q0 -95 -18 -151q-24 -75 -81 -114.5t-139 -39.5q-172 0 -222 153zM304 781q-17 0 -29.5 12.5t-12.5 29.5t12.5 29.5t29.5 12.5t29.5 -12.5t12.5 -29.5t-12.5 -29.5t-29.5 -12.5z" />
    <glyph glyph-name="gdotaccent" unicode="&#x121;" horiz-adv-x="522" 
d="M238 -190q-92 0 -149 57q-8 8 -8 18q0 12 7.5 20t19.5 8t23 -11q43 -40 109 -40q136 0 136 145v60h-1q-35 -69 -140 -69q-59 0 -100.5 31t-59.5 87q-16 49 -16 126q0 78 16 127q18 56 59.5 87t100.5 31q103 0 140 -70h1v35q0 29 27 29t27 -29v-443q0 -98 -50.5 -148.5
t-141.5 -50.5zM245 50q90 0 119 84q12 35 12 108q0 74 -12 109q-29 84 -119 84q-89 0 -118 -86q-13 -39 -13 -107q0 -67 13 -106q29 -86 118 -86zM253 600q-17 0 -29.5 12.5t-12.5 29.5t12.5 29.5t29.5 12.5t29.5 -12.5t12.5 -29.5t-12.5 -29.5t-29.5 -12.5z" />
    <glyph glyph-name="Gcommaaccent" unicode="&#x122;" horiz-adv-x="609" 
d="M84 143q-19 59 -19 197t19 197q50 153 221 153q72 0 127 -30.5t79 -82.5q4 -10 4 -16q0 -27 -27 -27q-14 0 -25 18q-51 84 -159 84q-127 0 -165 -115q-16 -46 -16 -181t16 -181q38 -115 166 -115t166 113q16 46 16 129q0 6 -6 6h-143q-13 0 -20.5 7.5t-7.5 19.5t7.5 19.5
t20.5 7.5h179q11 0 19 -7.5t8 -18.5v-25q0 -95 -18 -151q-24 -75 -81 -114.5t-139 -39.5q-172 0 -222 153zM307 -173q-6 -22 -26 -22q-12 0 -20 7.5t-8 18.5q0 4 2 12l27 85q6 22 26 22q12 0 20 -7.5t8 -18.5q0 -4 -2 -12z" />
    <glyph glyph-name="gcommaaccent" unicode="&#x123;" horiz-adv-x="522" 
d="M238 -190q-92 0 -149 57q-8 8 -8 18q0 12 7.5 20t19.5 8t23 -11q43 -40 109 -40q136 0 136 145v60h-1q-35 -69 -140 -69q-59 0 -100.5 31t-59.5 87q-16 49 -16 126q0 78 16 127q18 56 59.5 87t100.5 31q103 0 140 -70h1v35q0 29 27 29t27 -29v-443q0 -98 -50.5 -148.5
t-141.5 -50.5zM245 50q90 0 119 84q12 35 12 108q0 74 -12 109q-29 84 -119 84q-89 0 -118 -86q-13 -39 -13 -107q0 -67 13 -106q29 -86 118 -86zM274 591q-6 -22 -26 -22q-12 0 -20 7.5t-8 18.5q0 4 2 12l27 85q6 22 26 22q12 0 20 -7.5t8 -18.5q0 -4 -2 -12z" />
    <glyph glyph-name="Hcircumflex" unicode="&#x124;" horiz-adv-x="650" 
d="M94 27v626q0 31 28 31q29 0 29 -31v-275q0 -6 6 -6h335q7 0 7 6v275q0 31 28 31q29 0 29 -31v-626q0 -31 -29 -31q-28 0 -28 31v285q0 6 -7 6h-335q-6 0 -6 -6v-285q0 -31 -29 -31q-28 0 -28 31zM417 751q-9 0 -17 9l-74 90h-2l-74 -90q-8 -9 -17 -9q-8 0 -13.5 5
t-5.5 13q0 7 5 14l72 94q18 22 34 22t34 -22l72 -94q5 -7 5 -14q0 -8 -5.5 -13t-13.5 -5z" />
    <glyph glyph-name="hcircumflex" unicode="&#x125;" horiz-adv-x="541" 
d="M428 -4q-27 0 -27 29v267q0 143 -125 143q-55 0 -92.5 -36.5t-37.5 -96.5v-277q0 -29 -27 -29t-27 29v630q0 29 27 29t27 -29v-236h1q44 68 141 68q79 0 123 -47.5t44 -134.5v-280q0 -29 -27 -29zM367 751q-9 0 -17 9l-74 90h-2l-74 -90q-8 -9 -17 -9q-8 0 -13.5 5
t-5.5 13q0 7 5 14l72 94q18 22 34 22t34 -22l72 -94q5 -7 5 -14q0 -8 -5.5 -13t-13.5 -5z" />
    <glyph glyph-name="Hbar" unicode="&#x126;" horiz-adv-x="650" 
d="M527 -4q-28 0 -28 31v285q0 6 -7 6h-335q-6 0 -6 -6v-285q0 -31 -29 -31q-28 0 -28 31v466q0 6 -6 6h-27q-26 0 -26 24t26 24h27q6 0 6 6v100q0 31 28 31q29 0 29 -31v-100q0 -6 6 -6h335q7 0 7 6v100q0 31 28 31q29 0 29 -31v-100q0 -6 6 -6h27q26 0 26 -24t-26 -24h-27
q-6 0 -6 -6v-466q0 -31 -29 -31zM492 372q7 0 7 6v115q0 6 -7 6h-335q-6 0 -6 -6v-115q0 -6 6 -6h335z" />
    <glyph glyph-name="hbar" unicode="&#x127;" horiz-adv-x="541" 
d="M428 -4q-27 0 -27 29v267q0 143 -125 143q-55 0 -92.5 -36.5t-37.5 -96.5v-277q0 -29 -27 -29t-27 29v532q0 6 -6 6h-18q-25 0 -25 23t25 23h18q6 0 6 6v40q0 29 27 29t27 -29v-40q0 -6 6 -6h120q25 0 25 -23t-25 -23h-120q-6 0 -6 -6v-138h1q44 68 141 68
q79 0 123 -47.5t44 -134.5v-280q0 -29 -27 -29z" />
    <glyph glyph-name="Itilde" unicode="&#x128;" horiz-adv-x="245" 
d="M94 27v626q0 31 28 31q29 0 29 -31v-626q0 -31 -29 -31q-28 0 -28 31zM176 780q-27 0 -61 22q-29 19 -46 19q-20 0 -38 -26q-8 -12 -20 -12q-21 0 -21 20q0 7 4 14q30 49 75 49q27 0 61 -22q29 -19 46 -19q20 0 38 26q8 12 20 12q21 0 21 -20q0 -7 -4 -14
q-30 -49 -75 -49z" />
    <glyph glyph-name="itilde" unicode="&#x129;" horiz-adv-x="238" 
d="M119 -4q-27 0 -27 29v427q0 29 27 29t27 -29v-427q0 -29 -27 -29zM173 595q-27 0 -61 22q-29 19 -46 19q-20 0 -38 -26q-8 -12 -20 -12q-21 0 -21 20q0 7 4 14q30 49 75 49q27 0 61 -22q29 -19 46 -19q20 0 38 26q7 12 20 12q21 0 21 -20q0 -7 -4 -14q-30 -49 -75 -49z
" />
    <glyph glyph-name="Imacron" unicode="&#x12a;" horiz-adv-x="245" 
d="M94 27v626q0 31 28 31q29 0 29 -31v-626q0 -31 -29 -31q-28 0 -28 31zM234 800h-222q-11 0 -18 6.5t-7 16.5t7 16.5t18 6.5h222q11 0 18 -6.5t7 -16.5t-7 -16.5t-18 -6.5z" />
    <glyph glyph-name="imacron" unicode="&#x12b;" horiz-adv-x="238" 
d="M119 -4q-27 0 -27 29v427q0 29 27 29t27 -29v-427q0 -29 -27 -29zM230 618h-222q-11 0 -18 6.5t-7 16.5t7 16.5t18 6.5h222q11 0 18 -6.5t7 -16.5t-7 -16.5t-18 -6.5z" />
    <glyph glyph-name="Ibreve" unicode="&#x12c;" horiz-adv-x="245" 
d="M94 27v626q0 31 28 31q29 0 29 -31v-626q0 -31 -29 -31q-28 0 -28 31zM123 768q-54 0 -88.5 31t-34.5 67q0 18 19 18q15 0 21 -19q19 -53 83 -53t83 53q6 19 21 19q19 0 19 -18q0 -36 -34.5 -67t-88.5 -31z" />
    <glyph glyph-name="ibreve" unicode="&#x12d;" horiz-adv-x="238" 
d="M119 -4q-27 0 -27 29v427q0 29 27 29t27 -29v-427q0 -29 -27 -29zM119 570q-54 0 -88.5 31t-34.5 67q0 18 19 18q15 0 21 -19q19 -53 83 -53t83 53q6 19 21 19q19 0 19 -18q0 -36 -34.5 -67t-88.5 -31z" />
    <glyph glyph-name="Iogonek" unicode="&#x12e;" horiz-adv-x="245" 
d="M102 -172q-32 0 -51 18t-19 50q0 45 62 108v649q0 31 28 31q29 0 29 -31v-626q0 -24 -15 -40q-54 -54 -54 -84q0 -28 28 -28q8 0 21 5q7 3 13 3q21 0 21 -22q0 -11 -11 -19q-20 -14 -52 -14z" />
    <glyph glyph-name="iogonek" unicode="&#x12f;" horiz-adv-x="238" 
d="M119 600q-17 0 -29.5 12.5t-12.5 29.5t12.5 29.5t29.5 12.5t29.5 -12.5t12.5 -29.5t-12.5 -29.5t-29.5 -12.5zM76 -97q0 -28 29 -28q11 0 21 5q8 4 13 4q21 0 21 -22q0 -11 -11 -19q-22 -15 -52 -15q-32 0 -51 18t-19 50q0 52 65 111v445q0 29 27 29t27 -29v-425
q0 -24 -16 -40q-54 -54 -54 -84z" />
    <glyph glyph-name="Idotaccent" unicode="&#x130;" horiz-adv-x="245" 
d="M94 27v626q0 31 28 31q29 0 29 -31v-626q0 -31 -29 -31q-28 0 -28 31zM122 781q-17 0 -29.5 12.5t-12.5 29.5t12.5 29.5t29.5 12.5t29.5 -12.5t12.5 -29.5t-12.5 -29.5t-29.5 -12.5z" />
    <glyph glyph-name="dotlessi" unicode="&#x131;" horiz-adv-x="238" 
d="M119 -4q-27 0 -27 29v427q0 29 27 29t27 -29v-427q0 -29 -27 -29z" />
    <glyph glyph-name="Jcircumflex" unicode="&#x134;" horiz-adv-x="470" 
d="M52 35q-12 9 -12 24q0 11 7.5 18.5t18.5 7.5q10 0 19 -6q51 -35 104 -35q140 0 140 160v449q0 31 28 31q29 0 29 -31v-450q0 -106 -52.5 -159.5t-145.5 -53.5q-76 0 -136 45zM447 751q-10 0 -17 9l-74 90h-2l-74 -90q-8 -9 -17 -9q-8 0 -13.5 5t-5.5 13q0 7 5 14l72 94
q18 22 34 22t34 -22l72 -94q5 -7 5 -14q0 -8 -5.5 -13t-13.5 -5z" />
    <glyph glyph-name="jcircumflex" unicode="&#x135;" horiz-adv-x="238" 
d="M26 -180q-28 0 -28 26t28 26q38 0 52 15.5t14 57.5v507q0 29 27 29t27 -29v-506q0 -68 -27 -97t-93 -29zM211 554q-9 0 -17 9l-74 90h-2l-74 -90q-8 -9 -17 -9q-8 0 -13.5 5t-5.5 13q0 7 5 14l72 94q16 22 34 22q17 0 34 -22l72 -94q5 -7 5 -14q0 -8 -5.5 -13t-13.5 -5z
" />
    <glyph glyph-name="Kcommaaccent" unicode="&#x136;" horiz-adv-x="585" 
d="M94 27v626q0 31 28 31q29 0 29 -31v-376l326 395q10 12 24 12q10 0 17.5 -7t7.5 -17t-8 -20l-189 -227l214 -372q6 -11 6 -18q0 -12 -7 -20t-19 -8q-17 0 -27 17l-205 355l-140 -166v-174q0 -31 -29 -31q-28 0 -28 31zM302 -173q-6 -22 -26 -22q-12 0 -20 7.5t-8 18.5
q0 4 2 12l27 85q6 22 26 22q12 0 20 -7.5t8 -18.5q0 -4 -2 -12z" />
    <glyph glyph-name="kcommaaccent" unicode="&#x137;" horiz-adv-x="493" 
d="M425 -4q-16 0 -26 16l-151 245l-102 -118v-114q0 -29 -27 -29t-27 29v630q0 29 27 29t27 -29v-444l220 260q8 10 20 10q10 0 17 -6.5t7 -17.5q0 -8 -6 -16l-120 -142l162 -262q5 -8 5 -17q0 -10 -7 -17t-19 -7zM256 -173q-6 -22 -26 -22q-12 0 -20 7.5t-8 18.5q0 4 2 12
l27 85q6 22 26 22q12 0 20 -7.5t8 -18.5q0 -4 -2 -12z" />
    <glyph glyph-name="kgreenlandic" unicode="&#x138;" horiz-adv-x="493" 
d="M425 -4q-16 0 -26 16l-151 245l-102 -118v-114q0 -29 -27 -29t-27 29v427q0 29 27 29t27 -29v-241l220 260q8 10 20 10q10 0 17 -6.5t7 -17.5q0 -8 -6 -16l-120 -142l162 -262q5 -8 5 -17q0 -10 -7 -17t-19 -7z" />
    <glyph glyph-name="Lacute" unicode="&#x139;" horiz-adv-x="530" 
d="M94 27v626q0 31 28 31q29 0 29 -31v-593q0 -6 6 -6h322q29 0 29 -27t-29 -27h-358q-27 0 -27 27zM220 854l-72 -83q-9 -11 -20 -11q-10 0 -16.5 6.5t-6.5 16.5q0 9 7 17l72 85q7 9 18 9q10 0 17 -7t7 -17q0 -8 -6 -16z" />
    <glyph glyph-name="lacute" unicode="&#x13a;" horiz-adv-x="262" 
d="M200 -3h-10q-54 0 -76.5 26.5t-22.5 85.5v546q0 29 27 29t27 -29v-544q0 -35 12 -48.5t43 -13.5q28 0 28 -26t-28 -26zM224 854l-72 -83q-9 -11 -20 -11q-10 0 -16.5 6.5t-6.5 16.5q0 9 7 17l72 85q7 9 18 9q10 0 17 -7t7 -17q0 -8 -6 -16z" />
    <glyph glyph-name="Lcommaaccent" unicode="&#x13b;" horiz-adv-x="530" 
d="M94 27v626q0 31 28 31q29 0 29 -31v-593q0 -6 6 -6h322q29 0 29 -27t-29 -27h-358q-27 0 -27 27zM307 -173q-6 -22 -26 -22q-12 0 -20 7.5t-8 18.5q0 4 2 12l27 85q6 22 26 22q12 0 20 -7.5t8 -18.5q0 -4 -2 -12z" />
    <glyph glyph-name="lcommaaccent" unicode="&#x13c;" horiz-adv-x="262" 
d="M200 -3h-10q-54 0 -76.5 26.5t-22.5 85.5v546q0 29 27 29t27 -29v-544q0 -35 12 -48.5t43 -13.5q28 0 28 -26t-28 -26zM163 -173q-6 -22 -26 -22q-12 0 -20 7.5t-8 18.5q0 4 2 12l27 85q6 22 26 22q12 0 20 -7.5t8 -18.5q0 -4 -2 -12z" />
    <glyph glyph-name="Lcaron" unicode="&#x13d;" horiz-adv-x="530" 
d="M94 27v626q0 31 28 31q29 0 29 -31v-593q0 -6 6 -6h322q29 0 29 -27t-29 -27h-358q-27 0 -27 27zM279 556q-7 -21 -26 -21q-11 0 -18.5 7t-7.5 18q0 6 2 12l29 91q8 21 26 21q12 0 19.5 -7t7.5 -18q0 -6 -2 -12z" />
    <glyph glyph-name="lcaron" unicode="&#x13e;" horiz-adv-x="262" 
d="M200 -3h-10q-54 0 -76.5 26.5t-22.5 85.5v546q0 29 27 29t27 -29v-544q0 -35 12 -48.5t43 -13.5q28 0 28 -26t-28 -26zM242 556q-8 -21 -26 -21q-11 0 -18.5 7t-7.5 18q0 6 2 12l29 91q7 21 26 21q12 0 19.5 -7t7.5 -18q0 -6 -2 -12z" />
    <glyph glyph-name="Ldot" unicode="&#x13f;" horiz-adv-x="530" 
d="M94 27v626q0 31 28 31q29 0 29 -31v-593q0 -6 6 -6h322q29 0 29 -27t-29 -27h-358q-27 0 -27 27zM388 282q-18 0 -31 13t-13 31t13 31t31 13t31 -13t13 -31t-13 -31t-31 -13z" />
    <glyph glyph-name="ldot" unicode="&#x140;" horiz-adv-x="295" 
d="M200 -3h-10q-54 0 -76.5 26.5t-22.5 85.5v546q0 29 27 29t27 -29v-544q0 -35 12 -48.5t43 -13.5q28 0 28 -26t-28 -26zM266 286q-18 0 -31 13t-13 31t13 31t31 13t31 -13t13 -31t-13 -31t-31 -13z" />
    <glyph glyph-name="Lslash" unicode="&#x141;" horiz-adv-x="530" 
d="M305 400l-154 -79v-261q0 -6 6 -6h322q29 0 29 -27t-29 -27h-358q-27 0 -27 27v265l-39 -20q-8 -4 -15 -4q-10 0 -16.5 7t-6.5 17q0 17 19 26l58 29v306q0 31 28 31q29 0 29 -31v-277l135 70q8 4 15 4q10 0 16.5 -7t6.5 -17q0 -17 -19 -26z" />
    <glyph glyph-name="lslash" unicode="&#x142;" horiz-adv-x="262" 
d="M212 385l-67 -35v-239q0 -35 12 -48.5t43 -13.5q28 0 28 -26t-28 -26h-10q-54 0 -76.5 26.5t-22.5 85.5v213l-17 -9q-6 -3 -13 -3q-22 0 -22 23q0 14 14 22l38 20v280q0 29 27 29t27 -29v-252l46 24q6 3 13 3q22 0 22 -23q0 -14 -14 -22z" />
    <glyph glyph-name="Nacute" unicode="&#x143;" horiz-adv-x="651" 
d="M94 27v621q0 36 35 36q23 0 41 -31l327 -542h3v542q0 31 28 31q29 0 29 -31v-621q0 -36 -35 -36q-23 0 -42 31l-325 543h-4v-543q0 -31 -29 -31q-28 0 -28 31zM406 854l-72 -83q-9 -11 -20 -11q-10 0 -16.5 6.5t-6.5 16.5q0 9 7 17l72 85q8 9 18 9t17 -7t7 -17
q0 -8 -6 -16z" />
    <glyph glyph-name="nacute" unicode="&#x144;" horiz-adv-x="541" 
d="M428 -4q-27 0 -27 29v267q0 143 -125 143q-55 0 -92.5 -36.5t-37.5 -96.5v-277q0 -29 -27 -29t-27 29v427q0 29 27 29t27 -29v-33h1q43 68 141 68q79 0 123 -47.5t44 -134.5v-280q0 -29 -27 -29zM271 565q-7 -11 -18 -11q-23 0 -23 22q0 7 5 15l62 100q8 13 21 13
q10 0 16.5 -6.5t6.5 -15.5q0 -8 -5 -16z" />
    <glyph glyph-name="Ncommaaccent" unicode="&#x145;" horiz-adv-x="651" 
d="M94 27v621q0 36 35 36q23 0 41 -31l327 -542h3v542q0 31 28 31q29 0 29 -31v-621q0 -36 -35 -36q-23 0 -42 31l-325 543h-4v-543q0 -31 -29 -31q-28 0 -28 31zM340 -173q-6 -22 -26 -22q-12 0 -20 7.5t-8 18.5q0 4 2 12l27 85q6 22 26 22q12 0 20 -7.5t8 -18.5
q0 -4 -2 -12z" />
    <glyph glyph-name="ncommaaccent" unicode="&#x146;" horiz-adv-x="541" 
d="M428 -4q-27 0 -27 29v267q0 143 -125 143q-55 0 -92.5 -36.5t-37.5 -96.5v-277q0 -29 -27 -29t-27 29v427q0 29 27 29t27 -29v-33h1q43 68 141 68q79 0 123 -47.5t44 -134.5v-280q0 -29 -27 -29zM279 -173q-6 -22 -26 -22q-12 0 -20 7.5t-8 18.5q0 4 2 12l27 85
q6 22 26 22q12 0 20 -7.5t8 -18.5q0 -4 -2 -12z" />
    <glyph glyph-name="Ncaron" unicode="&#x147;" horiz-adv-x="651" 
d="M94 27v621q0 36 35 36q23 0 41 -31l327 -542h3v542q0 31 28 31q29 0 29 -31v-621q0 -36 -35 -36q-23 0 -42 31l-325 543h-4v-543q0 -31 -29 -31q-28 0 -28 31zM325 750q-16 0 -34 22l-72 94q-5 7 -5 14q0 8 5.5 13t13.5 5q9 0 17 -9l74 -90h2l74 90q8 9 17 9q8 0 13.5 -5
t5.5 -13q0 -7 -5 -14l-72 -94q-18 -22 -34 -22z" />
    <glyph glyph-name="ncaron" unicode="&#x148;" horiz-adv-x="541" 
d="M428 -4q-27 0 -27 29v267q0 143 -125 143q-55 0 -92.5 -36.5t-37.5 -96.5v-277q0 -29 -27 -29t-27 29v427q0 29 27 29t27 -29v-33h1q43 68 141 68q79 0 123 -47.5t44 -134.5v-280q0 -29 -27 -29zM270 554q-16 0 -34 22l-72 94q-5 7 -5 14q0 8 5.5 13t13.5 5q10 0 17 -9
l74 -90h2l74 90q7 9 17 9q8 0 13.5 -5t5.5 -13q0 -7 -5 -14l-72 -94q-18 -22 -34 -22z" />
    <glyph glyph-name="Eng" unicode="&#x14a;" horiz-adv-x="651" 
d="M412 -180q-29 0 -29 27q0 28 29 28q46 0 67 21t21 71v30l-345 573h-4v-543q0 -31 -29 -31q-28 0 -28 31v621q0 36 35 36q23 0 41 -31l327 -542h3v542q0 31 28 31q29 0 29 -31v-681q0 -79 -35.5 -115.5t-109.5 -36.5z" />
    <glyph glyph-name="eng" unicode="&#x14b;" horiz-adv-x="541" 
d="M335 -180q-28 0 -28 26t28 26q38 0 52 15.5t14 57.5v347q0 143 -125 143q-55 0 -92.5 -36.5t-37.5 -96.5v-277q0 -29 -27 -29t-27 29v427q0 29 27 29t27 -29v-33h1q43 68 141 68q79 0 123 -47.5t44 -134.5v-359q0 -68 -27 -97t-93 -29z" />
    <glyph glyph-name="Omacron" unicode="&#x14c;" horiz-adv-x="609" 
d="M305 -10q-170 0 -220 153q-20 60 -20 197t20 197q50 153 220 153q169 0 219 -153q20 -60 20 -197t-20 -197q-50 -153 -219 -153zM486 340q0 130 -17 181q-38 115 -164 115q-127 0 -165 -115q-17 -51 -17 -181t17 -181q38 -115 165 -115q126 0 164 115q17 51 17 181z
M415 800h-222q-11 0 -18 6.5t-7 16.5t7 16.5t18 6.5h222q11 0 18 -6.5t7 -16.5t-7 -16.5t-18 -6.5z" />
    <glyph glyph-name="omacron" unicode="&#x14d;" horiz-adv-x="509" 
d="M254 -10q-65 0 -112 32.5t-66 91.5q-16 51 -16 125q0 73 16 124q19 59 66 91.5t112 32.5q66 0 113 -32.5t66 -91.5q16 -51 16 -124q0 -74 -16 -125q-19 -59 -66 -91.5t-113 -32.5zM254 42q97 0 127 89q13 39 13 108q0 68 -13 107q-30 89 -127 89q-96 0 -126 -89
q-13 -39 -13 -107q0 -69 13 -108q30 -89 126 -89zM365 618h-222q-11 0 -18 6.5t-7 16.5t7 16.5t18 6.5h222q11 0 18 -6.5t7 -16.5t-7 -16.5t-18 -6.5z" />
    <glyph glyph-name="Obreve" unicode="&#x14e;" horiz-adv-x="609" 
d="M305 -10q-170 0 -220 153q-20 60 -20 197t20 197q50 153 220 153q169 0 219 -153q20 -60 20 -197t-20 -197q-50 -153 -219 -153zM486 340q0 130 -17 181q-38 115 -164 115q-127 0 -165 -115q-17 -51 -17 -181t17 -181q38 -115 165 -115q126 0 164 115q17 51 17 181z
M304 768q-54 0 -88.5 31t-34.5 67q0 18 19 18q15 0 21 -19q19 -53 83 -53t83 53q6 19 21 19q19 0 19 -18q0 -36 -34.5 -67t-88.5 -31z" />
    <glyph glyph-name="obreve" unicode="&#x14f;" horiz-adv-x="509" 
d="M254 -10q-65 0 -112 32.5t-66 91.5q-16 51 -16 125q0 73 16 124q19 59 66 91.5t112 32.5q66 0 113 -32.5t66 -91.5q16 -51 16 -124q0 -74 -16 -125q-19 -59 -66 -91.5t-113 -32.5zM254 42q97 0 127 89q13 39 13 108q0 68 -13 107q-30 89 -127 89q-96 0 -126 -89
q-13 -39 -13 -107q0 -69 13 -108q30 -89 126 -89zM254 570q-54 0 -88.5 31t-34.5 67q0 18 19 18q15 0 21 -19q19 -53 83 -53t83 53q6 19 21 19q19 0 19 -18q0 -36 -34.5 -67t-88.5 -31z" />
    <glyph glyph-name="Ohungarumlaut" unicode="&#x150;" horiz-adv-x="609" 
d="M305 -10q-170 0 -220 153q-20 60 -20 197t20 197q50 153 220 153q169 0 219 -153q20 -60 20 -197t-20 -197q-50 -153 -219 -153zM486 340q0 130 -17 181q-38 115 -164 115q-127 0 -165 -115q-17 -51 -17 -181t17 -181q38 -115 165 -115q126 0 164 115q17 51 17 181z
M390 768q-9 -12 -20 -12q-9 0 -15.5 6t-6.5 16q0 8 6 17l57 84q9 12 21 12q10 0 16.5 -6t6.5 -16q0 -8 -6 -17zM267 768q-9 -12 -20 -12q-9 0 -15.5 6t-6.5 16q0 8 6 17l57 84q9 12 21 12q10 0 16.5 -6t6.5 -16q0 -8 -6 -17z" />
    <glyph glyph-name="ohungarumlaut" unicode="&#x151;" horiz-adv-x="509" 
d="M254 -10q-65 0 -112 32.5t-66 91.5q-16 51 -16 125q0 73 16 124q19 59 66 91.5t112 32.5q66 0 113 -32.5t66 -91.5q16 -51 16 -124q0 -74 -16 -125q-19 -59 -66 -91.5t-113 -32.5zM254 42q97 0 127 89q13 39 13 108q0 68 -13 107q-30 89 -127 89q-96 0 -126 -89
q-13 -39 -13 -107q0 -69 13 -108q30 -89 126 -89zM351 571q-10 -15 -23 -15q-9 0 -15.5 6t-6.5 15q0 8 4 15l57 96q10 15 23 15q10 0 16.5 -6t6.5 -15q0 -8 -4 -15zM224 571q-10 -15 -23 -15q-9 0 -15.5 6t-6.5 15q0 8 4 15l57 96q10 15 23 15q10 0 16.5 -6t6.5 -15
q0 -8 -4 -15z" />
    <glyph glyph-name="OE" unicode="&#x152;" horiz-adv-x="948" 
d="M305 -10q-170 0 -220 153q-20 60 -20 197t20 197q50 153 220 153q130 0 179 -97h2v60q0 27 28 27h356q29 0 29 -27t-29 -27h-321q-6 0 -6 -6v-242q0 -6 6 -6h274q29 0 29 -27t-29 -27h-274q-6 0 -6 -6v-252q0 -6 6 -6h321q29 0 29 -27t-29 -27h-356q-28 0 -28 27v60h-2
q-49 -97 -179 -97zM486 340q0 130 -17 181q-38 115 -164 115q-127 0 -165 -115q-17 -51 -17 -181t17 -181q38 -115 165 -115q126 0 164 115q17 51 17 181z" />
    <glyph glyph-name="oe" unicode="&#x153;" horiz-adv-x="836" 
d="M590 -10q-121 0 -169 100h-1q-46 -100 -166 -100q-66 0 -112 32.5t-65 91.5q-17 53 -17 124q0 72 17 125q19 59 65 91.5t112 32.5q57 0 100 -27t66 -74h1q51 101 163 101q65 0 111.5 -32t65.5 -92q15 -45 15 -114q0 -25 -25 -25h-297q-6 0 -6 -6q0 -53 10 -83
q31 -93 135 -93q76 0 129 54q10 10 20 10t17 -6.5t7 -16.5q0 -11 -6 -18q-59 -75 -170 -75zM454 273h261q6 0 6 6q0 39 -9 68q-29 90 -128 90q-98 0 -127 -90q-9 -28 -9 -68q0 -6 6 -6zM254 42q98 0 126 90q14 42 14 106q0 65 -14 107q-28 90 -126 90q-97 0 -125 -90
q-14 -42 -14 -107q0 -64 14 -106q28 -90 125 -90z" />
    <glyph glyph-name="Racute" unicode="&#x154;" horiz-adv-x="615" 
d="M510 -4q-16 0 -27 18l-141 290h-9h-176q-6 0 -6 -6v-271q0 -31 -29 -31q-28 0 -28 31v626q0 27 28 27h211q95 0 150.5 -50t55.5 -138q0 -71 -37 -118t-103 -63l136 -274q3 -8 3 -14q0 -11 -7.5 -19t-20.5 -8zM332 358q73 0 111.5 34.5t38.5 99.5t-38.5 99.5t-111.5 34.5
h-175q-6 0 -6 -6v-256q0 -6 6 -6h175zM373 854l-72 -83q-9 -11 -20 -11q-10 0 -16.5 6.5t-6.5 16.5q0 9 7 17l72 85q7 9 18 9q10 0 17 -7t7 -17q0 -8 -6 -16z" />
    <glyph glyph-name="racute" unicode="&#x155;" horiz-adv-x="390" 
d="M119 -4q-27 0 -27 29v427q0 29 27 29t27 -29v-46h1q14 37 47 59t78 22q46 0 82 -21q16 -9 16 -24q0 -11 -7.5 -19t-19.5 -8q-7 0 -14 3q-37 17 -67 17q-60 0 -88 -44.5t-28 -116.5v-249q0 -29 -27 -29zM219 565q-7 -11 -18 -11q-23 0 -23 22q0 7 5 15l62 100q8 13 21 13
q10 0 16.5 -6.5t6.5 -15.5q0 -8 -5 -16z" />
    <glyph glyph-name="Rcommaaccent" unicode="&#x156;" horiz-adv-x="615" 
d="M510 -4q-16 0 -27 18l-141 290h-9h-176q-6 0 -6 -6v-271q0 -31 -29 -31q-28 0 -28 31v626q0 27 28 27h211q95 0 150.5 -50t55.5 -138q0 -71 -37 -118t-103 -63l136 -274q3 -8 3 -14q0 -11 -7.5 -19t-20.5 -8zM332 358q73 0 111.5 34.5t38.5 99.5t-38.5 99.5t-111.5 34.5
h-175q-6 0 -6 -6v-256q0 -6 6 -6h175zM312 -173q-6 -22 -26 -22q-12 0 -20 7.5t-8 18.5q0 4 2 12l27 85q6 22 26 22q12 0 20 -7.5t8 -18.5q0 -4 -2 -12z" />
    <glyph glyph-name="rcommaaccent" unicode="&#x157;" horiz-adv-x="390" 
d="M119 -4q-27 0 -27 29v427q0 29 27 29t27 -29v-46h1q14 37 47 59t78 22q46 0 82 -21q16 -9 16 -24q0 -11 -7.5 -19t-19.5 -8q-7 0 -14 3q-37 17 -67 17q-60 0 -88 -44.5t-28 -116.5v-249q0 -29 -27 -29zM117 -173q-6 -22 -26 -22q-12 0 -20 7.5t-8 18.5q0 4 2 12l27 85
q6 22 26 22q12 0 20 -7.5t8 -18.5q0 -4 -2 -12z" />
    <glyph glyph-name="Rcaron" unicode="&#x158;" horiz-adv-x="615" 
d="M510 -4q-16 0 -27 18l-141 290h-9h-176q-6 0 -6 -6v-271q0 -31 -29 -31q-28 0 -28 31v626q0 27 28 27h211q95 0 150.5 -50t55.5 -138q0 -71 -37 -118t-103 -63l136 -274q3 -8 3 -14q0 -11 -7.5 -19t-20.5 -8zM332 358q73 0 111.5 34.5t38.5 99.5t-38.5 99.5t-111.5 34.5
h-175q-6 0 -6 -6v-256q0 -6 6 -6h175zM286 750q-16 0 -34 22l-72 94q-5 7 -5 14q0 8 5.5 13t13.5 5q10 0 17 -9l74 -90h2l74 90q7 9 17 9q8 0 13.5 -5t5.5 -13q0 -7 -5 -14l-72 -94q-18 -22 -34 -22z" />
    <glyph glyph-name="rcaron" unicode="&#x159;" horiz-adv-x="390" 
d="M119 -4q-27 0 -27 29v427q0 29 27 29t27 -29v-46h1q14 37 47 59t78 22q46 0 82 -21q16 -9 16 -24q0 -11 -7.5 -19t-19.5 -8q-7 0 -14 3q-37 17 -67 17q-60 0 -88 -44.5t-28 -116.5v-249q0 -29 -27 -29zM223 554q-16 0 -34 22l-72 94q-5 7 -5 14q0 8 5.5 13t13.5 5
q9 0 17 -9l74 -90h2l74 90q8 9 17 9q8 0 13.5 -5t5.5 -13q0 -7 -5 -14l-72 -94q-18 -22 -34 -22z" />
    <glyph glyph-name="Sacute" unicode="&#x15a;" horiz-adv-x="593" 
d="M288 -10q-115 0 -209 66q-15 10 -15 27q0 11 8.5 19.5t20.5 8.5q11 0 21 -7q90 -60 181 -60q81 0 128.5 38t47.5 101q0 54 -37 87.5t-126 44.5l-32 4q-195 25 -195 180q0 88 58 139.5t155 51.5q102 0 175 -45q19 -12 19 -28q0 -11 -7.5 -19t-19.5 -8q-8 0 -20 6
q-74 40 -149 40q-73 0 -113.5 -36.5t-40.5 -95.5q0 -54 37.5 -86.5t122.5 -43.5l31 -4q199 -25 199 -183q0 -89 -62.5 -143t-177.5 -54zM383 854l-72 -83q-9 -11 -20 -11q-10 0 -16.5 6.5t-6.5 16.5q0 9 7 17l72 85q7 9 18 9q10 0 17 -7t7 -17q0 -8 -6 -16z" />
    <glyph glyph-name="sacute" unicode="&#x15b;" horiz-adv-x="481" 
d="M241 -10q-97 0 -172 56q-12 9 -12 23q0 11 7.5 18t18.5 7q9 0 18 -6q67 -48 145 -48q60 0 92 25t32 67q0 39 -23 58t-86 26l-49 5q-67 7 -102.5 39t-35.5 87q0 66 45 103t123 37q79 0 142 -36q17 -10 17 -25q0 -10 -6.5 -17t-16.5 -7t-20 5q-56 30 -119 30
q-54 0 -82.5 -22.5t-28.5 -62.5q0 -36 25 -55t84 -25l49 -5q138 -15 138 -129q0 -69 -48 -108.5t-135 -39.5zM255 565q-7 -11 -18 -11q-23 0 -23 22q0 7 5 15l62 100q8 13 21 13q10 0 16.5 -6.5t6.5 -15.5q0 -8 -5 -16z" />
    <glyph glyph-name="Scircumflex" unicode="&#x15c;" horiz-adv-x="593" 
d="M288 -10q-115 0 -209 66q-15 10 -15 27q0 11 8.5 19.5t20.5 8.5q11 0 21 -7q90 -60 181 -60q81 0 128.5 38t47.5 101q0 54 -37 87.5t-126 44.5l-32 4q-195 25 -195 180q0 88 58 139.5t155 51.5q102 0 175 -45q19 -12 19 -28q0 -11 -7.5 -19t-19.5 -8q-8 0 -20 6
q-74 40 -149 40q-73 0 -113.5 -36.5t-40.5 -95.5q0 -54 37.5 -86.5t122.5 -43.5l31 -4q199 -25 199 -183q0 -89 -62.5 -143t-177.5 -54zM384 751q-10 0 -17 9l-74 90h-2l-74 -90q-7 -9 -17 -9q-8 0 -13.5 5t-5.5 13q0 7 5 14l72 94q18 22 34 22t34 -22l72 -94q5 -7 5 -14
q0 -8 -5.5 -13t-13.5 -5z" />
    <glyph glyph-name="scircumflex" unicode="&#x15d;" horiz-adv-x="481" 
d="M241 -10q-97 0 -172 56q-12 9 -12 23q0 11 7.5 18t18.5 7q9 0 18 -6q67 -48 145 -48q60 0 92 25t32 67q0 39 -23 58t-86 26l-49 5q-67 7 -102.5 39t-35.5 87q0 66 45 103t123 37q79 0 142 -36q17 -10 17 -25q0 -10 -6.5 -17t-16.5 -7t-20 5q-56 30 -119 30
q-54 0 -82.5 -22.5t-28.5 -62.5q0 -36 25 -55t84 -25l49 -5q138 -15 138 -129q0 -69 -48 -108.5t-135 -39.5zM334 554q-10 0 -17 9l-74 90h-2l-74 -90q-7 -9 -17 -9q-8 0 -13.5 5t-5.5 13q0 7 5 14l72 94q16 22 34 22t34 -22l72 -94q5 -7 5 -14q0 -8 -5.5 -13t-13.5 -5z" />
    <glyph glyph-name="Scedilla" unicode="&#x15e;" horiz-adv-x="593" 
d="M282 -135q-6 -19 -24 -19q-10 0 -17 6.5t-7 17.5q0 8 3 15l39 105q-112 4 -197 66q-15 10 -15 27q0 11 8.5 19.5t20.5 8.5q11 0 21 -7q90 -60 181 -60q81 0 128.5 38t47.5 101q0 54 -37 87.5t-126 44.5l-32 4q-195 25 -195 180q0 88 58 139.5t155 51.5q102 0 175 -45
q19 -12 19 -28q0 -11 -7.5 -19t-19.5 -8q-8 0 -20 6q-74 40 -149 40q-73 0 -113.5 -36.5t-40.5 -95.5q0 -54 37.5 -86.5t122.5 -43.5l31 -4q199 -25 199 -183q0 -81 -52 -133.5t-150 -61.5z" />
    <glyph glyph-name="scedilla" unicode="&#x15f;" horiz-adv-x="481" 
d="M229 -135q-6 -19 -24 -19q-10 0 -17 6.5t-7 17.5q0 8 3 15l39 105q-88 5 -154 56q-12 9 -12 23q0 11 7.5 18t18.5 7q9 0 18 -6q67 -48 145 -48q60 0 92 25t32 67q0 39 -23 58t-86 26l-49 5q-67 7 -102.5 39t-35.5 87q0 66 45 103t123 37q79 0 142 -36q17 -10 17 -25
q0 -10 -6.5 -17t-16.5 -7t-20 5q-56 30 -119 30q-54 0 -82.5 -22.5t-28.5 -62.5q0 -36 25 -55t84 -25l49 -5q138 -15 138 -129q0 -62 -38.5 -101t-112.5 -46z" />
    <glyph glyph-name="Scaron" unicode="&#x160;" horiz-adv-x="593" 
d="M288 -10q-115 0 -209 66q-15 10 -15 27q0 11 8.5 19.5t20.5 8.5q11 0 21 -7q90 -60 181 -60q81 0 128.5 38t47.5 101q0 54 -37 87.5t-126 44.5l-32 4q-195 25 -195 180q0 88 58 139.5t155 51.5q102 0 175 -45q19 -12 19 -28q0 -11 -7.5 -19t-19.5 -8q-8 0 -20 6
q-74 40 -149 40q-73 0 -113.5 -36.5t-40.5 -95.5q0 -54 37.5 -86.5t122.5 -43.5l31 -4q199 -25 199 -183q0 -89 -62.5 -143t-177.5 -54zM295 750q-16 0 -34 22l-72 94q-5 7 -5 14q0 8 5.5 13t13.5 5q9 0 17 -9l74 -90h2l74 90q8 9 17 9q8 0 13.5 -5t5.5 -13q0 -7 -5 -14
l-72 -94q-18 -22 -34 -22z" />
    <glyph glyph-name="scaron" unicode="&#x161;" horiz-adv-x="481" 
d="M241 -10q-97 0 -172 56q-12 9 -12 23q0 11 7.5 18t18.5 7q9 0 18 -6q67 -48 145 -48q60 0 92 25t32 67q0 39 -23 58t-86 26l-49 5q-67 7 -102.5 39t-35.5 87q0 66 45 103t123 37q79 0 142 -36q17 -10 17 -25q0 -10 -6.5 -17t-16.5 -7t-20 5q-56 30 -119 30
q-54 0 -82.5 -22.5t-28.5 -62.5q0 -36 25 -55t84 -25l49 -5q138 -15 138 -129q0 -69 -48 -108.5t-135 -39.5zM242 554q-16 0 -34 22l-72 94q-5 7 -5 14q0 8 5.5 13t13.5 5q10 0 17 -9l74 -90h2l74 90q7 9 17 9q8 0 13.5 -5t5.5 -13q0 -7 -5 -14l-72 -94q-18 -22 -34 -22z
" />
    <glyph glyph-name="Tcommaaccent" unicode="&#x162;" horiz-adv-x="523" 
d="M261 -4q-28 0 -28 31v593q0 6 -6 6h-180q-29 0 -29 27t29 27h429q29 0 29 -27t-29 -27h-180q-6 0 -6 -6v-593q0 -31 -29 -31zM259 -173q-6 -22 -26 -22q-12 0 -20 7.5t-8 18.5q0 4 2 12l27 85q6 22 26 22q12 0 20 -7.5t8 -18.5q0 -4 -2 -12z" />
    <glyph glyph-name="tcommaaccent" unicode="&#x163;" horiz-adv-x="311" 
d="M241 -3h-13q-66 0 -94 29t-28 99v298q0 6 -6 6h-39q-26 0 -26 24t26 24h39q6 0 6 6v122q0 29 27 29t27 -29v-122q0 -6 6 -6h76q26 0 26 -24t-26 -24h-76q-6 0 -6 -6v-296q0 -46 17 -62t64 -16q28 0 28 -26t-28 -26zM185 -173q-6 -22 -26 -22q-12 0 -20 7.5t-8 18.5
q0 4 2 12l27 85q6 22 26 22q12 0 20 -7.5t8 -18.5q0 -4 -2 -12z" />
    <glyph glyph-name="Tcaron" unicode="&#x164;" horiz-adv-x="523" 
d="M261 -4q-28 0 -28 31v593q0 6 -6 6h-180q-29 0 -29 27t29 27h429q29 0 29 -27t-29 -27h-180q-6 0 -6 -6v-593q0 -31 -29 -31zM261 750q-16 0 -34 22l-72 94q-5 7 -5 14q0 8 5.5 13t13.5 5q9 0 17 -9l74 -90h2l74 90q8 9 17 9q8 0 13.5 -5t5.5 -13q0 -7 -5 -14l-72 -94
q-18 -22 -34 -22z" />
    <glyph glyph-name="tcaron" unicode="&#x165;" horiz-adv-x="311" 
d="M241 -3h-13q-66 0 -94 29t-28 99v298q0 6 -6 6h-39q-26 0 -26 24t26 24h39q6 0 6 6v122q0 29 27 29t27 -29v-122q0 -6 6 -6h76q26 0 26 -24t-26 -24h-76q-6 0 -6 -6v-296q0 -46 17 -62t64 -16q28 0 28 -26t-28 -26zM272 556q-8 -21 -26 -21q-11 0 -18.5 7t-7.5 18
q0 6 2 12l29 91q7 21 26 21q12 0 19.5 -7t7.5 -18q0 -6 -2 -12z" />
    <glyph glyph-name="Tbar" unicode="&#x166;" horiz-adv-x="523" 
d="M227 400h-91q-28 0 -28 25t28 25h91q6 0 6 7v163q0 6 -6 6h-180q-29 0 -29 27t29 27h429q29 0 29 -27t-29 -27h-180q-6 0 -6 -6v-163q0 -7 6 -7h91q28 0 28 -25t-28 -25h-91q-6 0 -6 -6v-367q0 -31 -29 -31q-28 0 -28 31v367q0 6 -6 6z" />
    <glyph glyph-name="tbar" unicode="&#x167;" horiz-adv-x="311" 
d="M241 -3h-13q-66 0 -94 29t-28 99v170q0 6 -6 6h-30q-25 0 -25 23t25 23h30q6 0 6 6v70q0 6 -6 6h-39q-26 0 -26 24t26 24h39q6 0 6 6v122q0 29 27 29t27 -29v-122q0 -6 6 -6h76q26 0 26 -24t-26 -24h-76q-6 0 -6 -6v-70q0 -6 6 -6h64q25 0 25 -23t-25 -23h-64q-6 0 -6 -6
v-168q0 -46 17 -62t64 -16q28 0 28 -26t-28 -26z" />
    <glyph glyph-name="Utilde" unicode="&#x168;" horiz-adv-x="635" 
d="M317 -10q-108 0 -169 62t-61 183v418q0 31 29 31q28 0 28 -31v-419q0 -94 45 -142t128 -48t128.5 48t45.5 142v419q0 31 28 31q29 0 29 -31v-418q0 -122 -61 -183.5t-170 -61.5zM371 780q-27 0 -61 22q-29 19 -46 19q-20 0 -38 -26q-8 -12 -20 -12q-21 0 -21 20q0 7 4 14
q30 49 75 49q27 0 61 -22q29 -19 46 -19q20 0 38 26q7 12 20 12q21 0 21 -20q0 -7 -4 -14q-30 -49 -75 -49z" />
    <glyph glyph-name="utilde" unicode="&#x169;" horiz-adv-x="535" 
d="M416 -4q-27 0 -27 29v33h-1q-43 -68 -139 -68q-79 0 -122 47.5t-43 134.5v280q0 29 27 29t27 -29v-267q0 -143 123 -143q55 0 91.5 36.5t36.5 96.5v277q0 29 27 29t27 -29v-427q0 -29 -27 -29zM321 595q-27 0 -61 22q-29 19 -46 19q-20 0 -38 -26q-8 -12 -20 -12
q-21 0 -21 20q0 7 4 14q30 49 75 49q27 0 61 -22q29 -19 46 -19q20 0 38 26q7 12 20 12q21 0 21 -20q0 -7 -4 -14q-30 -49 -75 -49z" />
    <glyph glyph-name="Umacron" unicode="&#x16a;" horiz-adv-x="635" 
d="M317 -10q-108 0 -169 62t-61 183v418q0 31 29 31q28 0 28 -31v-419q0 -94 45 -142t128 -48t128.5 48t45.5 142v419q0 31 28 31q29 0 29 -31v-418q0 -122 -61 -183.5t-170 -61.5zM428 800h-222q-11 0 -18 6.5t-7 16.5t7 16.5t18 6.5h222q11 0 18 -6.5t7 -16.5t-7 -16.5
t-18 -6.5z" />
    <glyph glyph-name="umacron" unicode="&#x16b;" horiz-adv-x="535" 
d="M416 -4q-27 0 -27 29v33h-1q-43 -68 -139 -68q-79 0 -122 47.5t-43 134.5v280q0 29 27 29t27 -29v-267q0 -143 123 -143q55 0 91.5 36.5t36.5 96.5v277q0 29 27 29t27 -29v-427q0 -29 -27 -29zM378 618h-222q-11 0 -18 6.5t-7 16.5t7 16.5t18 6.5h222q11 0 18 -6.5
t7 -16.5t-7 -16.5t-18 -6.5z" />
    <glyph glyph-name="Ubreve" unicode="&#x16c;" horiz-adv-x="635" 
d="M317 -10q-108 0 -169 62t-61 183v418q0 31 29 31q28 0 28 -31v-419q0 -94 45 -142t128 -48t128.5 48t45.5 142v419q0 31 28 31q29 0 29 -31v-418q0 -122 -61 -183.5t-170 -61.5zM317 768q-54 0 -88.5 31t-34.5 67q0 18 19 18q15 0 21 -19q19 -53 83 -53t83 53q6 19 21 19
q19 0 19 -18q0 -36 -34.5 -67t-88.5 -31z" />
    <glyph glyph-name="ubreve" unicode="&#x16d;" horiz-adv-x="535" 
d="M416 -4q-27 0 -27 29v33h-1q-43 -68 -139 -68q-79 0 -122 47.5t-43 134.5v280q0 29 27 29t27 -29v-267q0 -143 123 -143q55 0 91.5 36.5t36.5 96.5v277q0 29 27 29t27 -29v-427q0 -29 -27 -29zM267 570q-54 0 -88.5 31t-34.5 67q0 18 19 18q15 0 21 -19q19 -53 83 -53
t83 53q6 19 21 19q19 0 19 -18q0 -36 -34.5 -67t-88.5 -31z" />
    <glyph glyph-name="Uring" unicode="&#x16e;" horiz-adv-x="635" 
d="M317 -10q-108 0 -169 62t-61 183v418q0 31 29 31q28 0 28 -31v-419q0 -94 45 -142t128 -48t128.5 48t45.5 142v419q0 31 28 31q29 0 29 -31v-418q0 -122 -61 -183.5t-170 -61.5zM404 826q0 -38 -25 -63t-63 -25t-63 25t-25 63t25 63t63 25t63 -25t25 -63zM369 826
q0 24 -14.5 40t-38.5 16t-38.5 -16t-14.5 -40t14.5 -40t38.5 -16t38.5 16t14.5 40z" />
    <glyph glyph-name="uring" unicode="&#x16f;" horiz-adv-x="535" 
d="M416 -4q-27 0 -27 29v33h-1q-43 -68 -139 -68q-79 0 -122 47.5t-43 134.5v280q0 29 27 29t27 -29v-267q0 -143 123 -143q55 0 91.5 36.5t36.5 96.5v277q0 29 27 29t27 -29v-427q0 -29 -27 -29zM355 629q0 -38 -25 -63t-63 -25t-63 25t-25 63t25 63t63 25t63 -25t25 -63z
M320 629q0 24 -14.5 40t-38.5 16t-38.5 -16t-14.5 -40t14.5 -40t38.5 -16t38.5 16t14.5 40z" />
    <glyph glyph-name="Uhungarumlaut" unicode="&#x170;" horiz-adv-x="635" 
d="M317 -10q-108 0 -169 62t-61 183v418q0 31 29 31q28 0 28 -31v-419q0 -94 45 -142t128 -48t128.5 48t45.5 142v419q0 31 28 31q29 0 29 -31v-418q0 -122 -61 -183.5t-170 -61.5zM397 768q-9 -12 -20 -12q-9 0 -15.5 6t-6.5 16q0 8 6 17l57 84q9 12 21 12q10 0 16.5 -6
t6.5 -16q0 -8 -6 -17zM274 768q-9 -12 -20 -12q-9 0 -15.5 6t-6.5 16q0 8 6 17l57 84q9 12 21 12q10 0 16.5 -6t6.5 -16q0 -8 -6 -17z" />
    <glyph glyph-name="uhungarumlaut" unicode="&#x171;" horiz-adv-x="535" 
d="M416 -4q-27 0 -27 29v33h-1q-43 -68 -139 -68q-79 0 -122 47.5t-43 134.5v280q0 29 27 29t27 -29v-267q0 -143 123 -143q55 0 91.5 36.5t36.5 96.5v277q0 29 27 29t27 -29v-427q0 -29 -27 -29zM352 571q-10 -15 -23 -15q-9 0 -15.5 6t-6.5 15q0 8 4 15l57 96q10 15 23 15
q10 0 16.5 -6t6.5 -15q0 -8 -4 -15zM225 571q-10 -15 -23 -15q-9 0 -15.5 6t-6.5 15q0 8 4 15l57 96q10 15 23 15q10 0 16.5 -6t6.5 -15q0 -8 -4 -15z" />
    <glyph glyph-name="Uogonek" unicode="&#x172;" horiz-adv-x="635" 
d="M252 -104q0 42 45 95q-100 5 -155 67.5t-55 175.5v419q0 31 29 31q28 0 28 -31v-419q0 -94 45 -142t128 -48q84 0 129 48.5t45 141.5v419q0 31 28 31q29 0 29 -31v-419q0 -106 -49.5 -167.5t-138.5 -73.5q-59 -52 -59 -90q0 -28 29 -28q11 0 21 5q8 4 13 4q21 0 21 -22
q0 -11 -11 -19q-22 -15 -52 -15q-32 0 -51 18t-19 50z" />
    <glyph glyph-name="uogonek" unicode="&#x173;" horiz-adv-x="535" 
d="M305 -104q0 56 84 117v45h-1q-43 -68 -139 -68q-79 0 -122 47.5t-43 134.5v280q0 29 27 29t27 -29v-267q0 -143 123 -143q55 0 91.5 36.5t36.5 96.5v277q0 29 27 29t27 -29v-427q0 -13 -4 -19.5t-17 -16.5q-68 -52 -68 -86q0 -28 29 -28q11 0 21 5q8 4 13 4q21 0 21 -22
q0 -11 -11 -19q-22 -15 -52 -15q-32 0 -51 18t-19 50z" />
    <glyph glyph-name="Wcircumflex" unicode="&#x174;" horiz-adv-x="817" 
d="M596 -4q-23 0 -32 32l-154 539h-2l-155 -539q-9 -32 -32 -32q-24 0 -32 32l-153 619q-1 5 -1 10q0 11 7 19t20 8q22 0 28 -22l133 -552h2l151 542q9 32 33 32q23 0 32 -32l154 -542h2l130 552q6 22 28 22q13 0 20 -8t7 -19q0 -6 -2 -14l-152 -615q-8 -32 -32 -32z
M500 751q-10 0 -17 9l-74 90h-2l-74 -90q-7 -9 -17 -9q-8 0 -13.5 5t-5.5 13q0 7 5 14l72 94q18 22 34 22t34 -22l72 -94q5 -7 5 -14q0 -8 -5.5 -13t-13.5 -5z" />
    <glyph glyph-name="wcircumflex" unicode="&#x175;" horiz-adv-x="734" 
d="M519 -4q-24 0 -33 31l-118 364h-1l-119 -364q-9 -31 -33 -31t-33 31l-138 416q-2 6 -2 12q0 11 7 18.5t19 7.5q19 0 27 -23l121 -372h1l118 363q10 32 32 32t32 -32l121 -363h1l118 372q8 23 27 23q12 0 19 -7.5t7 -18.5q0 -6 -2 -12l-138 -416q-9 -31 -33 -31zM459 554
q-9 0 -17 9l-74 90h-2l-74 -90q-8 -9 -17 -9q-8 0 -13.5 5t-5.5 13q0 7 5 14l72 94q17 22 34 22t34 -22l72 -94q5 -7 5 -14q0 -8 -5.5 -13t-13.5 -5z" />
    <glyph glyph-name="Ycircumflex" unicode="&#x176;" horiz-adv-x="507" 
d="M253 -4q-28 0 -28 31v252l-195 364q-4 8 -4 15q0 11 8 18.5t20 7.5q16 0 25 -15l175 -322h3l172 322q7 15 25 15q12 0 19.5 -7.5t7.5 -18.5q0 -7 -4 -15l-195 -364v-252q0 -31 -29 -31zM345 751q-9 0 -17 9l-74 90h-2l-74 -90q-8 -9 -17 -9q-8 0 -13.5 5t-5.5 13
q0 7 5 14l72 94q18 22 34 22t34 -22l72 -94q5 -7 5 -14q0 -8 -5.5 -13t-13.5 -5z" />
    <glyph glyph-name="ycircumflex" unicode="&#x177;" horiz-adv-x="468" 
d="M104 -180h-8q-28 0 -28 26t28 26q35 0 54 17.5t40 72.5l19 48l-169 433q-2 6 -2 13q0 10 7.5 17.5t19.5 7.5q19 0 26 -20l145 -377h1l141 377q7 20 26 20q12 0 19 -7.5t7 -17.5q0 -7 -2 -13l-188 -489q-30 -80 -59.5 -107t-76.5 -27zM326 554q-10 0 -17 9l-74 90h-2
l-74 -90q-8 -9 -17 -9q-8 0 -13.5 5t-5.5 13q0 7 5 14l72 94q17 22 34 22q18 0 34 -22l72 -94q5 -7 5 -14q0 -8 -5.5 -13t-13.5 -5z" />
    <glyph glyph-name="Ydieresis" unicode="&#x178;" horiz-adv-x="507" 
d="M253 -4q-28 0 -28 31v252l-195 364q-4 8 -4 15q0 11 8 18.5t20 7.5q16 0 25 -15l175 -322h3l172 322q7 15 25 15q12 0 19.5 -7.5t7.5 -18.5q0 -7 -4 -15l-195 -364v-252q0 -31 -29 -31zM353 786q-16 0 -27 11t-11 27t11 27.5t27 11.5t27 -11.5t11 -27.5t-11 -27t-27 -11z
M154 786q-16 0 -27 11t-11 27t11 27.5t27 11.5t27.5 -11.5t11.5 -27.5t-11.5 -27t-27.5 -11z" />
    <glyph glyph-name="Zacute" unicode="&#x179;" horiz-adv-x="540" 
d="M461 0h-382q-14 0 -22 7.5t-8 20.5q0 16 14 38l356 559v1h-328q-29 0 -29 27t29 27h368q14 0 22.5 -7.5t8.5 -20.5q0 -16 -14 -38l-356 -559v-1h341q29 0 29 -27t-29 -27zM352 854l-72 -83q-9 -11 -20 -11q-10 0 -16.5 6.5t-6.5 16.5q0 9 7 17l72 85q8 9 18 9t17 -7
t7 -17q0 -8 -6 -16z" />
    <glyph glyph-name="zacute" unicode="&#x17a;" horiz-adv-x="455" 
d="M381 0h-306q-28 0 -28 26q0 15 16 35l275 362v2h-250q-28 0 -28 26t28 26h293q28 0 28 -26q0 -14 -16 -35l-275 -362v-2h263q28 0 28 -26t-28 -26zM241 565q-7 -11 -18 -11q-23 0 -23 22q0 7 5 15l62 100q8 13 21 13q10 0 16.5 -6.5t6.5 -15.5q0 -8 -5 -16z" />
    <glyph glyph-name="Zdotaccent" unicode="&#x17b;" horiz-adv-x="540" 
d="M461 0h-382q-14 0 -22 7.5t-8 20.5q0 16 14 38l356 559v1h-328q-29 0 -29 27t29 27h368q14 0 22.5 -7.5t8.5 -20.5q0 -16 -14 -38l-356 -559v-1h341q29 0 29 -27t-29 -27zM270 781q-17 0 -29.5 12.5t-12.5 29.5t12.5 29.5t29.5 12.5t29.5 -12.5t12.5 -29.5t-12.5 -29.5
t-29.5 -12.5z" />
    <glyph glyph-name="zdotaccent" unicode="&#x17c;" horiz-adv-x="455" 
d="M381 0h-306q-28 0 -28 26q0 15 16 35l275 362v2h-250q-28 0 -28 26t28 26h293q28 0 28 -26q0 -14 -16 -35l-275 -362v-2h263q28 0 28 -26t-28 -26zM230 600q-17 0 -29.5 12.5t-12.5 29.5t12.5 29.5t29.5 12.5t29.5 -12.5t12.5 -29.5t-12.5 -29.5t-29.5 -12.5z" />
    <glyph glyph-name="Zcaron" unicode="&#x17d;" horiz-adv-x="540" 
d="M461 0h-382q-14 0 -22 7.5t-8 20.5q0 16 14 38l356 559v1h-328q-29 0 -29 27t29 27h368q14 0 22.5 -7.5t8.5 -20.5q0 -16 -14 -38l-356 -559v-1h341q29 0 29 -27t-29 -27zM270 750q-16 0 -34 22l-72 94q-5 7 -5 14q0 8 5.5 13t13.5 5q10 0 17 -9l74 -90h2l74 90q7 9 17 9
q8 0 13.5 -5t5.5 -13q0 -7 -5 -14l-72 -94q-18 -22 -34 -22z" />
    <glyph glyph-name="zcaron" unicode="&#x17e;" horiz-adv-x="455" 
d="M381 0h-306q-28 0 -28 26q0 15 16 35l275 362v2h-250q-28 0 -28 26t28 26h293q28 0 28 -26q0 -14 -16 -35l-275 -362v-2h263q28 0 28 -26t-28 -26zM228 554q-16 0 -34 22l-72 94q-5 7 -5 14q0 8 5.5 13t13.5 5q10 0 17 -9l74 -90h2l74 90q7 9 17 9q8 0 13.5 -5t5.5 -13
q0 -7 -5 -14l-72 -94q-18 -22 -34 -22z" />
    <glyph glyph-name="florin" unicode="&#x192;" 
d="M402 347h-95l-60 -385q-13 -80 -45 -111t-100 -31h-6q-27 0 -27 26t27 26q48 0 69 18t29 69l60 388h-74q-26 0 -26 24t26 24h82l22 143q13 80 45.5 111t99.5 31h6q28 0 28 -26t-28 -26q-48 0 -69 -18t-29 -69l-23 -146h88q26 0 26 -24t-26 -24z" />
    <glyph glyph-name="Aringacute" unicode="&#x1fa;" horiz-adv-x="596" 
d="M317 790q-8 -6 -17 -6q-8 0 -14.5 6t-6.5 15q0 11 9 19l73 64q8 6 17 6t16 -6.5t7 -15.5q0 -13 -11 -21zM387 671q0 -48 -38 -74l208 -564q2 -6 2 -11q0 -12 -7.5 -19t-19.5 -7q-20 0 -28 20l-59 161h-294l-59 -161q-8 -20 -28 -20q-12 0 -19.5 7t-7.5 19q0 5 2 11
l209 565q-37 25 -37 73q0 38 25 63t63 25t63 -25t25 -63zM352 671q0 24 -14.5 40t-38.5 16t-38.5 -16t-14.5 -40t14.5 -40t38.5 -16t38.5 16t14.5 40zM297 572l-126 -340h254l-125 340h-3z" />
    <glyph glyph-name="aringacute" unicode="&#x1fb;" horiz-adv-x="515" 
d="M286 771q-9 -11 -20 -11q-10 0 -16.5 6.5t-6.5 16.5q0 9 7 17l69 83q7 9 18 9q10 0 17 -7t7 -17q0 -8 -6 -16zM456 37q4 -8 4 -15q0 -11 -7.5 -18.5t-20.5 -7.5q-16 0 -26 17l-23 38h-2q-55 -61 -152 -61q-71 0 -117 37.5t-46 103.5q0 70 47 106t134 36h122q6 0 6 6v34
q0 62 -28 92.5t-96 30.5q-58 0 -109 -30q-9 -6 -19 -6q-25 0 -25 25q0 13 11 22q53 40 145 40q89 0 131 -41t42 -129v-193q0 -31 10 -51zM238 41q62 0 99.5 28.5t37.5 77.5v71q0 6 -6 6h-114q-71 0 -103 -22.5t-32 -70.5q0 -90 118 -90zM346 629q0 -38 -25 -63t-63 -25
t-63 25t-25 63t25 63t63 25t63 -25t25 -63zM311 629q0 24 -14.5 40t-38.5 16t-38.5 -16t-14.5 -40t14.5 -40t38.5 -16t38.5 16t14.5 40z" />
    <glyph glyph-name="AEacute" unicode="&#x1fc;" horiz-adv-x="932" 
d="M854 0h-357q-27 0 -27 27v144q0 6 -6 6h-273l-101 -165q-10 -16 -27 -16q-11 0 -18.5 7.5t-7.5 19.5q0 8 5 16l378 616q14 25 39 25h395q29 0 29 -27t-29 -27h-321q-6 0 -6 -6v-242q0 -6 6 -6h274q29 0 29 -27t-29 -27h-274q-6 0 -6 -6v-252q0 -6 6 -6h321q29 0 29 -27
t-29 -27zM467 626l-243 -395h240q6 0 6 6v389h-3zM614 854l-72 -83q-9 -11 -20 -11q-10 0 -16.5 6.5t-6.5 16.5q0 9 7 17l72 85q8 9 18 9t17 -7t7 -17q0 -8 -6 -16z" />
    <glyph glyph-name="aeacute" unicode="&#x1fd;" horiz-adv-x="814" 
d="M569 -10q-113 0 -162 85h-2q-53 -85 -176 -85q-71 0 -117 37.5t-46 103.5q0 70 47 106t134 36h122q6 0 6 6v34q0 62 -28 92.5t-96 30.5q-58 0 -109 -30q-9 -6 -19 -6q-25 0 -25 25q0 13 11 22q53 40 145 40q119 0 155 -77h2q49 77 152 77q65 0 111.5 -32t65.5 -92
q15 -45 15 -114q0 -25 -25 -25h-297q-6 0 -6 -6q0 -54 10 -83q31 -93 135 -93q76 0 129 54q10 10 20 10t17 -6.5t7 -16.5q0 -11 -6 -18q-59 -75 -170 -75zM433 273h261q6 0 6 6q0 39 -9 68q-29 90 -128 90q-98 0 -127 -90q-9 -28 -9 -68q0 -6 6 -6zM238 41q62 0 99.5 28.5
t37.5 77.5v71q0 6 -6 6h-114q-71 0 -103 -22.5t-32 -70.5q0 -90 118 -90zM444 565q-7 -11 -18 -11q-23 0 -23 22q0 7 5 15l62 100q8 13 21 13q10 0 16.5 -6.5t6.5 -15.5q0 -8 -5 -16z" />
    <glyph glyph-name="Oslashacute" unicode="&#x1fe;" horiz-adv-x="609" 
d="M120 -21q-7 -13 -18 -13q-20 0 -20 18q0 7 4 14l39 69q-27 34 -40 76q-20 60 -20 197t20 197q50 153 220 153q92 0 149 -48l34 60q7 13 18 13q20 0 20 -18q0 -7 -4 -14l-39 -70q26 -32 41 -76q20 -60 20 -197t-20 -197q-50 -153 -219 -153q-94 0 -151 48zM140 159
q7 -21 17 -38l268 472q-46 43 -120 43q-127 0 -165 -115q-17 -51 -17 -181t17 -181zM486 340q0 132 -17 181q-8 23 -17 37l-269 -470q46 -44 122 -44q126 0 164 115q17 51 17 181zM393 854l-72 -83q-9 -11 -20 -11q-10 0 -16.5 6.5t-6.5 16.5q0 9 7 17l72 85q7 9 18 9
q10 0 17 -7t7 -17q0 -8 -6 -16z" />
    <glyph glyph-name="oslashacute" unicode="&#x1ff;" horiz-adv-x="509" 
d="M83 -34q-16 0 -16 16q0 5 4 12l39 59q-24 29 -33 61q-17 53 -17 124q0 72 17 125q19 59 65 91.5t112 32.5q72 0 120 -39l36 54q6 9 15 9q16 0 16 -16q0 -5 -4 -12l-38 -59q20 -25 33 -61q17 -53 17 -125q0 -71 -17 -124q-19 -59 -65.5 -91.5t-112.5 -32.5q-71 0 -121 39
l-35 -54q-6 -9 -15 -9zM129 132q7 -20 14 -31l201 303q-34 31 -90 31q-97 0 -125 -90q-14 -42 -14 -107q0 -64 14 -106zM254 42q98 0 126 90q14 42 14 106q0 65 -14 107q-7 19 -14 31l-202 -302q35 -32 90 -32zM273 565q-7 -11 -18 -11q-23 0 -23 22q0 7 5 15l62 100
q8 13 21 13q10 0 16.5 -6.5t6.5 -15.5q0 -8 -5 -16z" />
    <glyph glyph-name="Scommaaccent" unicode="&#x218;" horiz-adv-x="593" 
d="M288 -10q-115 0 -209 66q-15 10 -15 27q0 11 8.5 19.5t20.5 8.5q11 0 21 -7q90 -60 181 -60q81 0 128.5 38t47.5 101q0 54 -37 87.5t-126 44.5l-32 4q-195 25 -195 180q0 88 58 139.5t155 51.5q102 0 175 -45q19 -12 19 -28q0 -11 -7.5 -19t-19.5 -8q-8 0 -20 6
q-74 40 -149 40q-73 0 -113.5 -36.5t-40.5 -95.5q0 -54 37.5 -86.5t122.5 -43.5l31 -4q199 -25 199 -183q0 -89 -62.5 -143t-177.5 -54zM300 -173q-6 -22 -26 -22q-12 0 -20 7.5t-8 18.5q0 4 2 12l27 85q6 22 26 22q12 0 20 -7.5t8 -18.5q0 -4 -2 -12z" />
    <glyph glyph-name="scommaaccent" unicode="&#x219;" horiz-adv-x="481" 
d="M241 -10q-97 0 -172 56q-12 9 -12 23q0 11 7.5 18t18.5 7q9 0 18 -6q67 -48 145 -48q60 0 92 25t32 67q0 39 -23 58t-86 26l-49 5q-67 7 -102.5 39t-35.5 87q0 66 45 103t123 37q79 0 142 -36q17 -10 17 -25q0 -10 -6.5 -17t-16.5 -7t-20 5q-56 30 -119 30
q-54 0 -82.5 -22.5t-28.5 -62.5q0 -36 25 -55t84 -25l49 -5q138 -15 138 -129q0 -69 -48 -108.5t-135 -39.5zM243 -173q-6 -22 -26 -22q-12 0 -20 7.5t-8 18.5q0 4 2 12l27 85q6 22 26 22q12 0 20 -7.5t8 -18.5q0 -4 -2 -12z" />
    <glyph glyph-name="uni021A" unicode="&#x21a;" horiz-adv-x="523" 
d="M261 -4q-28 0 -28 31v593q0 6 -6 6h-180q-29 0 -29 27t29 27h429q29 0 29 -27t-29 -27h-180q-6 0 -6 -6v-593q0 -31 -29 -31zM259 -173q-6 -22 -26 -22q-12 0 -20 7.5t-8 18.5q0 4 2 12l27 85q6 22 26 22q12 0 20 -7.5t8 -18.5q0 -4 -2 -12z" />
    <glyph glyph-name="uni021B" unicode="&#x21b;" horiz-adv-x="311" 
d="M241 -3h-13q-66 0 -94 29t-28 99v298q0 6 -6 6h-39q-26 0 -26 24t26 24h39q6 0 6 6v122q0 29 27 29t27 -29v-122q0 -6 6 -6h76q26 0 26 -24t-26 -24h-76q-6 0 -6 -6v-296q0 -46 17 -62t64 -16q28 0 28 -26t-28 -26zM185 -173q-6 -22 -26 -22q-12 0 -20 7.5t-8 18.5
q0 4 2 12l27 85q6 22 26 22q12 0 20 -7.5t8 -18.5q0 -4 -2 -12z" />
    <glyph glyph-name="dotlessj" unicode="&#x237;" horiz-adv-x="238" 
d="M26 -180q-28 0 -28 26t28 26q38 0 52 15.5t14 57.5v507q0 29 27 29t27 -29v-506q0 -68 -27 -97t-93 -29z" />
    <glyph glyph-name="circumflex" unicode="&#x2c6;" horiz-adv-x="422" 
d="M303 554q-9 0 -17 9l-74 90h-2l-74 -90q-8 -9 -17 -9q-8 0 -13.5 5t-5.5 13q0 7 5 14l72 94q17 22 34 22q18 0 34 -22l72 -94q5 -7 5 -14q0 -8 -5.5 -13t-13.5 -5z" />
    <glyph glyph-name="caron" unicode="&#x2c7;" horiz-adv-x="422" 
d="M211 554q-16 0 -34 22l-72 94q-5 7 -5 14q0 8 5.5 13t13.5 5q9 0 17 -9l74 -90h2l74 90q8 9 17 9q8 0 13.5 -5t5.5 -13q0 -7 -5 -14l-72 -94q-18 -22 -34 -22z" />
    <glyph glyph-name="uni02C9" unicode="&#x2c9;" horiz-adv-x="422" 
d="M322 800h-222q-11 0 -18 6.5t-7 16.5t7 16.5t18 6.5h222q11 0 18 -6.5t7 -16.5t-7 -16.5t-18 -6.5z" />
    <glyph glyph-name="breve" unicode="&#x2d8;" horiz-adv-x="422" 
d="M211 570q-54 0 -88.5 31t-34.5 67q0 18 19 18q15 0 21 -19q19 -53 83 -53t83 53q6 19 21 19q19 0 19 -18q0 -36 -34.5 -67t-88.5 -31z" />
    <glyph glyph-name="dotaccent" unicode="&#x2d9;" horiz-adv-x="422" 
d="M211 600q-17 0 -29.5 12.5t-12.5 29.5t12.5 29.5t29.5 12.5t29.5 -12.5t12.5 -29.5t-12.5 -29.5t-29.5 -12.5z" />
    <glyph glyph-name="ring" unicode="&#x2da;" horiz-adv-x="422" 
d="M299 629q0 -38 -25 -63t-63 -25t-63 25t-25 63t25 63t63 25t63 -25t25 -63zM264 629q0 24 -14.5 40t-38.5 16t-38.5 -16t-14.5 -40t14.5 -40t38.5 -16t38.5 16t14.5 40z" />
    <glyph glyph-name="ogonek" unicode="&#x2db;" horiz-adv-x="422" 
d="M212 -172q-32 0 -51 18t-19 50q0 54 71 104q14 10 24 10h35q4 0 5 -4t-3 -6q-83 -60 -83 -97q0 -28 29 -28q11 0 21 5q8 4 13 4q21 0 21 -22q0 -11 -11 -19q-22 -15 -52 -15z" />
    <glyph glyph-name="tilde" unicode="&#x2dc;" horiz-adv-x="422" 
d="M265 595q-27 0 -61 22q-29 19 -46 19q-20 0 -38 -26q-8 -12 -20 -12q-21 0 -21 20q0 7 4 14q30 49 75 49q27 0 61 -22q29 -19 46 -19q20 0 38 26q7 12 20 12q21 0 21 -20q0 -7 -4 -14q-30 -49 -75 -49z" />
    <glyph glyph-name="hungarumlaut" unicode="&#x2dd;" horiz-adv-x="422" 
d="M270 571q-10 -15 -23 -15q-9 0 -15.5 6t-6.5 15q0 8 4 15l57 96q10 15 23 15q10 0 16.5 -6t6.5 -15q0 -8 -4 -15zM143 571q-10 -15 -23 -15q-9 0 -15.5 6t-6.5 15q0 8 4 15l57 96q10 15 23 15q10 0 16.5 -6t6.5 -15q0 -8 -4 -15z" />
    <glyph glyph-name="Delta" unicode="&#x394;" horiz-adv-x="596" 
d="M529 0h-463q-27 0 -27 24q0 7 6 25l218 605q11 30 36 30t36 -30l216 -605q6 -18 6 -25q0 -24 -28 -24zM482 55q8 0 5 8l-187 525h-3l-188 -525q-3 -8 5 -8h368z" />
    <glyph glyph-name="Delta" unicode="&#x2206;" horiz-adv-x="596" 
d="M529 0h-463q-27 0 -27 24q0 7 6 25l218 605q11 30 36 30t36 -30l216 -605q6 -18 6 -25q0 -24 -28 -24zM482 55q8 0 5 8l-187 525h-3l-188 -525q-3 -8 5 -8h368z" />
    <glyph glyph-name="Omega" unicode="&#x3a9;" horiz-adv-x="612" 
d="M306 636q-128 0 -166 -119q-17 -52 -17 -177q0 -121 27 -182.5t88 -93.5q19 -9 25 -16.5t6 -20.5q0 -27 -29 -27h-141q-29 0 -29 27t29 27h65v2q-99 55 -99 284q0 131 20 194q51 156 221 156t221 -156q20 -62 20 -194q0 -229 -99 -284v-2h65q29 0 29 -27t-29 -27h-141
q-29 0 -29 27q0 13 6 20.5t25 16.5q61 32 88 93.5t27 182.5q0 125 -17 177q-38 119 -166 119z" />
    <glyph glyph-name="Omega" unicode="&#x2126;" horiz-adv-x="612" 
d="M306 636q-128 0 -166 -119q-17 -52 -17 -177q0 -121 27 -182.5t88 -93.5q19 -9 25 -16.5t6 -20.5q0 -27 -29 -27h-141q-29 0 -29 27t29 27h65v2q-99 55 -99 284q0 131 20 194q51 156 221 156t221 -156q20 -62 20 -194q0 -229 -99 -284v-2h65q29 0 29 -27t-29 -27h-141
q-29 0 -29 27q0 13 6 20.5t25 16.5q61 32 88 93.5t27 182.5q0 125 -17 177q-38 119 -166 119z" />
    <glyph glyph-name="pi" unicode="&#x3c0;" horiz-adv-x="561" 
d="M477 -6h-4q-74 0 -74 84v341q0 6 -6 6h-223q-6 0 -6 -6v-394q0 -29 -27 -29t-27 29v394q0 6 -7 6h-24q-27 0 -27 26t27 26h405q27 0 27 -26t-27 -26h-25q-6 0 -6 -6v-345q0 -27 24 -28q28 -2 28 -26q0 -26 -28 -26z" />
    <glyph glyph-name="Wgrave" unicode="&#x1e80;" horiz-adv-x="817" 
d="M596 -4q-23 0 -32 32l-154 539h-2l-155 -539q-9 -32 -32 -32q-24 0 -32 32l-153 619q-1 5 -1 10q0 11 7 19t20 8q22 0 28 -22l133 -552h2l151 542q9 32 33 32q23 0 32 -32l154 -542h2l130 552q6 22 28 22q13 0 20 -8t7 -19q0 -6 -2 -14l-152 -615q-8 -32 -32 -32z
M376 771l-72 83q-6 8 -6 16q0 10 7 17t17 7t18 -9l72 -85q7 -8 7 -17q0 -10 -6.5 -16.5t-16.5 -6.5q-11 0 -20 11z" />
    <glyph glyph-name="wgrave" unicode="&#x1e81;" horiz-adv-x="734" 
d="M519 -4q-24 0 -33 31l-118 364h-1l-119 -364q-9 -31 -33 -31t-33 31l-138 416q-2 6 -2 12q0 11 7 18.5t19 7.5q19 0 27 -23l121 -372h1l118 363q10 32 32 32t32 -32l121 -363h1l118 372q8 23 27 23q12 0 19 -7.5t7 -18.5q0 -6 -2 -12l-138 -416q-9 -31 -33 -31zM356 554
q-11 0 -18 11l-65 101q-5 8 -5 16q0 9 6.5 15.5t16.5 6.5q13 0 21 -13l62 -100q5 -8 5 -15q0 -22 -23 -22z" />
    <glyph glyph-name="Wacute" unicode="&#x1e82;" horiz-adv-x="817" 
d="M596 -4q-23 0 -32 32l-154 539h-2l-155 -539q-9 -32 -32 -32q-24 0 -32 32l-153 619q-1 5 -1 10q0 11 7 19t20 8q22 0 28 -22l133 -552h2l151 542q9 32 33 32q23 0 32 -32l154 -542h2l130 552q6 22 28 22q13 0 20 -8t7 -19q0 -6 -2 -14l-152 -615q-8 -32 -32 -32z
M513 854l-72 -83q-9 -11 -20 -11q-10 0 -16.5 6.5t-6.5 16.5q0 9 7 17l72 85q7 9 18 9q10 0 17 -7t7 -17q0 -8 -6 -16z" />
    <glyph glyph-name="wacute" unicode="&#x1e83;" horiz-adv-x="734" 
d="M519 -4q-24 0 -33 31l-118 364h-1l-119 -364q-9 -31 -33 -31t-33 31l-138 416q-2 6 -2 12q0 11 7 18.5t19 7.5q19 0 27 -23l121 -372h1l118 363q10 32 32 32t32 -32l121 -363h1l118 372q8 23 27 23q12 0 19 -7.5t7 -18.5q0 -6 -2 -12l-138 -416q-9 -31 -33 -31zM396 565
q-7 -11 -18 -11q-23 0 -23 22q0 7 5 15l62 100q8 13 21 13q10 0 16.5 -6.5t6.5 -15.5q0 -8 -5 -16z" />
    <glyph glyph-name="Wdieresis" unicode="&#x1e84;" horiz-adv-x="817" 
d="M596 -4q-23 0 -32 32l-154 539h-2l-155 -539q-9 -32 -32 -32q-24 0 -32 32l-153 619q-1 5 -1 10q0 11 7 19t20 8q22 0 28 -22l133 -552h2l151 542q9 32 33 32q23 0 32 -32l154 -542h2l130 552q6 22 28 22q13 0 20 -8t7 -19q0 -6 -2 -14l-152 -615q-8 -32 -32 -32z
M508 786q-16 0 -27 11t-11 27t11 27.5t27 11.5t27 -11.5t11 -27.5t-11 -27t-27 -11zM309 786q-16 0 -27 11t-11 27t11 27.5t27 11.5t27.5 -11.5t11.5 -27.5t-11.5 -27t-27.5 -11z" />
    <glyph glyph-name="wdieresis" unicode="&#x1e85;" horiz-adv-x="734" 
d="M519 -4q-24 0 -33 31l-118 364h-1l-119 -364q-9 -31 -33 -31t-33 31l-138 416q-2 6 -2 12q0 11 7 18.5t19 7.5q19 0 27 -23l121 -372h1l118 363q10 32 32 32t32 -32l121 -363h1l118 372q8 23 27 23q12 0 19 -7.5t7 -18.5q0 -6 -2 -12l-138 -416q-9 -31 -33 -31zM466 603
q-16 0 -27 11t-11 27t11 27.5t27 11.5t27 -11.5t11 -27.5t-11 -27t-27 -11zM267 603q-16 0 -27 11t-11 27t11 27.5t27 11.5t27.5 -11.5t11.5 -27.5t-11.5 -27t-27.5 -11z" />
    <glyph glyph-name="Ygrave" unicode="&#x1ef2;" horiz-adv-x="507" 
d="M253 -4q-28 0 -28 31v252l-195 364q-4 8 -4 15q0 11 8 18.5t20 7.5q16 0 25 -15l175 -322h3l172 322q7 15 25 15q12 0 19.5 -7.5t7.5 -18.5q0 -7 -4 -15l-195 -364v-252q0 -31 -29 -31zM233 771l-72 83q-6 8 -6 16q0 10 7 17t17 7q11 0 18 -9l72 -85q7 -8 7 -17
q0 -10 -6.5 -16.5t-16.5 -6.5q-11 0 -20 11z" />
    <glyph glyph-name="ygrave" unicode="&#x1ef3;" horiz-adv-x="468" 
d="M104 -180h-8q-28 0 -28 26t28 26q35 0 54 17.5t40 72.5l19 48l-169 433q-2 6 -2 13q0 10 7.5 17.5t19.5 7.5q19 0 26 -20l145 -377h1l141 377q7 20 26 20q12 0 19 -7.5t7 -17.5q0 -7 -2 -13l-188 -489q-30 -80 -59.5 -107t-76.5 -27zM245 554q-11 0 -18 11l-65 101
q-5 8 -5 16q0 9 6.5 15.5t16.5 6.5q13 0 21 -13l62 -100q5 -8 5 -15q0 -22 -23 -22z" />
    <glyph glyph-name="endash" unicode="&#x2013;" horiz-adv-x="504" 
d="M454 241h-404q-27 0 -27 25t27 25h404q27 0 27 -25t-27 -25z" />
    <glyph glyph-name="emdash" unicode="&#x2014;" horiz-adv-x="830" 
d="M780 241h-730q-27 0 -27 25t27 25h730q27 0 27 -25t-27 -25z" />
    <glyph glyph-name="quoteleft" unicode="&#x2018;" horiz-adv-x="207" 
d="M113 528q-6 -22 -26 -22q-11 0 -18.5 7t-7.5 19q0 6 2 12l38 118q6 22 26 22q11 0 18.5 -7t7.5 -19q0 -6 -2 -12z" />
    <glyph glyph-name="quoteright" unicode="&#x2019;" horiz-adv-x="207" 
d="M113 528q-6 -22 -26 -22q-11 0 -18.5 7t-7.5 19q0 6 2 12l38 118q6 22 26 22q11 0 18.5 -7t7.5 -19q0 -6 -2 -12z" />
    <glyph glyph-name="quotesinglbase" unicode="&#x201a;" horiz-adv-x="207" 
d="M114 -87q-6 -22 -26 -22q-11 0 -18.5 7t-7.5 19q0 6 2 12l38 118q6 22 26 22q11 0 18.5 -7t7.5 -19q0 -6 -2 -12z" />
    <glyph glyph-name="quotedblleft" unicode="&#x201c;" horiz-adv-x="346" 
d="M249 528q-6 -22 -26 -22q-11 0 -18.5 7t-7.5 19q0 6 2 12l38 118q6 22 26 22q11 0 18.5 -7t7.5 -19q0 -6 -2 -12zM113 528q-6 -22 -26 -22q-11 0 -18.5 7t-7.5 19q0 6 2 12l38 118q6 22 26 22q11 0 18.5 -7t7.5 -19q0 -6 -2 -12z" />
    <glyph glyph-name="quotedblright" unicode="&#x201d;" horiz-adv-x="346" 
d="M249 528q-6 -22 -26 -22q-11 0 -18.5 7t-7.5 19q0 6 2 12l38 118q6 22 26 22q11 0 18.5 -7t7.5 -19q0 -6 -2 -12zM113 528q-6 -22 -26 -22q-11 0 -18.5 7t-7.5 19q0 6 2 12l38 118q6 22 26 22q11 0 18.5 -7t7.5 -19q0 -6 -2 -12z" />
    <glyph glyph-name="quotedblbase" unicode="&#x201e;" horiz-adv-x="346" 
d="M251 -87q-6 -22 -26 -22q-11 0 -18.5 7t-7.5 19q0 6 2 12l38 118q6 22 26 22q11 0 18.5 -7t7.5 -19q0 -6 -2 -12zM115 -87q-6 -22 -26 -22q-11 0 -18.5 7t-7.5 19q0 6 2 12l38 118q6 22 26 22q11 0 18.5 -7t7.5 -19q0 -6 -2 -12z" />
    <glyph glyph-name="dagger" unicode="&#x2020;" horiz-adv-x="447" 
d="M223 -184q-26 0 -26 28v530q0 6 -6 6h-124q-27 0 -27 24q0 25 27 25h124q6 0 6 6v221q0 28 26 28q27 0 27 -28v-221q0 -6 6 -6h124q27 0 27 -25q0 -24 -27 -24h-124q-6 0 -6 -6v-530q0 -28 -27 -28z" />
    <glyph glyph-name="daggerdbl" unicode="&#x2021;" horiz-adv-x="447" 
d="M197 -156v194q0 6 -6 6h-124q-27 0 -27 25q0 24 27 24h124q6 0 6 6v304q0 6 -6 6h-124q-27 0 -27 24q0 25 27 25h124q6 0 6 6v192q0 28 26 28q27 0 27 -28v-192q0 -6 6 -6h124q27 0 27 -25q0 -24 -27 -24h-124q-6 0 -6 -6v-304q0 -6 6 -6h124q27 0 27 -24q0 -25 -27 -25
h-124q-6 0 -6 -6v-194q0 -28 -27 -28q-26 0 -26 28z" />
    <glyph glyph-name="bullet" unicode="&#x2022;" horiz-adv-x="388" 
d="M194 193q-47 0 -81 34t-34 81t34 81t81 34t81 -34t34 -81t-34 -81t-81 -34z" />
    <glyph glyph-name="ellipsis" unicode="&#x2026;" horiz-adv-x="657" 
d="M557 -4q-18 0 -31 13t-13 31t13 31t31 13t31 -13t13 -31t-13 -31t-31 -13zM338 -4q-18 0 -31 13t-13 31t13 31t31 13t31 -13t13 -31t-13 -31t-31 -13zM119 -4q-18 0 -31 13t-13 31t13 31t31 13t31 -13t13 -31t-13 -31t-31 -13z" />
    <glyph glyph-name="perthousand" unicode="&#x2030;" horiz-adv-x="1072" 
d="M192 -14q-21 0 -21 21q0 6 3 12l384 663q7 12 19 12q21 0 21 -21q0 -6 -3 -12l-384 -663q-7 -12 -19 -12zM204 330q-40 0 -68.5 19t-39.5 54q-8 24 -8 106t8 106q11 35 39.5 54t68.5 19t68.5 -19t39.5 -54q8 -24 8 -106t-8 -106q-11 -35 -39.5 -54t-68.5 -19zM204 371
q50 0 64 43q7 21 7 95t-7 95q-14 43 -64 43t-64 -43q-7 -21 -7 -95t7 -95q14 -43 64 -43zM868 -8q-40 0 -68.5 19t-39.5 54q-8 24 -8 106t8 106q11 35 39.5 54t68.5 19t68.5 -19t39.5 -54q8 -24 8 -106t-8 -106q-11 -35 -39.5 -54t-68.5 -19zM567 -8q-40 0 -68.5 19
t-39.5 54q-8 24 -8 106t8 106q11 35 39.5 54t68.5 19t68.5 -19t39.5 -54q8 -24 8 -106t-8 -106q-11 -35 -39.5 -54t-68.5 -19zM868 33q50 0 64 43q7 21 7 95t-7 95q-14 43 -64 43t-64 -43q-7 -21 -7 -95t7 -95q14 -43 64 -43zM567 33q50 0 64 43q7 21 7 95t-7 95
q-14 43 -64 43t-64 -43q-7 -21 -7 -95t7 -95q14 -43 64 -43z" />
    <glyph glyph-name="guilsinglleft" unicode="&#x2039;" horiz-adv-x="326" 
d="M224 97q-10 0 -18 8l-127 130q-16 16 -16 29t16 29l127 130q8 8 18 8t17 -6.5t7 -16.5q0 -9 -8 -18l-119 -122q-4 -4 0 -8l119 -122q8 -9 8 -18q0 -10 -7 -16.5t-17 -6.5z" />
    <glyph glyph-name="guilsinglright" unicode="&#x203a;" horiz-adv-x="326" 
d="M102 97q-10 0 -17 6.5t-7 16.5q0 9 8 18l119 122q4 4 0 8l-119 122q-8 9 -8 18q0 10 7 16.5t17 6.5t18 -8l127 -130q16 -16 16 -29t-16 -29l-127 -130q-8 -8 -18 -8z" />
    <glyph glyph-name="fraction" unicode="&#x2044;" horiz-adv-x="151" 
d="M-98 -2q-7 -12 -19 -12q-21 0 -21 21q0 6 3 12l384 663q7 12 19 12q21 0 21 -21q0 -6 -3 -12z" />
    <glyph glyph-name="zero.superior" unicode="&#x2070;" horiz-adv-x="331" 
d="M166 423q-91 0 -117 81q-9 29 -9 129q0 98 9 129q26 81 117 81q90 0 116 -81q9 -31 9 -129q0 -100 -9 -129q-26 -81 -116 -81zM166 466q55 0 71 50q7 23 7 117t-7 117q-16 50 -71 50q-54 0 -72 -50q-7 -23 -7 -117t7 -117q18 -50 72 -50z" />
    <glyph glyph-name="four.superior" unicode="&#x2074;" horiz-adv-x="331" 
d="M230 428q-24 0 -24 26v46q0 6 -6 6h-150q-25 0 -25 22q0 12 12 35l128 260q7 15 21 15q9 0 15.5 -5.5t6.5 -14.5q0 -8 -4 -16l-124 -252v-1h120q6 0 6 6v84q0 26 24 26q23 0 23 -26v-84q0 -6 6 -6h21q24 0 24 -21q0 -22 -24 -22h-21q-6 0 -6 -6v-46q0 -12 -6.5 -19
t-16.5 -7z" />
    <glyph glyph-name="five.superior" unicode="&#x2075;" horiz-adv-x="331" 
d="M168 423q-82 0 -112 68q-3 8 -3 13q0 9 6.5 15t16.5 6q13 0 23 -18q23 -41 69 -41q56 0 70 46q5 17 5 49q0 35 -5 49q-15 43 -67 43q-39 0 -60 -27q-14 -20 -30 -20q-23 0 -23 26v182q0 9 6 15.5t15 6.5h183q23 0 23 -22q0 -21 -23 -21h-154q-6 0 -6 -6v-121h1
q22 31 74 31q83 0 105 -68q8 -24 8 -68q0 -40 -9 -67q-25 -71 -113 -71z" />
    <glyph glyph-name="six.superior" unicode="&#x2076;" horiz-adv-x="331" 
d="M165 423q-56 0 -91.5 34.5t-35.5 90.5q0 44 28 95l100 180q8 15 21 15q22 0 22 -21q0 -6 -3 -12l-80 -144l1 -1q15 12 46 12q53 0 87 -34.5t34 -89.5q0 -56 -36 -90.5t-93 -34.5zM166 466q37 0 59.5 22.5t22.5 59.5q0 36 -22.5 58.5t-59.5 22.5t-59.5 -22.5t-22.5 -58.5
q0 -37 22.5 -59.5t59.5 -22.5z" />
    <glyph glyph-name="seven.superior" unicode="&#x2077;" horiz-adv-x="331" 
d="M143 445q-9 -17 -23 -17q-10 0 -16 6t-6 15q0 5 3 13l140 329v2h-139q-6 0 -6 -6v-30q0 -11 -6.5 -18t-16.5 -7t-16.5 7t-6.5 18v57q0 22 22 22h200q23 0 23 -22q0 -11 -7 -28z" />
    <glyph glyph-name="eight.superior" unicode="&#x2078;" horiz-adv-x="331" 
d="M166 423q-57 0 -93.5 33t-36.5 87q0 35 17.5 61.5t44.5 38.5v2q-52 28 -52 86q0 48 33.5 80t86.5 32q52 0 85.5 -32t33.5 -80q0 -58 -52 -86v-2q27 -12 44.5 -38t17.5 -62q0 -54 -36 -87t-93 -33zM166 663q31 0 52 19.5t21 48.5q0 30 -21 49.5t-52 19.5t-52.5 -19.5
t-21.5 -49.5q0 -29 21.5 -48.5t52.5 -19.5zM166 466q37 0 60 21.5t23 56.5t-23 56.5t-60 21.5t-60.5 -22t-23.5 -56t23.5 -56t60.5 -22z" />
    <glyph glyph-name="nine.superior" unicode="&#x2079;" horiz-adv-x="331" 
d="M145 428q-22 0 -22 21q0 6 3 12l80 144l-1 1q-15 -12 -46 -12q-53 0 -87 34.5t-34 89.5q0 56 36 90.5t93 34.5q56 0 91.5 -34.5t35.5 -90.5q0 -44 -28 -95l-100 -180q-8 -15 -21 -15zM166 637q37 0 59.5 22.5t22.5 58.5q0 37 -22.5 59.5t-59.5 22.5t-59.5 -22.5
t-22.5 -59.5q0 -36 22.5 -58.5t59.5 -22.5z" />
    <glyph glyph-name="zero.inferior" unicode="&#x2080;" horiz-adv-x="331" 
d="M166 -163q-91 0 -117 81q-9 29 -9 129q0 98 9 129q26 81 117 81q90 0 116 -81q9 -31 9 -129q0 -100 -9 -129q-26 -81 -116 -81zM166 -120q55 0 71 50q7 23 7 117t-7 117q-16 50 -71 50q-54 0 -72 -50q-7 -23 -7 -117t7 -117q18 -50 72 -50z" />
    <glyph glyph-name="one.inferior" unicode="&#x2081;" horiz-adv-x="331" 
d="M182 -158q-23 0 -23 26v324h-1l-48 -33q-8 -5 -15 -5q-9 0 -15 6t-6 16q0 12 12 21l61 42q18 13 32 13q27 0 27 -26v-358q0 -26 -24 -26z" />
    <glyph glyph-name="two.inferior" unicode="&#x2082;" horiz-adv-x="331" 
d="M269 -156h-206q-24 0 -24 22q0 14 15 30l150 175q34 40 34 76q0 29 -18.5 48t-49.5 19q-55 0 -72 -49q-7 -20 -24 -20q-22 0 -22 20q0 6 2 12q11 34 39.5 57t75.5 23q54 0 85 -31.5t31 -78.5q0 -50 -45 -101l-135 -157v-2h164q23 0 23 -21q0 -22 -23 -22z" />
    <glyph glyph-name="three.inferior" unicode="&#x2083;" horiz-adv-x="331" 
d="M167 -163q-93 0 -120 70q-3 7 -3 13q0 20 21 20q13 0 23 -17q29 -43 78 -43q35 0 56.5 22t21.5 55t-23 54.5t-62 21.5q-10 0 -17 6t-7 15q0 22 24 22q35 0 55 19t20 51q0 30 -19 49t-52 19q-45 0 -69 -39q-10 -17 -23 -17q-21 0 -21 20q0 6 3 13q12 28 41 47t70 19
q53 0 85 -30.5t32 -78.5q0 -57 -51 -90v-1q24 -10 42.5 -36t18.5 -64q0 -53 -34 -86.5t-90 -33.5z" />
    <glyph glyph-name="four.inferior" unicode="&#x2084;" horiz-adv-x="331" 
d="M230 -158q-24 0 -24 26v46q0 6 -6 6h-150q-25 0 -25 22q0 13 12 35l128 260q7 15 21 15q9 0 15.5 -5.5t6.5 -14.5q0 -8 -4 -16l-124 -252v-1h120q6 0 6 6v84q0 26 24 26q23 0 23 -26v-84q0 -6 6 -6h21q24 0 24 -21q0 -22 -24 -22h-21q-6 0 -6 -6v-46q0 -12 -6.5 -19
t-16.5 -7z" />
    <glyph glyph-name="five.inferior" unicode="&#x2085;" horiz-adv-x="331" 
d="M168 -163q-82 0 -112 68q-3 7 -3 13q0 9 6.5 15t16.5 6q13 0 23 -18q23 -41 69 -41q56 0 70 46q5 17 5 49q0 35 -5 49q-15 43 -67 43q-39 0 -60 -27q-14 -20 -30 -20q-23 0 -23 26v182q0 9 6 15.5t15 6.5h183q23 0 23 -22q0 -21 -23 -21h-154q-6 0 -6 -6v-121h1
q22 31 74 31q83 0 105 -68q8 -24 8 -68q0 -40 -9 -67q-25 -71 -113 -71z" />
    <glyph glyph-name="six.inferior" unicode="&#x2086;" horiz-adv-x="331" 
d="M165 -163q-56 0 -91.5 34.5t-35.5 90.5q0 44 28 95l100 180q8 15 21 15q22 0 22 -21q0 -6 -3 -12l-80 -144l1 -1q15 12 46 12q53 0 87 -34.5t34 -89.5q0 -56 -36 -90.5t-93 -34.5zM166 -120q37 0 59.5 22.5t22.5 59.5q0 36 -22.5 58.5t-59.5 22.5t-59.5 -22.5
t-22.5 -58.5q0 -37 22.5 -59.5t59.5 -22.5z" />
    <glyph glyph-name="seven.inferior" unicode="&#x2087;" horiz-adv-x="331" 
d="M143 -141q-9 -17 -23 -17q-10 0 -16 6t-6 15q0 5 3 13l140 329v2h-139q-6 0 -6 -6v-30q0 -11 -6.5 -18t-16.5 -7t-16.5 7t-6.5 18v57q0 22 22 22h200q23 0 23 -22q0 -11 -7 -28z" />
    <glyph glyph-name="eight.inferior" unicode="&#x2088;" horiz-adv-x="331" 
d="M166 -163q-57 0 -93.5 33t-36.5 87q0 35 17.5 61.5t44.5 38.5v2q-52 28 -52 86q0 48 33.5 80t86.5 32q52 0 85.5 -32t33.5 -80q0 -58 -52 -86v-2q27 -12 44.5 -38t17.5 -62q0 -54 -36 -87t-93 -33zM166 77q31 0 52 19.5t21 48.5q0 30 -21 49.5t-52 19.5t-52.5 -19.5
t-21.5 -49.5q0 -29 21.5 -48.5t52.5 -19.5zM166 -120q37 0 60 21.5t23 56.5t-23 56.5t-60 21.5t-60.5 -22t-23.5 -56t23.5 -56t60.5 -22z" />
    <glyph glyph-name="nine.inferior" unicode="&#x2089;" horiz-adv-x="331" 
d="M145 -158q-22 0 -22 21q0 6 3 12l80 144l-1 1q-15 -12 -46 -12q-53 0 -87 34.5t-34 89.5q0 56 36 90.5t93 34.5q56 0 91.5 -34.5t35.5 -90.5q0 -44 -28 -95l-100 -180q-8 -15 -21 -15zM166 51q37 0 59.5 22.5t22.5 58.5q0 37 -22.5 59.5t-59.5 22.5t-59.5 -22.5
t-22.5 -59.5q0 -36 22.5 -58.5t59.5 -22.5z" />
    <glyph glyph-name="Euro" unicode="&#x20ac;" 
d="M305 -10q-139 0 -180 127q-14 43 -14 136q0 6 -6 6h-34q-25 0 -25 22q0 23 25 23h34q6 0 6 6v66q0 6 -6 6h-34q-25 0 -25 23q0 22 25 22h34q6 0 6 6q0 87 14 130q41 127 180 127q62 0 105.5 -29t64.5 -75q3 -6 3 -13q0 -11 -7 -18t-17 -7q-16 0 -26 18q-41 72 -123 72
q-99 0 -127 -88q-12 -38 -12 -117q0 -6 6 -6h203q25 0 25 -22q0 -23 -25 -23h-203q-6 0 -6 -6v-66q0 -6 6 -6h163q25 0 25 -23q0 -22 -25 -22h-163q-6 0 -6 -6q0 -85 12 -123q28 -88 127 -88q82 0 123 72q10 18 26 18q10 0 17 -7t7 -18q0 -7 -3 -13q-21 -46 -64.5 -75
t-105.5 -29z" />
    <glyph glyph-name="afii61289" unicode="&#x2113;" horiz-adv-x="371" 
d="M93 220q-7 -6 -18 -6q-10 0 -16.5 6.5t-6.5 16.5q0 13 12 23l53 45v219q0 166 104 166q43 0 70 -33t27 -93q0 -69 -35 -136t-114 -147v-176q0 -61 46 -61q26 0 48 18q10 8 20 8t17 -6.5t7 -17.5t-9 -20q-36 -36 -89 -36q-92 0 -92 114v136zM169 518v-167
q52 59 74.5 108.5t22.5 104.5q0 36 -12.5 56.5t-33.5 20.5q-51 0 -51 -123z" />
    <glyph glyph-name="trademark" unicode="&#x2122;" horiz-adv-x="817" 
d="M745 284q-21 0 -21 23v272h-2l-106 -216q-11 -23 -28 -23q-16 0 -27 23l-106 216h-2v-272q0 -23 -21 -23t-21 23v349q0 26 24 26q17 0 29 -26l123 -259h3l124 259q12 26 29 26q23 0 23 -26v-349q0 -23 -21 -23zM190 284q-22 0 -22 24v326q0 6 -6 6h-101q-22 0 -22 20
t22 20h257q22 0 22 -20t-22 -20h-101q-6 0 -6 -6v-326q0 -24 -21 -24z" />
    <glyph glyph-name="estimated" unicode="&#x212e;" horiz-adv-x="643" 
d="M320 -10q-103 0 -167 71.5t-64 177.5t64 177t167 71q104 0 168.5 -69t65.5 -179h-363v-164q53 -51 129 -51q110 0 173 108l33 -21q-43 -65 -89.5 -93t-116.5 -28zM452 272v130q-58 55 -132 55q-77 0 -129 -55v-130h261z" />
    <glyph glyph-name="onethird" unicode="&#x2153;" horiz-adv-x="868" 
d="M200 272q-23 0 -23 26v324h-1l-48 -33q-8 -5 -15 -5q-9 0 -15 6t-6 16q0 12 12 21l61 42q18 13 32 13q27 0 27 -26v-358q0 -26 -24 -26zM226 -2q-7 -12 -19 -12q-21 0 -21 21q0 6 3 12l384 663q7 12 19 12q21 0 21 -21q0 -6 -3 -12zM647 -7q-93 0 -120 70q-3 8 -3 13
q0 20 21 20q13 0 23 -17q29 -43 78 -43q35 0 56.5 22t21.5 55t-23 54.5t-62 21.5q-10 0 -17 6t-7 15q0 22 24 22q35 0 55 19t20 51q0 30 -19 49t-52 19q-45 0 -69 -39q-10 -17 -23 -17q-21 0 -21 20q0 6 3 13q12 28 41 47t70 19q53 0 85 -30.5t32 -78.5q0 -57 -51 -90v-1
q24 -10 42.5 -36t18.5 -64q0 -53 -34 -86.5t-90 -33.5z" />
    <glyph glyph-name="twothirds" unicode="&#x2154;" horiz-adv-x="963" 
d="M323 274h-206q-24 0 -24 22q0 14 15 30l150 175q34 40 34 76q0 29 -18.5 48t-49.5 19q-55 0 -72 -49q-7 -20 -24 -20q-22 0 -22 20q0 6 2 12q11 34 40 57t75 23q54 0 85 -31.5t31 -78.5q0 -50 -45 -101l-135 -157v-2h164q23 0 23 -21q0 -22 -23 -22zM321 -2
q-7 -12 -19 -12q-21 0 -21 21q0 6 3 12l384 663q7 12 19 12q21 0 21 -21q0 -6 -3 -12zM742 -7q-93 0 -120 70q-3 8 -3 13q0 20 21 20q13 0 23 -17q29 -43 78 -43q35 0 56.5 22t21.5 55t-23 54.5t-62 21.5q-10 0 -17 6t-7 15q0 22 24 22q35 0 55 19t20 51q0 30 -19 49t-52 19
q-45 0 -69 -39q-10 -17 -23 -17q-21 0 -21 20q0 6 3 13q12 28 41 47t70 19q53 0 85 -30.5t32 -78.5q0 -57 -51 -90v-1q24 -10 42.5 -36t18.5 -64q0 -53 -34 -86.5t-90 -33.5z" />
    <glyph glyph-name="oneeighth" unicode="&#x215b;" horiz-adv-x="869" 
d="M200 272q-23 0 -23 26v324h-1l-48 -33q-8 -5 -15 -5q-9 0 -15 6t-6 16q0 12 12 21l61 42q18 13 32 13q27 0 27 -26v-358q0 -26 -24 -26zM642 -7q-57 0 -93.5 33t-36.5 87q0 35 17.5 61.5t44.5 38.5v2q-52 28 -52 86q0 48 33.5 80t86.5 32q52 0 85.5 -32t33.5 -80
q0 -58 -52 -86v-2q27 -12 44.5 -38t17.5 -62q0 -54 -36 -87t-93 -33zM642 233q31 0 52 19.5t21 48.5q0 30 -21 49.5t-52 19.5t-52.5 -19.5t-21.5 -49.5q0 -29 21.5 -48.5t52.5 -19.5zM642 36q37 0 60 21.5t23 56.5t-23 56.5t-60 21.5t-60.5 -22t-23.5 -56t23.5 -56t60.5 -22
zM226 -2q-7 -12 -19 -12q-21 0 -21 21q0 6 3 12l384 663q7 12 19 12q21 0 21 -21q0 -6 -3 -12z" />
    <glyph glyph-name="threeeighths" unicode="&#x215c;" horiz-adv-x="938" 
d="M711 -7q-57 0 -93.5 33t-36.5 87q0 35 17.5 61.5t44.5 38.5v2q-52 28 -52 86q0 48 33.5 80t86.5 32q52 0 85.5 -32t33.5 -80q0 -58 -52 -86v-2q27 -12 44.5 -38t17.5 -62q0 -54 -36 -87t-93 -33zM711 233q31 0 52 19.5t21 48.5q0 30 -21 49.5t-52 19.5t-52.5 -19.5
t-21.5 -49.5q0 -29 21.5 -48.5t52.5 -19.5zM711 36q37 0 60 21.5t23 56.5t-23 56.5t-60 21.5t-60.5 -22t-23.5 -56t23.5 -56t60.5 -22zM295 -2q-7 -12 -19 -12q-21 0 -21 21q0 6 3 12l384 663q7 12 19 12q21 0 21 -21q0 -6 -3 -12zM224 267q-93 0 -120 70q-3 7 -3 13
q0 20 21 20q13 0 23 -17q29 -43 78 -43q35 0 56.5 22t21.5 55t-23 54.5t-62 21.5q-10 0 -17 6t-7 15q0 22 24 22q35 0 55 19t20 51q0 30 -19 49t-52 19q-45 0 -69 -39q-10 -17 -23 -17q-21 0 -21 20q0 6 3 13q12 28 41 47t70 19q53 0 85 -30.5t32 -78.5q0 -57 -51 -90v-1
q24 -10 42.5 -36t18.5 -64q0 -53 -34 -86.5t-90 -33.5z" />
    <glyph glyph-name="fiveeighths" unicode="&#x215d;" horiz-adv-x="930" 
d="M703 -7q-57 0 -93.5 33t-36.5 87q0 35 17.5 61.5t44.5 38.5v2q-52 28 -52 86q0 48 33.5 80t86.5 32q52 0 85.5 -32t33.5 -80q0 -58 -52 -86v-2q27 -12 44.5 -38t17.5 -62q0 -54 -36 -87t-93 -33zM703 233q31 0 52 19.5t21 48.5q0 30 -21 49.5t-52 19.5t-52.5 -19.5
t-21.5 -49.5q0 -29 21.5 -48.5t52.5 -19.5zM703 36q37 0 60 21.5t23 56.5t-23 56.5t-60 21.5t-60.5 -22t-23.5 -56t23.5 -56t60.5 -22zM287 -2q-7 -12 -19 -12q-21 0 -21 21q0 6 3 12l384 663q7 12 19 12q21 0 21 -21q0 -6 -3 -12zM214 267q-82 0 -112 68q-3 7 -3 13
q0 9 6.5 15t16.5 6q13 0 23 -18q23 -41 69 -41q56 0 70 46q5 17 5 49q0 35 -5 49q-15 43 -67 43q-39 0 -60 -27q-14 -20 -30 -20q-23 0 -23 26v182q0 9 6 15.5t15 6.5h183q23 0 23 -22q0 -21 -23 -21h-154q-6 0 -6 -6v-121h1q22 31 74 31q83 0 105 -68q8 -24 8 -68
q0 -40 -9 -67q-25 -71 -113 -71z" />
    <glyph glyph-name="seveneighths" unicode="&#x215e;" horiz-adv-x="856" 
d="M629 -7q-57 0 -93.5 33t-36.5 87q0 35 17.5 61.5t44.5 38.5v2q-52 28 -52 86q0 48 33.5 80t86.5 32q52 0 85.5 -32t33.5 -80q0 -58 -52 -86v-2q27 -12 44.5 -38t17.5 -62q0 -54 -36 -87t-93 -33zM629 233q31 0 52 19.5t21 48.5q0 30 -21 49.5t-52 19.5t-52.5 -19.5
t-21.5 -49.5q0 -29 21.5 -48.5t52.5 -19.5zM629 36q37 0 60 21.5t23 56.5t-23 56.5t-60 21.5t-60.5 -22t-23.5 -56t23.5 -56t60.5 -22zM189 289q-9 -17 -23 -17q-10 0 -16 6t-6 15q0 5 3 13l140 329v2h-139q-6 0 -6 -6v-30q0 -11 -6.5 -18t-16.5 -7t-16.5 7t-6.5 18v57
q0 22 22 22h200q23 0 23 -22q0 -11 -7 -28zM213 -2q-7 -12 -19 -12q-21 0 -21 21q0 6 3 12l384 663q7 12 19 12q21 0 21 -21q0 -6 -3 -12z" />
    <glyph glyph-name="partialdiff" unicode="&#x2202;" horiz-adv-x="538" 
d="M251 -10q-87 0 -139 59t-52 152q0 92 55.5 152.5t140.5 60.5q104 0 168 -86h1q3 137 -41.5 224.5t-134.5 87.5q-54 0 -105 -36q-8 -6 -18 -6t-16.5 7t-6.5 17q0 13 13 23q58 45 133 45q113 0 170.5 -95.5t57.5 -244.5q0 -171 -57.5 -265.5t-168.5 -94.5zM255 41
q74 0 116 61t50 171q-61 92 -156 92q-70 0 -110.5 -43.5t-40.5 -119.5q0 -72 38.5 -116.5t102.5 -44.5z" />
    <glyph glyph-name="product" unicode="&#x220f;" horiz-adv-x="636" 
d="M519 -184q-28 0 -28 30v834q0 6 -6 6h-334q-6 0 -6 -6v-834q0 -30 -28 -30t-28 30v867q0 27 27 27h405q26 0 26 -27v-867q0 -30 -28 -30z" />
    <glyph glyph-name="summation" unicode="&#x2211;" horiz-adv-x="531" 
d="M460 -180h-373q-30 0 -30 26q0 10 13 40l188 436l-184 351q-13 25 -13 40q0 27 29 27h359q29 0 29 -27t-29 -27h-319l174 -331q9 -17 9 -29q0 -14 -7 -29l-182 -423h336q29 0 29 -27t-29 -27z" />
    <glyph glyph-name="minus" unicode="&#x2212;" 
d="M442 251h-352q-28 0 -28 25t28 25h352q28 0 28 -25t-28 -25z" />
    <glyph glyph-name="uni2215" unicode="&#x2215;" horiz-adv-x="151" 
d="M-98 -2q-7 -12 -19 -12q-21 0 -21 21q0 6 3 12l384 663q7 12 19 12q21 0 21 -21q0 -6 -3 -12z" />
    <glyph glyph-name="uni2219" unicode="&#x2219;" horiz-adv-x="220" 
d="M110 220q-18 0 -31 13t-13 31t13 31t31 13t31 -13t13 -31t-13 -31t-31 -13z" />
    <glyph glyph-name="radical" unicode="&#x221a;" horiz-adv-x="616" 
d="M318 -184q-20 0 -34 31l-138 282q-3 6 -9 3l-62 -29q-6 -3 -13 -3q-10 0 -16.5 7t-6.5 17q0 15 18 24l88 44q6 3 12 3q14 0 22 -16l133 -277h3l229 821q6 21 25 21q11 0 18 -6.5t7 -17.5q0 -5 -2 -11l-241 -862q-9 -31 -33 -31z" />
    <glyph glyph-name="infinity" unicode="&#x221e;" horiz-adv-x="769" 
d="M570 89q-48 0 -91.5 29t-94.5 92q-51 -63 -94 -92t-92 -29q-66 0 -108.5 44t-42.5 114t42 113.5t110 43.5q47 0 89.5 -29t95.5 -92q53 64 96 92.5t89 28.5q68 0 110.5 -43t42.5 -114q0 -69 -42.5 -113.5t-109.5 -44.5zM568 134q49 0 79 34t30 80q0 48 -29 80t-80 32
q-36 0 -70.5 -26t-84.5 -88q53 -64 85.5 -88t69.5 -24zM200 134q37 0 71.5 26t83.5 87q-50 62 -84.5 87.5t-70.5 25.5q-50 0 -79 -31.5t-29 -80.5t30.5 -81.5t77.5 -32.5z" />
    <glyph glyph-name="integral" unicode="&#x222b;" horiz-adv-x="382" 
d="M93 -180q-11 0 -19 1q-25 3 -25 25q0 26 36 26q42 0 60.5 26t18.5 88v576q0 94 30 136t95 44q10 0 18 -1q26 -3 26 -25q0 -26 -36 -26q-42 0 -60.5 -26t-18.5 -88v-576q0 -94 -30 -136t-95 -44z" />
    <glyph glyph-name="approxequal" unicode="&#x2248;" 
d="M351 312q-43 0 -97 38q-46 33 -74 33q-43 0 -74 -47q-8 -12 -20 -12q-10 0 -16 6t-6 15q0 8 4 15q42 70 113 70q43 0 97 -38q46 -33 74 -33q43 0 74 47q8 12 20 12q10 0 16 -6t6 -15q0 -8 -4 -15q-42 -70 -113 -70zM351 122q-43 0 -97 38q-46 33 -74 33q-43 0 -74 -47
q-8 -12 -20 -12q-10 0 -16 6t-6 15q0 8 4 15q42 70 113 70q43 0 97 -38q46 -33 74 -33q43 0 74 47q8 12 20 12q10 0 16 -6t6 -15q0 -8 -4 -15q-42 -70 -113 -70z" />
    <glyph glyph-name="notequal" unicode="&#x2260;" 
d="M165 52q-8 -13 -20 -13q-21 0 -21 20q0 6 4 14l45 81h-83q-28 0 -28 25t28 25h111l81 144h-192q-28 0 -28 25t28 25h220l57 102q8 13 20 13q21 0 21 -20q0 -6 -4 -14l-45 -81h83q28 0 28 -25t-28 -25h-111l-81 -144h192q28 0 28 -25t-28 -25h-220z" />
    <glyph glyph-name="lessequal" unicode="&#x2264;" 
d="M433 137l-344 140q-27 11 -27 32t27 32l344 140q6 2 12 2q11 0 18 -6.5t7 -17.5q0 -18 -17 -25l-314 -124v-2l314 -124q17 -7 17 -25q0 -11 -7 -17.5t-18 -6.5q-6 0 -12 2zM442 0h-352q-28 0 -28 25t28 25h352q28 0 28 -25t-28 -25z" />
    <glyph glyph-name="greaterequal" unicode="&#x2265;" 
d="M443 277l-344 -140q-6 -2 -12 -2q-11 0 -18 6.5t-7 17.5q0 18 17 25l314 124v2l-314 124q-17 7 -17 25q0 11 7 17.5t18 6.5q6 0 12 -2l344 -140q27 -11 27 -32t-27 -32zM442 0h-352q-28 0 -28 25t28 25h352q28 0 28 -25t-28 -25z" />
    <glyph glyph-name="lozenge" unicode="&#x25ca;" horiz-adv-x="556" 
d="M278 -56q-20 0 -32 23l-170 346q-4 8 -4 16t4 16l170 346q12 23 32 23t32 -23l170 -346q4 -8 4 -16t-4 -16l-170 -346q-12 -23 -32 -23zM280 15l152 314l-153 314h-2l-153 -314l154 -314h2z" />
    <glyph glyph-name="uniF8FF" unicode="&#xf8ff;" horiz-adv-x="470" 
d="M451 0h-432q-19 0 -19 19v642q0 19 19 19h432q19 0 19 -19v-642q0 -19 -19 -19zM425 37q6 0 6 6v594q0 6 -6 6h-379q-7 0 -7 -6v-594q0 -6 7 -6h379zM225 221q-9 0 -15 6t-6 16v15q0 38 22 66l38 49q22 29 29.5 45t7.5 36q0 31 -20.5 50t-52.5 19q-30 0 -47.5 -15
t-28.5 -48q-5 -15 -19 -15q-20 0 -20 21q0 8 3 16q12 36 41 58t72 22q51 0 82 -31t31 -78q0 -46 -37 -93l-39 -50q-20 -25 -20 -56v-11q0 -10 -6 -16t-15 -6zM225 113q-12 0 -21 8.5t-9 20.5q0 13 9 21.5t21 8.5t21 -8.5t9 -21.5q0 -12 -9 -20.5t-21 -8.5z" />
    <glyph glyph-name="CR" horiz-adv-x="0" 
 />
    <glyph glyph-name="grave.cap" horiz-adv-x="422" 
d="M225 771l-72 83q-6 8 -6 16q0 10 7 17t17 7q11 0 18 -9l72 -85q7 -8 7 -17q0 -10 -6.5 -16.5t-16.5 -6.5q-11 0 -20 11z" />
    <glyph glyph-name="acute.cap" horiz-adv-x="422" 
d="M269 854l-72 -83q-9 -11 -20 -11q-10 0 -16.5 6.5t-6.5 16.5q0 9 7 17l72 85q7 9 18 9q10 0 17 -7t7 -17q0 -8 -6 -16z" />
    <glyph glyph-name="circumflex.cap" horiz-adv-x="422" 
d="M303 751q-9 0 -17 9l-74 90h-2l-74 -90q-8 -9 -17 -9q-8 0 -13.5 5t-5.5 13q0 7 5 14l72 94q18 22 34 22t34 -22l72 -94q5 -7 5 -14q0 -8 -5.5 -13t-13.5 -5z" />
    <glyph glyph-name="caron.cap" horiz-adv-x="422" 
d="M211 750q-16 0 -34 22l-72 94q-5 7 -5 14q0 8 5.5 13t13.5 5q9 0 17 -9l74 -90h2l74 90q8 9 17 9q8 0 13.5 -5t5.5 -13q0 -7 -5 -14l-72 -94q-18 -22 -34 -22z" />
    <glyph glyph-name="caron.alt" horiz-adv-x="422" 
d="M230 556q-8 -21 -26 -21q-11 0 -18.5 7t-7.5 18q0 6 2 12l29 91q8 21 26 21q12 0 19.5 -7t7.5 -18q0 -6 -2 -12z" />
    <glyph glyph-name="tilde.cap" horiz-adv-x="422" 
d="M265 780q-27 0 -61 22q-29 19 -46 19q-20 0 -38 -26q-8 -12 -20 -12q-21 0 -21 20q0 7 4 14q30 49 75 49q27 0 61 -22q29 -19 46 -19q20 0 38 26q7 12 20 12q21 0 21 -20q0 -7 -4 -14q-30 -49 -75 -49z" />
    <glyph glyph-name="dieresis.cap" horiz-adv-x="421" 
d="M310 786q-16 0 -27 11t-11 27t11 27.5t27 11.5t27 -11.5t11 -27.5t-11 -27t-27 -11zM111 786q-16 0 -27 11t-11 27t11 27.5t27 11.5t27.5 -11.5t11.5 -27.5t-11.5 -27t-27.5 -11z" />
    <glyph glyph-name="macron.cap" horiz-adv-x="422" 
d="M322 800h-222q-11 0 -18 6.5t-7 16.5t7 16.5t18 6.5h222q11 0 18 -6.5t7 -16.5t-7 -16.5t-18 -6.5z" />
    <glyph glyph-name="breve.cap" horiz-adv-x="422" 
d="M211 768q-54 0 -88.5 31t-34.5 67q0 18 19 18q15 0 21 -19q19 -53 83 -53t83 53q6 19 21 19q19 0 19 -18q0 -36 -34.5 -67t-88.5 -31z" />
    <glyph glyph-name="ring.cap" horiz-adv-x="422" 
d="M298 826q0 -38 -25 -63t-63 -25t-63 25t-25 63t25 63t63 25t63 -25t25 -63zM263 826q0 24 -14.5 40t-38.5 16t-38.5 -16t-14.5 -40t14.5 -40t38.5 -16t38.5 16t14.5 40z" />
    <glyph glyph-name="hungarumlaut.cap" horiz-adv-x="422" 
d="M265 768q-9 -12 -20 -12q-9 0 -15.5 6t-6.5 16q0 8 6 17l57 84q9 12 21 12q10 0 16.5 -6t6.5 -16q0 -8 -6 -17zM142 768q-9 -12 -20 -12q-9 0 -15.5 6t-6.5 16q0 8 6 17l57 84q9 12 21 12q10 0 16.5 -6t6.5 -16q0 -8 -6 -17z" />
    <glyph glyph-name="dotaccent.cap" horiz-adv-x="422" 
d="M211 781q-17 0 -29.5 12.5t-12.5 29.5t12.5 29.5t29.5 12.5t29.5 -12.5t12.5 -29.5t-12.5 -29.5t-29.5 -12.5z" />
    <glyph glyph-name="commaaccent" horiz-adv-x="422" 
d="M226 -173q-6 -22 -26 -22q-12 0 -20 7.5t-8 18.5q0 4 2 12l27 85q6 22 26 22q12 0 20 -7.5t8 -18.5q0 -4 -2 -12z" />
    <glyph glyph-name="commaaccent.alt" horiz-adv-x="422" 
d="M228 591q-6 -22 -26 -22q-12 0 -20 7.5t-8 18.5q0 4 2 12l27 85q6 22 26 22q12 0 20 -7.5t8 -18.5q0 -4 -2 -12z" />
    <glyph glyph-name="uni0394" horiz-adv-x="596" 
d="M529 0h-463q-27 0 -27 24q0 7 6 25l218 605q11 30 36 30t36 -30l216 -605q6 -18 6 -25q0 -24 -28 -24zM482 55q8 0 5 8l-187 525h-3l-188 -525q-3 -8 5 -8h368z" />
    <glyph glyph-name="uni03A9" horiz-adv-x="612" 
d="M306 636q-128 0 -166 -119q-17 -52 -17 -177q0 -121 27 -182.5t88 -93.5q19 -9 25 -16.5t6 -20.5q0 -27 -29 -27h-141q-29 0 -29 27t29 27h65v2q-99 55 -99 284q0 131 20 194q51 156 221 156t221 -156q20 -62 20 -194q0 -229 -99 -284v-2h65q29 0 29 -27t-29 -27h-141
q-29 0 -29 27q0 13 6 20.5t25 16.5q61 32 88 93.5t27 182.5q0 125 -17 177q-38 119 -166 119z" />
    <glyph glyph-name="uni03BC" horiz-adv-x="543" 
d="M424 -4q-27 0 -27 29v42h-1q-17 -36 -52 -56.5t-82 -20.5q-82 0 -115 51h-1v-196q0 -29 -27 -29t-27 29v607q0 29 27 29t27 -29v-267q0 -143 123 -143q55 0 91.5 36.5t36.5 96.5v277q0 29 27 29t27 -29v-427q0 -29 -27 -29z" />
    <glyph glyph-name="zero.onum" 
d="M266 -10q-105 0 -172 70.5t-67 177.5t67 178t172 71t172 -71t67 -178t-67 -177.5t-172 -70.5zM266 42q82 0 133.5 56.5t51.5 139.5t-51.5 140t-133.5 57t-133.5 -57t-51.5 -140t51.5 -139.5t133.5 -56.5z" />
    <glyph glyph-name="one.onum" 
d="M300 -4q-27 0 -27 29v386h-2l-115 -49q-8 -3 -13 -3q-12 0 -19.5 7.5t-7.5 19.5q0 17 19 26l123 56q29 13 41 13q28 0 28 -29v-427q0 -29 -27 -29z" />
    <glyph glyph-name="two.onum" 
d="M428 0h-327q-13 0 -20 7.5t-7 17.5q0 18 22 32l190 123q62 39 86.5 70t24.5 72q0 49 -35.5 81t-95.5 32q-99 0 -132 -88q-9 -26 -29 -26q-10 0 -17.5 6.5t-7.5 17.5q0 8 3 17q19 56 66.5 90.5t116.5 34.5q86 0 135.5 -48t49.5 -118q0 -54 -29 -93.5t-96 -81.5l-147 -92
v-2h249q27 0 27 -26t-27 -26z" />
    <glyph glyph-name="three.onum" 
d="M260 -190q-69 0 -118.5 35t-65.5 89q-2 6 -2 12q0 25 27 25q15 0 25 -21q40 -88 134 -88q65 0 103 40.5t38 108.5q0 70 -41.5 109t-123.5 39q-32 0 -32 29q0 17 18 40l147 195v2h-264q-27 0 -27 26t27 26h308q30 0 30 -26q0 -14 -16 -35l-156 -205v-2q85 -5 134.5 -57.5
t49.5 -140.5q0 -90 -54 -145.5t-141 -55.5z" />
    <glyph glyph-name="four.onum" 
d="M365 -184q-27 0 -27 29v149q0 6 -6 6h-248q-26 0 -26 25q0 12 10 32l192 405q9 19 25 19q11 0 18.5 -6.5t7.5 -16.5q0 -6 -3 -14l-184 -391v-1h208q6 0 6 6v168q0 29 27 29t27 -29v-168q0 -6 5 -6h62q27 0 27 -26t-27 -26h-62q-5 0 -5 -6v-149q0 -29 -27 -29z" />
    <glyph glyph-name="five.onum" 
d="M276 -190q-70 0 -116 35t-62 91q-2 6 -2 12q0 24 26 24q18 0 26 -24q31 -86 128 -86q42 0 74 20t44 57q11 36 11 91q0 54 -13 90q-27 78 -114 78q-66 0 -112 -67q-20 -29 -36 -29q-25 0 -25 28v322q0 25 25 25h292q28 0 28 -26t-28 -26h-259q-6 0 -6 -6v-229h1
q15 24 48 42t76 18q60 0 102 -28t59 -81q16 -50 16 -111q0 -64 -14 -106q-18 -54 -62.5 -84t-106.5 -30z" />
    <glyph glyph-name="six.onum" 
d="M266 -10q-88 0 -143.5 56t-55.5 149q0 67 45 153l164 320q8 16 24 16q12 0 19.5 -7.5t7.5 -18.5q0 -8 -4 -16l-139 -265l2 -3q27 25 87 25q84 0 138 -56t54 -146q0 -95 -55.5 -151t-143.5 -56zM266 42q64 0 104.5 42.5t40.5 109.5t-40.5 110t-104.5 43t-104.5 -43
t-40.5 -110t40.5 -109.5t104.5 -42.5z" />
    <glyph glyph-name="seven.onum" 
d="M223 -166q-7 -18 -25 -18q-11 0 -18.5 7t-7.5 18q0 5 2 11l226 570v3h-246q-6 0 -6 -7v-77q0 -29 -27 -29t-27 29v111q0 25 25 25h319q27 0 27 -25q0 -11 -8 -30z" />
    <glyph glyph-name="eight.onum" 
d="M266 -10q-88 0 -144 54.5t-56 139.5q0 61 29.5 106.5t79.5 66.5v2q-41 20 -66 60t-25 92q0 77 50.5 128t131.5 51t131.5 -51t50.5 -128q0 -52 -25 -92t-66 -60v-2q50 -21 79.5 -66.5t29.5 -106.5q0 -85 -56 -139.5t-144 -54.5zM266 384q57 0 92.5 36t35.5 91t-35.5 91
t-92.5 36t-92.5 -36t-35.5 -91t35 -91t93 -36zM266 42q66 0 106 40.5t40 103.5q0 64 -40.5 105t-105.5 41t-105.5 -41t-40.5 -105q0 -63 40 -103.5t106 -40.5z" />
    <glyph glyph-name="nine.onum" 
d="M243 -184q-12 0 -19.5 7.5t-7.5 18.5q0 8 4 16l128 242l-2 3q-27 -25 -87 -25q-84 0 -138 56t-54 146q0 95 55.5 151t143.5 56t143.5 -56t55.5 -149q0 -67 -45 -153l-153 -297q-8 -16 -24 -16zM266 130q64 0 104.5 43t40.5 110t-40.5 109.5t-104.5 42.5t-104.5 -42.5
t-40.5 -109.5t40.5 -110t104.5 -43z" />
    <glyph glyph-name="zero.prop" 
d="M91 112q-15 45 -15 228t15 228q19 59 64.5 90.5t110.5 31.5t110.5 -31.5t64.5 -90.5q15 -45 15 -228t-15 -228q-19 -59 -64.5 -90.5t-110.5 -31.5t-110.5 31.5t-64.5 90.5zM144 124q28 -83 122 -83t122 83q14 44 14 216t-14 216q-28 83 -122 83t-122 -83
q-14 -44 -14 -216t14 -216z" />
    <glyph glyph-name="one.prop" horiz-adv-x="360" 
d="M183 25v582h-2l-100 -68q-8 -5 -18 -5q-9 0 -16 6.5t-7 16.5q0 14 15 25l116 83q27 19 39 19q27 0 27 -28v-631q0 -29 -27 -29t-27 29z" />
    <glyph glyph-name="two.prop" horiz-adv-x="491" 
d="M58 25q0 16 16 36l243 317q55 73 55 133q0 56 -36 91.5t-93 35.5q-102 0 -127 -101q-4 -24 -25 -24q-27 0 -27 26q0 5 2 13q11 54 57 96t121 42q82 0 132 -50t50 -129q0 -78 -68 -165l-226 -292v-2h270q27 0 27 -26t-27 -26h-317q-27 0 -27 25z" />
    <glyph glyph-name="three.prop" horiz-adv-x="504" 
d="M63 115q-2 6 -2 12q0 24 26 24q16 0 26 -24q39 -85 136 -85q64 0 101.5 39.5t37.5 101.5q0 64 -39.5 104.5t-104.5 40.5h-15q-28 0 -28 26t28 26h15q58 0 94 36.5t36 94.5q0 57 -35 92t-94 35q-91 0 -125 -81q-9 -24 -26 -24q-26 0 -26 24q0 6 2 12q15 51 60.5 86
t115.5 35q82 0 132 -49.5t50 -128.5q0 -103 -91 -153v-2q41 -16 73 -60.5t32 -111.5q0 -86 -54 -140.5t-139 -54.5q-75 0 -122 35.5t-64 89.5z" />
    <glyph glyph-name="four.prop" horiz-adv-x="524" 
d="M75 136q-26 0 -26 24q0 14 11 37l214 467q9 20 25 20q25 0 25 -24q0 -6 -3 -14l-207 -456v-2h210q6 0 6 6v171q0 29 27 29t27 -29v-171q0 -6 6 -6h61q28 0 28 -26t-28 -26h-61q-6 0 -6 -6v-105q0 -29 -27 -29t-27 29v105q0 6 -6 6h-249z" />
    <glyph glyph-name="five.prop" horiz-adv-x="512" 
d="M87 116q-2 6 -2 12q0 24 26 24q18 0 26 -24q31 -86 128 -86q42 0 74 20t44 57q11 36 11 99t-13 99q-27 78 -114 78q-66 0 -112 -67q-20 -29 -36 -29q-25 0 -25 28v328q0 25 25 25h292q28 0 28 -26t-28 -26h-259q-6 0 -6 -6v-235h1q15 24 48 42t76 18q60 0 102 -28t59 -81
q16 -50 16 -120q0 -72 -14 -114q-18 -54 -62.5 -84t-106.5 -30q-70 0 -115.5 34t-62.5 92z" />
    <glyph glyph-name="six.prop" horiz-adv-x="522" 
d="M62 195q0 67 45 153l164 320q8 16 24 16q12 0 19.5 -7.5t7.5 -18.5q0 -8 -4 -16l-139 -265l2 -3q27 25 87 25q84 0 138 -56t54 -146q0 -95 -55.5 -151t-143.5 -56t-143.5 56t-55.5 149zM116 194q0 -67 40.5 -109.5t104.5 -42.5t104.5 42.5t40.5 109.5t-40.5 110
t-104.5 43t-104.5 -43t-40.5 -110z" />
    <glyph glyph-name="seven.prop" horiz-adv-x="492" 
d="M147 21q0 5 2 11l235 593v3h-246q-6 0 -6 -7v-77q0 -29 -27 -29t-27 29v111q0 25 25 25h319q27 0 27 -25q0 -11 -8 -30l-243 -611q-8 -18 -25 -18q-11 0 -18.5 7t-7.5 18z" />
    <glyph glyph-name="eight.prop" horiz-adv-x="524" 
d="M62 184q0 61 29.5 106.5t79.5 66.5v2q-41 20 -66 60t-25 92q0 77 50.5 128t131.5 51t131.5 -51t50.5 -128q0 -52 -25 -92t-66 -60v-2q50 -21 79.5 -66.5t29.5 -106.5q0 -85 -56 -139.5t-144 -54.5t-144 54.5t-56 139.5zM262 384q57 0 92.5 36t35.5 91t-35.5 91t-92.5 36
t-92.5 -36t-35.5 -91t35 -91t93 -36zM116 186q0 -63 40 -103.5t106 -40.5t106 40.5t40 103.5q0 64 -40.5 105t-105.5 41t-105.5 -41t-40.5 -105z" />
    <glyph glyph-name="nine.prop" horiz-adv-x="522" 
d="M200 22q0 8 4 16l139 265l-2 3q-27 -25 -87 -25q-84 0 -138 56t-54 146q0 95 55.5 151t143.5 56t143.5 -56t55.5 -149q0 -67 -45 -153l-164 -320q-8 -16 -24 -16q-12 0 -19.5 7.5t-7.5 18.5zM261 333q64 0 104.5 43t40.5 110t-40.5 109.5t-104.5 42.5t-104.5 -42.5
t-40.5 -109.5t40.5 -110t104.5 -43z" />
    <glyph glyph-name="Euro.prop" horiz-adv-x="527" 
d="M299 -10q-139 0 -180 127q-14 43 -14 136q0 6 -6 6h-34q-25 0 -25 22q0 23 25 23h34q6 0 6 6v66q0 6 -6 6h-34q-25 0 -25 23q0 22 25 22h34q6 0 6 6q0 87 14 130q41 127 180 127q62 0 105.5 -29t64.5 -75q3 -6 3 -13q0 -11 -7 -18t-17 -7q-16 0 -26 18q-41 72 -123 72
q-99 0 -127 -88q-12 -38 -12 -117q0 -6 6 -6h203q25 0 25 -22q0 -23 -25 -23h-203q-6 0 -6 -6v-66q0 -6 6 -6h163q25 0 25 -23q0 -22 -25 -22h-163q-6 0 -6 -6q0 -85 12 -123q28 -88 127 -88q82 0 123 72q10 18 26 18q10 0 17 -7t7 -18q0 -7 -3 -13q-21 -46 -64.5 -75
t-105.5 -29z" />
    <glyph glyph-name="cent.prop" horiz-adv-x="475" 
d="M129 131q23 -75 102 -87v388q-78 -11 -102 -86q-14 -42 -14 -108q0 -65 14 -107zM231 -85v77q-58 6 -97.5 38t-56.5 84q-17 53 -17 124q0 72 17 125q17 52 56.5 84t97.5 38v76q0 21 19 21t19 -21v-75q51 -1 88.5 -24.5t56.5 -57.5q4 -7 4 -16q0 -10 -7 -17t-17 -7
q-15 0 -25 15q-36 51 -100 55v-392q65 5 100 56q10 15 25 15q10 0 17 -7t7 -17q0 -9 -4 -16q-42 -78 -145 -82v-76q0 -21 -19 -21t-19 21z" />
    <glyph glyph-name="dollar.prop" horiz-adv-x="531" 
d="M77 41q-13 7 -13 23q0 26 26 26q8 0 15 -4q65 -40 145 -44v277q-87 13 -131 61.5t-44 120.5q0 81 48.5 131.5t126.5 56.5v43q0 23 19 23q20 0 20 -23v-43q70 -4 130 -36q14 -8 14 -24q0 -11 -7 -18t-18 -7q-8 0 -18 5q-52 25 -101 28v-268q90 -12 135.5 -59.5
t45.5 -122.5q0 -82 -48 -135t-133 -60v-44q0 -23 -20 -23q-19 0 -19 23v42q-95 3 -173 51zM250 374v263q-56 -5 -89 -40.5t-33 -91.5q0 -110 122 -131zM289 43q61 7 94.5 43.5t33.5 97.5q0 110 -128 130v-271z" />
    <glyph glyph-name="sterling.prop" horiz-adv-x="469" 
d="M396 0h-301q-27 0 -27 25q0 16 20 39q17 19 22.5 37t5.5 52v137q0 6 -6 6h-38q-25 0 -25 24t25 24h38q6 0 6 6v169q0 81 41 126t110 45q108 0 141 -103q2 -8 2 -13q0 -11 -7.5 -17.5t-18.5 -6.5q-18 0 -28 24q-27 64 -89 64q-45 0 -71 -28t-26 -84v-176q0 -6 7 -6h123
q26 0 26 -24t-26 -24h-123q-7 0 -7 -6v-130q0 -72 -32 -107v-1h258q27 0 27 -26t-27 -26z" />
    <glyph glyph-name="florin.prop" horiz-adv-x="474" 
d="M373 347h-95l-60 -385q-13 -80 -45 -111t-100 -31h-6q-27 0 -27 26t27 26q48 0 69 18t29 69l60 388h-74q-26 0 -26 24t26 24h82l22 143q13 80 45.5 111t99.5 31h6q28 0 28 -26t-28 -26q-48 0 -69 -18t-29 -69l-23 -146h88q26 0 26 -24t-26 -24z" />
    <glyph glyph-name="yen.prop" horiz-adv-x="510" 
d="M255 -4q-27 0 -27 29v130q0 6 -6 6h-120q-26 0 -26 22q0 23 26 23h120q6 0 6 6v60q0 6 -6 6h-120q-26 0 -26 22q0 23 26 23h108v1l-150 319q-4 8 -4 16q0 10 7.5 17.5t19.5 7.5q16 0 24 -17l148 -324h2l146 324q8 17 24 17q12 0 19.5 -7.5t7.5 -17.5q0 -8 -4 -16
l-150 -319v-1h108q26 0 26 -23q0 -22 -26 -22h-120q-6 0 -6 -6v-60q0 -6 6 -6h120q26 0 26 -23q0 -22 -26 -22h-120q-6 0 -6 -6v-130q0 -29 -27 -29z" />
    <glyph glyph-name="zero.onumprop" horiz-adv-x="598" 
d="M299 -10q-105 0 -172 70.5t-67 177.5t67 178t172 71t172 -71t67 -178t-67 -177.5t-172 -70.5zM299 42q82 0 133.5 56.5t51.5 139.5t-51.5 140t-133.5 57t-133.5 -57t-51.5 -140t51.5 -139.5t133.5 -56.5z" />
    <glyph glyph-name="one.onumprop" horiz-adv-x="360" 
d="M214 -4q-27 0 -27 29v386h-2l-115 -49q-8 -3 -13 -3q-12 0 -19.5 7.5t-7.5 19.5q0 17 19 26l123 56q29 13 41 13q28 0 28 -29v-427q0 -29 -27 -29z" />
    <glyph glyph-name="two.onumprop" horiz-adv-x="500" 
d="M412 0h-327q-13 0 -20 7.5t-7 17.5q0 18 22 32l190 123q62 39 86.5 70t24.5 72q0 49 -35.5 81t-95.5 32q-99 0 -132 -88q-9 -26 -29 -26q-10 0 -17.5 6.5t-7.5 17.5q0 8 3 17q19 56 66.5 90.5t116.5 34.5q86 0 135.5 -48t49.5 -118q0 -54 -29 -93.5t-96 -81.5l-147 -92
v-2h249q27 0 27 -26t-27 -26z" />
    <glyph glyph-name="three.onumprop" horiz-adv-x="496" 
d="M241 -190q-69 0 -118.5 35t-65.5 89q-2 6 -2 12q0 25 27 25q15 0 25 -21q40 -88 134 -88q65 0 103 40.5t38 108.5q0 70 -41.5 109t-123.5 39q-32 0 -32 29q0 17 18 40l147 195v2h-264q-27 0 -27 26t27 26h308q30 0 30 -26q0 -14 -16 -35l-156 -205v-2q85 -5 134.5 -57.5
t49.5 -140.5q0 -90 -54 -145.5t-141 -55.5z" />
    <glyph glyph-name="four.onumprop" horiz-adv-x="511" 
d="M351 -184q-27 0 -27 29v149q0 6 -6 6h-248q-26 0 -26 25q0 12 10 32l192 405q9 19 25 19q11 0 18.5 -6.5t7.5 -16.5q0 -6 -3 -14l-184 -391v-1h208q6 0 6 6v168q0 29 27 29t27 -29v-168q0 -6 5 -6h62q27 0 27 -26t-27 -26h-62q-5 0 -5 -6v-149q0 -29 -27 -29z" />
    <glyph glyph-name="five.onumprop" horiz-adv-x="505" 
d="M261 -190q-69 0 -115.5 35t-62.5 91q-2 6 -2 12q0 24 26 24q18 0 26 -24q31 -86 128 -86q42 0 74 20t44 57q11 36 11 91q0 54 -13 90q-27 78 -114 78q-66 0 -112 -67q-20 -29 -36 -29q-25 0 -25 28v322q0 25 25 25h292q28 0 28 -26t-28 -26h-259q-6 0 -6 -6v-229h1
q15 24 48 42t76 18q60 0 102 -28t59 -81q16 -50 16 -111q0 -64 -14 -106q-18 -54 -62.5 -84t-106.5 -30z" />
    <glyph glyph-name="six.onumprop" horiz-adv-x="522" 
d="M261 -10q-88 0 -143.5 56t-55.5 149q0 67 45 153l164 320q8 16 24 16q12 0 19.5 -7.5t7.5 -18.5q0 -8 -4 -16l-139 -265l2 -3q27 25 87 25q84 0 138 -56t54 -146q0 -95 -55.5 -151t-143.5 -56zM261 42q64 0 104.5 42.5t40.5 109.5t-40.5 110t-104.5 43t-104.5 -43
t-40.5 -110t40.5 -109.5t104.5 -42.5z" />
    <glyph glyph-name="seven.onumprop" horiz-adv-x="490" 
d="M207 -166q-7 -18 -25 -18q-11 0 -18.5 7t-7.5 18q0 5 2 11l226 570v3h-246q-6 0 -6 -7v-77q0 -29 -27 -29t-27 29v111q0 25 25 25h319q27 0 27 -25q0 -11 -8 -30z" />
    <glyph glyph-name="eight.onumprop" horiz-adv-x="524" 
d="M262 -10q-88 0 -144 54.5t-56 139.5q0 61 29.5 106.5t79.5 66.5v2q-41 20 -66 60t-25 92q0 77 50.5 128t131.5 51t131.5 -51t50.5 -128q0 -52 -25 -92t-66 -60v-2q50 -21 79.5 -66.5t29.5 -106.5q0 -85 -56 -139.5t-144 -54.5zM262 384q57 0 92.5 36t35.5 91t-35.5 91
t-92.5 36t-92.5 -36t-35.5 -91t35 -91t93 -36zM262 42q66 0 106 40.5t40 103.5q0 64 -40.5 105t-105.5 41t-105.5 -41t-40.5 -105q0 -63 40 -103.5t106 -40.5z" />
    <glyph glyph-name="nine.onumprop" horiz-adv-x="522" 
d="M238 -184q-12 0 -19.5 7.5t-7.5 18.5q0 8 4 16l128 242l-2 3q-27 -25 -87 -25q-84 0 -138 56t-54 146q0 95 55.5 151t143.5 56t143.5 -56t55.5 -149q0 -67 -45 -153l-153 -297q-8 -16 -24 -16zM261 130q64 0 104.5 43t40.5 110t-40.5 109.5t-104.5 42.5t-104.5 -42.5
t-40.5 -109.5t40.5 -110t104.5 -43z" />
    <glyph glyph-name="one.superior" horiz-adv-x="331" 
d="M182 428q-23 0 -23 26v324h-1l-48 -33q-8 -5 -15 -5q-9 0 -15 6t-6 16q0 12 12 21l61 42q18 13 32 13q27 0 27 -26v-358q0 -26 -24 -26z" />
    <glyph glyph-name="two.superior" horiz-adv-x="331" 
d="M269 430h-206q-24 0 -24 22q0 14 15 30l150 175q34 40 34 76q0 29 -18.5 48t-49.5 19q-55 0 -72 -49q-7 -20 -24 -20q-22 0 -22 20q0 6 2 12q11 34 39.5 57t75.5 23q54 0 85 -31.5t31 -78.5q0 -50 -45 -101l-135 -157v-2h164q23 0 23 -21q0 -22 -23 -22z" />
    <glyph glyph-name="three.superior" horiz-adv-x="331" 
d="M167 423q-93 0 -120 70q-3 7 -3 13q0 20 21 20q13 0 23 -17q29 -43 78 -43q35 0 56.5 22t21.5 55t-23 54.5t-62 21.5q-10 0 -17 6t-7 15q0 22 24 22q35 0 55 19t20 51q0 30 -19 49t-52 19q-45 0 -69 -39q-10 -17 -23 -17q-21 0 -21 20q0 6 3 13q12 28 41 47t70 19
q53 0 85 -30.5t32 -78.5q0 -57 -51 -90v-1q24 -10 42.5 -36t18.5 -64q0 -53 -34 -86.5t-90 -33.5z" />
    <glyph glyph-name="a.alt01" horiz-adv-x="531" 
d="M412 -4q-27 0 -27 29v35h-1q-39 -70 -143 -70q-60 0 -102.5 30.5t-61.5 87.5q-17 55 -17 131q0 75 17 130q19 57 61.5 87.5t102.5 30.5q104 0 143 -70h1v35q0 29 27 29t27 -29v-427q0 -29 -27 -29zM250 42q95 0 123 83q12 39 12 114q0 74 -12 113q-28 83 -123 83
q-93 0 -122 -86q-13 -40 -13 -110q0 -71 13 -111q29 -86 122 -86z" />
    <glyph glyph-name="agrave.alt01" horiz-adv-x="531" 
d="M412 -4q-27 0 -27 29v35h-1q-39 -70 -143 -70q-60 0 -102.5 30.5t-61.5 87.5q-17 55 -17 131q0 75 17 130q19 57 61.5 87.5t102.5 30.5q104 0 143 -70h1v35q0 29 27 29t27 -29v-427q0 -29 -27 -29zM250 42q95 0 123 83q12 39 12 114q0 74 -12 113q-28 83 -123 83
q-93 0 -122 -86q-13 -40 -13 -110q0 -71 13 -111q29 -86 122 -86zM256 554q-11 0 -18 11l-65 101q-5 8 -5 16q0 9 6.5 15.5t16.5 6.5q13 0 21 -13l62 -100q5 -8 5 -15q0 -22 -23 -22z" />
    <glyph glyph-name="aacute.alt01" horiz-adv-x="531" 
d="M412 -4q-27 0 -27 29v35h-1q-39 -70 -143 -70q-60 0 -102.5 30.5t-61.5 87.5q-17 55 -17 131q0 75 17 130q19 57 61.5 87.5t102.5 30.5q104 0 143 -70h1v35q0 29 27 29t27 -29v-427q0 -29 -27 -29zM250 42q95 0 123 83q12 39 12 114q0 74 -12 113q-28 83 -123 83
q-93 0 -122 -86q-13 -40 -13 -110q0 -71 13 -111q29 -86 122 -86zM266 565q-7 -11 -18 -11q-23 0 -23 22q0 7 5 15l62 100q8 13 21 13q10 0 16.5 -6.5t6.5 -15.5q0 -8 -5 -16z" />
    <glyph glyph-name="acircumflex.alt01" horiz-adv-x="531" 
d="M412 -4q-27 0 -27 29v35h-1q-39 -70 -143 -70q-60 0 -102.5 30.5t-61.5 87.5q-17 55 -17 131q0 75 17 130q19 57 61.5 87.5t102.5 30.5q104 0 143 -70h1v35q0 29 27 29t27 -29v-427q0 -29 -27 -29zM250 42q95 0 123 83q12 39 12 114q0 74 -12 113q-28 83 -123 83
q-93 0 -122 -86q-13 -40 -13 -110q0 -71 13 -111q29 -86 122 -86zM347 554q-9 0 -17 9l-74 90h-2l-74 -90q-8 -9 -17 -9q-8 0 -13.5 5t-5.5 13q0 7 5 14l72 94q17 22 34 22t34 -22l72 -94q5 -7 5 -14q0 -8 -5.5 -13t-13.5 -5z" />
    <glyph glyph-name="atilde.alt01" horiz-adv-x="531" 
d="M412 -4q-27 0 -27 29v35h-1q-39 -70 -143 -70q-60 0 -102.5 30.5t-61.5 87.5q-17 55 -17 131q0 75 17 130q19 57 61.5 87.5t102.5 30.5q104 0 143 -70h1v35q0 29 27 29t27 -29v-427q0 -29 -27 -29zM250 42q95 0 123 83q12 39 12 114q0 74 -12 113q-28 83 -123 83
q-93 0 -122 -86q-13 -40 -13 -110q0 -71 13 -111q29 -86 122 -86zM310 595q-27 0 -61 22q-29 19 -46 19q-20 0 -38 -26q-7 -12 -20 -12q-21 0 -21 20q0 7 4 14q30 49 75 49q27 0 61 -22q29 -19 46 -19q20 0 38 26q8 12 20 12q21 0 21 -20q0 -7 -4 -14q-30 -49 -75 -49z" />
    <glyph glyph-name="adieresis.alt01" horiz-adv-x="531" 
d="M412 -4q-27 0 -27 29v35h-1q-39 -70 -143 -70q-60 0 -102.5 30.5t-61.5 87.5q-17 55 -17 131q0 75 17 130q19 57 61.5 87.5t102.5 30.5q104 0 143 -70h1v35q0 29 27 29t27 -29v-427q0 -29 -27 -29zM250 42q95 0 123 83q12 39 12 114q0 74 -12 113q-28 83 -123 83
q-93 0 -122 -86q-13 -40 -13 -110q0 -71 13 -111q29 -86 122 -86zM355 603q-16 0 -27 11t-11 27t11 27.5t27 11.5t27 -11.5t11 -27.5t-11 -27t-27 -11zM156 603q-16 0 -27 11t-11 27t11 27.5t27 11.5t27.5 -11.5t11.5 -27.5t-11.5 -27t-27.5 -11z" />
    <glyph glyph-name="amacron.alt01" horiz-adv-x="531" 
d="M412 -4q-27 0 -27 29v35h-1q-39 -70 -143 -70q-60 0 -102.5 30.5t-61.5 87.5q-17 55 -17 131q0 75 17 130q19 57 61.5 87.5t102.5 30.5q104 0 143 -70h1v35q0 29 27 29t27 -29v-427q0 -29 -27 -29zM250 42q95 0 123 83q12 39 12 114q0 74 -12 113q-28 83 -123 83
q-93 0 -122 -86q-13 -40 -13 -110q0 -71 13 -111q29 -86 122 -86zM366 618h-222q-11 0 -18 6.5t-7 16.5t7 16.5t18 6.5h222q11 0 18 -6.5t7 -16.5t-7 -16.5t-18 -6.5z" />
    <glyph glyph-name="abreve.alt01" horiz-adv-x="531" 
d="M412 -4q-27 0 -27 29v35h-1q-39 -70 -143 -70q-60 0 -102.5 30.5t-61.5 87.5q-17 55 -17 131q0 75 17 130q19 57 61.5 87.5t102.5 30.5q104 0 143 -70h1v35q0 29 27 29t27 -29v-427q0 -29 -27 -29zM250 42q95 0 123 83q12 39 12 114q0 74 -12 113q-28 83 -123 83
q-93 0 -122 -86q-13 -40 -13 -110q0 -71 13 -111q29 -86 122 -86zM250 570q-54 0 -88.5 31t-34.5 67q0 18 19 18q15 0 21 -19q19 -53 83 -53t83 53q6 19 21 19q19 0 19 -18q0 -36 -34.5 -67t-88.5 -31z" />
    <glyph glyph-name="aring.alt01" horiz-adv-x="531" 
d="M412 -4q-27 0 -27 29v35h-1q-39 -70 -143 -70q-60 0 -102.5 30.5t-61.5 87.5q-17 55 -17 131q0 75 17 130q19 57 61.5 87.5t102.5 30.5q104 0 143 -70h1v35q0 29 27 29t27 -29v-427q0 -29 -27 -29zM250 42q95 0 123 83q12 39 12 114q0 74 -12 113q-28 83 -123 83
q-93 0 -122 -86q-13 -40 -13 -110q0 -71 13 -111q29 -86 122 -86zM339 629q0 -38 -25 -63t-63 -25t-63 25t-25 63t25 63t63 25t63 -25t25 -63zM304 629q0 24 -14.5 40t-38.5 16t-38.5 -16t-14.5 -40t14.5 -40t38.5 -16t38.5 16t14.5 40z" />
    <glyph glyph-name="aringacute.alt01" horiz-adv-x="531" 
d="M412 -4q-27 0 -27 29v35h-1q-39 -70 -143 -70q-60 0 -102.5 30.5t-61.5 87.5q-17 55 -17 131q0 75 17 130q19 57 61.5 87.5t102.5 30.5q104 0 143 -70h1v35q0 29 27 29t27 -29v-427q0 -29 -27 -29zM250 42q95 0 123 83q12 39 12 114q0 74 -12 113q-28 83 -123 83
q-93 0 -122 -86q-13 -40 -13 -110q0 -71 13 -111q29 -86 122 -86zM339 629q0 -38 -25 -63t-63 -25t-63 25t-25 63t25 63t63 25t63 -25t25 -63zM304 629q0 24 -14.5 40t-38.5 16t-38.5 -16t-14.5 -40t14.5 -40t38.5 -16t38.5 16t14.5 40zM351 854l-72 -83q-9 -11 -20 -11
q-10 0 -16.5 6.5t-6.5 16.5q0 9 7 17l72 85q7 9 18 9q10 0 17 -7t7 -17q0 -8 -6 -16z" />
    <glyph glyph-name="aogonek.alt01" horiz-adv-x="531" 
d="M371 -172q-32 0 -51 18t-19 50q0 56 84 117v47h-1q-39 -70 -143 -70q-60 0 -102.5 30.5t-61.5 87.5q-17 55 -17 131q0 75 17 130q19 57 61.5 87.5t102.5 30.5q104 0 143 -70h1v35q0 29 27 29t27 -29v-427q0 -20 -21 -36q-68 -52 -68 -86q0 -28 29 -28q11 0 21 5q8 4 13 4
q21 0 21 -22q0 -11 -11 -19q-22 -15 -52 -15zM250 42q95 0 123 83q12 39 12 114q0 74 -12 113q-28 83 -123 83q-93 0 -122 -86q-13 -40 -13 -110q0 -71 13 -111q29 -86 122 -86z" />
    <glyph glyph-name="ae.alt01" horiz-adv-x="814" 
d="M569 -10q-113 0 -162 85h-2q-53 -85 -176 -85q-71 0 -117 37.5t-46 103.5q0 70 47 106t134 36h122q6 0 6 6v34q0 62 -28 92.5t-96 30.5q-58 0 -109 -30q-9 -6 -19 -6q-25 0 -25 25q0 13 11 22q53 40 145 40q119 0 155 -77h2q49 77 152 77q65 0 111.5 -32t65.5 -92
q15 -45 15 -114q0 -25 -25 -25h-297q-6 0 -6 -6q0 -54 10 -83q31 -93 135 -93q76 0 129 54q10 10 20 10t17 -6.5t7 -16.5q0 -11 -6 -18q-59 -75 -170 -75zM433 273h261q6 0 6 6q0 39 -9 68q-29 90 -128 90q-98 0 -127 -90q-9 -28 -9 -68q0 -6 6 -6zM238 41q62 0 99.5 28.5
t37.5 77.5v71q0 6 -6 6h-114q-71 0 -103 -22.5t-32 -70.5q0 -90 118 -90z" />
    <glyph glyph-name="aeacute.alt01" horiz-adv-x="814" 
d="M569 -10q-113 0 -162 85h-2q-53 -85 -176 -85q-71 0 -117 37.5t-46 103.5q0 70 47 106t134 36h122q6 0 6 6v34q0 62 -28 92.5t-96 30.5q-58 0 -109 -30q-9 -6 -19 -6q-25 0 -25 25q0 13 11 22q53 40 145 40q119 0 155 -77h2q49 77 152 77q65 0 111.5 -32t65.5 -92
q15 -45 15 -114q0 -25 -25 -25h-297q-6 0 -6 -6q0 -54 10 -83q31 -93 135 -93q76 0 129 54q10 10 20 10t17 -6.5t7 -16.5q0 -11 -6 -18q-59 -75 -170 -75zM433 273h261q6 0 6 6q0 39 -9 68q-29 90 -128 90q-98 0 -127 -90q-9 -28 -9 -68q0 -6 6 -6zM238 41q62 0 99.5 28.5
t37.5 77.5v71q0 6 -6 6h-114q-71 0 -103 -22.5t-32 -70.5q0 -90 118 -90zM444 565q-7 -11 -18 -11q-23 0 -23 22q0 7 5 15l62 100q8 13 21 13q10 0 16.5 -6.5t6.5 -15.5q0 -8 -5 -16z" />
    <glyph glyph-name="germandbls.alt01" horiz-adv-x="543" 
d="M247 -180q-12 0 -19.5 7t-7.5 18q0 25 27 26q83 6 132 53t49 124q0 67 -34.5 108.5t-96.5 56.5q-24 5 -24 26q0 13 16 34l115 150v2h-253q-5 0 -5 -6v-394q0 -29 -27 -29t-27 29v509q0 84 29.5 115t103.5 31h15q28 0 28 -26t-28 -26q-60 0 -77 -16t-17 -71v-58q0 -6 5 -6
h290q32 0 32 -29q0 -15 -14 -33l-121 -158v-2q144 -47 144 -207q0 -97 -64.5 -161.5t-170.5 -66.5z" />
    <glyph glyph-name="q.alt01" horiz-adv-x="531" 
d="M411 -184q-26 0 -26 28v216h-1q-39 -70 -143 -70q-60 0 -102.5 30.5t-61.5 87.5q-17 55 -17 131q0 75 17 130q19 57 61.5 87.5t102.5 30.5q104 0 143 -70h1v35q0 29 27 29t27 -29v-567h1l59 51q11 9 20 9t15.5 -6.5t6.5 -15.5q0 -11 -10 -20l-79 -66q-24 -21 -41 -21z
M250 42q95 0 123 83q12 39 12 114q0 74 -12 113q-28 83 -123 83q-93 0 -122 -86q-13 -40 -13 -110q0 -71 13 -111q29 -86 122 -86z" />
    <glyph glyph-name="C.alt01" horiz-adv-x="582" 
d="M297 -10q-163 0 -214 152q-18 56 -18 198t18 198q51 152 214 152q83 0 140 -43t74 -118q2 -10 2 -15q0 -11 -7 -18.5t-19 -7.5q-21 0 -29 27q-34 121 -161 121q-119 0 -159 -113q-15 -45 -15 -183t15 -183q40 -113 159 -113q127 0 161 121q8 27 29 27q12 0 19 -7.5
t7 -18.5q0 -4 -2 -14q-17 -75 -74 -118.5t-140 -43.5z" />
    <glyph glyph-name="Cacute.alt01" horiz-adv-x="582" 
d="M297 -10q-163 0 -214 152q-18 56 -18 198t18 198q51 152 214 152q83 0 140 -43t74 -118q2 -10 2 -15q0 -11 -7 -18.5t-19 -7.5q-21 0 -29 27q-34 121 -161 121q-119 0 -159 -113q-15 -45 -15 -183t15 -183q40 -113 159 -113q127 0 161 121q8 27 29 27q12 0 19 -7.5
t7 -18.5q0 -4 -2 -14q-17 -75 -74 -118.5t-140 -43.5zM381 854l-72 -83q-9 -11 -20 -11q-10 0 -16.5 6.5t-6.5 16.5q0 9 7 17l72 85q7 9 18 9q10 0 17 -7t7 -17q0 -8 -6 -16z" />
    <glyph glyph-name="Ccircumflex.alt01" horiz-adv-x="582" 
d="M297 -10q-163 0 -214 152q-18 56 -18 198t18 198q51 152 214 152q83 0 140 -43t74 -118q2 -10 2 -15q0 -11 -7 -18.5t-19 -7.5q-21 0 -29 27q-34 121 -161 121q-119 0 -159 -113q-15 -45 -15 -183t15 -183q40 -113 159 -113q127 0 161 121q8 27 29 27q12 0 19 -7.5
t7 -18.5q0 -4 -2 -14q-17 -75 -74 -118.5t-140 -43.5zM386 751q-10 0 -17 9l-74 90h-2l-74 -90q-7 -9 -17 -9q-8 0 -13.5 5t-5.5 13q0 7 5 14l72 94q18 22 34 22t34 -22l72 -94q5 -7 5 -14q0 -8 -5.5 -13t-13.5 -5z" />
    <glyph glyph-name="Ccaron.alt01" horiz-adv-x="582" 
d="M297 -10q-163 0 -214 152q-18 56 -18 198t18 198q51 152 214 152q83 0 140 -43t74 -118q2 -10 2 -15q0 -11 -7 -18.5t-19 -7.5q-21 0 -29 27q-34 121 -161 121q-119 0 -159 -113q-15 -45 -15 -183t15 -183q40 -113 159 -113q127 0 161 121q8 27 29 27q12 0 19 -7.5
t7 -18.5q0 -4 -2 -14q-17 -75 -74 -118.5t-140 -43.5zM294 750q-16 0 -34 22l-72 94q-5 7 -5 14q0 8 5.5 13t13.5 5q10 0 17 -9l74 -90h2l74 90q7 9 17 9q8 0 13.5 -5t5.5 -13q0 -7 -5 -14l-72 -94q-18 -22 -34 -22z" />
    <glyph glyph-name="Cdotaccent.alt01" horiz-adv-x="582" 
d="M297 -10q-163 0 -214 152q-18 56 -18 198t18 198q51 152 214 152q83 0 140 -43t74 -118q2 -10 2 -15q0 -11 -7 -18.5t-19 -7.5q-21 0 -29 27q-34 121 -161 121q-119 0 -159 -113q-15 -45 -15 -183t15 -183q40 -113 159 -113q127 0 161 121q8 27 29 27q12 0 19 -7.5
t7 -18.5q0 -4 -2 -14q-17 -75 -74 -118.5t-140 -43.5zM294 781q-17 0 -29.5 12.5t-12.5 29.5t12.5 29.5t29.5 12.5t29.5 -12.5t12.5 -29.5t-12.5 -29.5t-29.5 -12.5z" />
    <glyph glyph-name="Ccedilla.alt01" horiz-adv-x="582" 
d="M282 -135q-6 -19 -24 -19q-10 0 -17 6.5t-7 17.5q0 8 3 15l39 106q-146 9 -193 151q-18 56 -18 198t18 198q51 152 214 152q83 0 140 -43t74 -118q2 -10 2 -15q0 -11 -7 -18.5t-19 -7.5q-21 0 -29 27q-34 121 -161 121q-119 0 -159 -113q-15 -45 -15 -183t15 -183
q40 -113 159 -113q127 0 161 121q8 27 29 27q12 0 19 -7.5t7 -18.5q0 -4 -2 -14q-16 -69 -64.5 -111t-120.5 -49z" />
    <glyph glyph-name="G.alt01" horiz-adv-x="608" 
d="M304 690q85 0 143.5 -43.5t76.5 -118.5q2 -10 2 -14q0 -11 -7 -18.5t-19 -7.5q-21 0 -29 27q-17 58 -60.5 89.5t-107.5 31.5q-127 0 -165 -115q-16 -46 -16 -181t16 -181q38 -115 166 -115t166 113q16 46 16 129q0 6 -6 6h-143q-13 0 -20.5 7.5t-7.5 19.5t7.5 19.5
t20.5 7.5h179q11 0 19 -7.5t8 -18.5v-25q0 -95 -18 -151q-24 -75 -81 -114.5t-139 -39.5q-172 0 -222 153q-19 59 -19 197t19 197q50 153 221 153z" />
    <glyph glyph-name="Gcircumflex.alt01" horiz-adv-x="608" 
d="M304 690q85 0 143.5 -43.5t76.5 -118.5q2 -10 2 -14q0 -11 -7 -18.5t-19 -7.5q-21 0 -29 27q-17 58 -60.5 89.5t-107.5 31.5q-127 0 -165 -115q-16 -46 -16 -181t16 -181q38 -115 166 -115t166 113q16 46 16 129q0 6 -6 6h-143q-13 0 -20.5 7.5t-7.5 19.5t7.5 19.5
t20.5 7.5h179q11 0 19 -7.5t8 -18.5v-25q0 -95 -18 -151q-24 -75 -81 -114.5t-139 -39.5q-172 0 -222 153q-19 59 -19 197t19 197q50 153 221 153zM396 751q-10 0 -17 9l-74 90h-2l-74 -90q-7 -9 -17 -9q-8 0 -13.5 5t-5.5 13q0 7 5 14l72 94q18 22 34 22t34 -22l72 -94
q5 -7 5 -14q0 -8 -5.5 -13t-13.5 -5z" />
    <glyph glyph-name="Gbreve.alt01" horiz-adv-x="608" 
d="M304 690q85 0 143.5 -43.5t76.5 -118.5q2 -10 2 -14q0 -11 -7 -18.5t-19 -7.5q-21 0 -29 27q-17 58 -60.5 89.5t-107.5 31.5q-127 0 -165 -115q-16 -46 -16 -181t16 -181q38 -115 166 -115t166 113q16 46 16 129q0 6 -6 6h-143q-13 0 -20.5 7.5t-7.5 19.5t7.5 19.5
t20.5 7.5h179q11 0 19 -7.5t8 -18.5v-25q0 -95 -18 -151q-24 -75 -81 -114.5t-139 -39.5q-172 0 -222 153q-19 59 -19 197t19 197q50 153 221 153zM304 768q-54 0 -88.5 31t-34.5 67q0 18 19 18q15 0 21 -19q19 -53 83 -53t83 53q6 19 21 19q19 0 19 -18q0 -36 -34.5 -67
t-88.5 -31z" />
    <glyph glyph-name="Gdotaccent.alt01" horiz-adv-x="608" 
d="M304 690q85 0 143.5 -43.5t76.5 -118.5q2 -10 2 -14q0 -11 -7 -18.5t-19 -7.5q-21 0 -29 27q-17 58 -60.5 89.5t-107.5 31.5q-127 0 -165 -115q-16 -46 -16 -181t16 -181q38 -115 166 -115t166 113q16 46 16 129q0 6 -6 6h-143q-13 0 -20.5 7.5t-7.5 19.5t7.5 19.5
t20.5 7.5h179q11 0 19 -7.5t8 -18.5v-25q0 -95 -18 -151q-24 -75 -81 -114.5t-139 -39.5q-172 0 -222 153q-19 59 -19 197t19 197q50 153 221 153zM304 781q-17 0 -29.5 12.5t-12.5 29.5t12.5 29.5t29.5 12.5t29.5 -12.5t12.5 -29.5t-12.5 -29.5t-29.5 -12.5z" />
    <glyph glyph-name="Gcommaaccent.alt01" horiz-adv-x="608" 
d="M304 690q85 0 143.5 -43.5t76.5 -118.5q2 -10 2 -14q0 -11 -7 -18.5t-19 -7.5q-21 0 -29 27q-17 58 -60.5 89.5t-107.5 31.5q-127 0 -165 -115q-16 -46 -16 -181t16 -181q38 -115 166 -115t166 113q16 46 16 129q0 6 -6 6h-143q-13 0 -20.5 7.5t-7.5 19.5t7.5 19.5
t20.5 7.5h179q11 0 19 -7.5t8 -18.5v-25q0 -95 -18 -151q-24 -75 -81 -114.5t-139 -39.5q-172 0 -222 153q-19 59 -19 197t19 197q50 153 221 153zM305 -173q-6 -22 -26 -22q-12 0 -20 7.5t-8 18.5q0 4 2 12l27 85q6 22 26 22q12 0 20 -7.5t8 -18.5q0 -4 -2 -12z" />
    <glyph glyph-name="I.alt01" horiz-adv-x="313" 
d="M235 0h-157q-28 0 -28 26t28 26h44q6 0 6 6v564q0 6 -6 6h-44q-28 0 -28 26t28 26h157q28 0 28 -26t-28 -26h-44q-6 0 -6 -6v-564q0 -6 6 -6h44q28 0 28 -26t-28 -26z" />
    <glyph glyph-name="Igrave.alt01" horiz-adv-x="313" 
d="M235 0h-157q-28 0 -28 26t28 26h44q6 0 6 6v564q0 6 -6 6h-44q-28 0 -28 26t28 26h157q28 0 28 -26t-28 -26h-44q-6 0 -6 -6v-564q0 -6 6 -6h44q28 0 28 -26t-28 -26zM138 771l-72 83q-6 8 -6 16q0 10 7 17t17 7t18 -9l72 -85q7 -8 7 -17q0 -10 -6.5 -16.5t-16.5 -6.5
q-11 0 -20 11z" />
    <glyph glyph-name="Iacute.alt01" horiz-adv-x="313" 
d="M235 0h-157q-28 0 -28 26t28 26h44q6 0 6 6v564q0 6 -6 6h-44q-28 0 -28 26t28 26h157q28 0 28 -26t-28 -26h-44q-6 0 -6 -6v-564q0 -6 6 -6h44q28 0 28 -26t-28 -26zM253 854l-72 -83q-9 -11 -20 -11q-10 0 -16.5 6.5t-6.5 16.5q0 9 7 17l72 85q8 9 18 9t17 -7t7 -17
q0 -8 -6 -16z" />
    <glyph glyph-name="Ibreve.alt01" horiz-adv-x="313" 
d="M235 0h-157q-28 0 -28 26t28 26h44q6 0 6 6v564q0 6 -6 6h-44q-28 0 -28 26t28 26h157q28 0 28 -26t-28 -26h-44q-6 0 -6 -6v-564q0 -6 6 -6h44q28 0 28 -26t-28 -26zM156 768q-54 0 -88.5 31t-34.5 67q0 18 19 18q15 0 21 -19q19 -53 83 -53t83 53q6 19 21 19
q19 0 19 -18q0 -36 -34.5 -67t-88.5 -31z" />
    <glyph glyph-name="Icircumflex.alt01" horiz-adv-x="313" 
d="M235 0h-157q-28 0 -28 26t28 26h44q6 0 6 6v564q0 6 -6 6h-44q-28 0 -28 26t28 26h157q28 0 28 -26t-28 -26h-44q-6 0 -6 -6v-564q0 -6 6 -6h44q28 0 28 -26t-28 -26zM248 751q-10 0 -17 9l-74 90h-2l-74 -90q-7 -9 -17 -9q-8 0 -13.5 5t-5.5 13q0 7 5 14l72 94
q18 22 34 22t34 -22l72 -94q5 -7 5 -14q0 -8 -5.5 -13t-13.5 -5z" />
    <glyph glyph-name="Itilde.alt01" horiz-adv-x="313" 
d="M235 0h-157q-28 0 -28 26t28 26h44q6 0 6 6v564q0 6 -6 6h-44q-28 0 -28 26t28 26h157q28 0 28 -26t-28 -26h-44q-6 0 -6 -6v-564q0 -6 6 -6h44q28 0 28 -26t-28 -26zM210 780q-27 0 -61 22q-29 19 -46 19q-20 0 -38 -26q-7 -12 -20 -12q-21 0 -21 20q0 7 4 14
q30 49 75 49q27 0 61 -22q29 -19 46 -19q20 0 38 26q8 12 20 12q21 0 21 -20q0 -7 -4 -14q-30 -49 -75 -49z" />
    <glyph glyph-name="Idieresis.alt01" horiz-adv-x="313" 
d="M235 0h-157q-28 0 -28 26t28 26h44q6 0 6 6v564q0 6 -6 6h-44q-28 0 -28 26t28 26h157q28 0 28 -26t-28 -26h-44q-6 0 -6 -6v-564q0 -6 6 -6h44q28 0 28 -26t-28 -26zM256 786q-16 0 -27 11t-11 27t11 27.5t27 11.5t27 -11.5t11 -27.5t-11 -27t-27 -11zM57 786
q-16 0 -27 11t-11 27t11 27.5t27 11.5t27.5 -11.5t11.5 -27.5t-11.5 -27t-27.5 -11z" />
    <glyph glyph-name="Imacron.alt01" horiz-adv-x="313" 
d="M235 0h-157q-28 0 -28 26t28 26h44q6 0 6 6v564q0 6 -6 6h-44q-28 0 -28 26t28 26h157q28 0 28 -26t-28 -26h-44q-6 0 -6 -6v-564q0 -6 6 -6h44q28 0 28 -26t-28 -26zM267 800h-222q-11 0 -18 6.5t-7 16.5t7 16.5t18 6.5h222q11 0 18 -6.5t7 -16.5t-7 -16.5t-18 -6.5z
" />
    <glyph glyph-name="Idotaccent.alt01" horiz-adv-x="313" 
d="M235 0h-157q-28 0 -28 26t28 26h44q6 0 6 6v564q0 6 -6 6h-44q-28 0 -28 26t28 26h157q28 0 28 -26t-28 -26h-44q-6 0 -6 -6v-564q0 -6 6 -6h44q28 0 28 -26t-28 -26zM156 781q-17 0 -29.5 12.5t-12.5 29.5t12.5 29.5t29.5 12.5t29.5 -12.5t12.5 -29.5t-12.5 -29.5
t-29.5 -12.5z" />
    <glyph glyph-name="Iogonek.alt01" horiz-adv-x="313" 
d="M75 -104q0 39 53 104h-50q-28 0 -28 26t28 26h44q6 0 6 6v564q0 6 -6 6h-44q-28 0 -28 26t28 26h157q28 0 28 -26t-28 -26h-44q-6 0 -6 -6v-564q0 -6 6 -6h44q28 0 28 -26t-28 -26h-55q-36 -46 -46 -63.5t-10 -33.5q0 -28 29 -28q11 0 21 5q8 4 13 4q21 0 21 -22
q0 -11 -11 -19q-22 -15 -52 -15q-32 0 -51 18t-19 50z" />
    <glyph glyph-name="Z.alt01" horiz-adv-x="540" 
d="M412 319h-124l-169 -264v-1h342q29 0 29 -27t-29 -27h-382q-14 0 -22 7.5t-8 20.5q0 17 14 38l161 253h-87q-27 0 -27 26q0 25 27 25h120l162 255v1h-328q-29 0 -29 27t29 27h368q14 0 22.5 -7.5t8.5 -20.5q0 -17 -14 -38l-155 -244h91q27 0 27 -25q0 -26 -27 -26z" />
    <glyph glyph-name="Zacute.alt01" horiz-adv-x="540" 
d="M412 319h-124l-169 -264v-1h342q29 0 29 -27t-29 -27h-382q-14 0 -22 7.5t-8 20.5q0 17 14 38l161 253h-87q-27 0 -27 26q0 25 27 25h120l162 255v1h-328q-29 0 -29 27t29 27h368q14 0 22.5 -7.5t8.5 -20.5q0 -17 -14 -38l-155 -244h91q27 0 27 -25q0 -26 -27 -26z
M352 854l-72 -83q-9 -11 -20 -11q-10 0 -16.5 6.5t-6.5 16.5q0 9 7 17l72 85q8 9 18 9t17 -7t7 -17q0 -8 -6 -16z" />
    <glyph glyph-name="Zcaron.alt01" horiz-adv-x="540" 
d="M412 319h-124l-169 -264v-1h342q29 0 29 -27t-29 -27h-382q-14 0 -22 7.5t-8 20.5q0 17 14 38l161 253h-87q-27 0 -27 26q0 25 27 25h120l162 255v1h-328q-29 0 -29 27t29 27h368q14 0 22.5 -7.5t8.5 -20.5q0 -17 -14 -38l-155 -244h91q27 0 27 -25q0 -26 -27 -26z
M270 750q-16 0 -34 22l-72 94q-5 7 -5 14q0 8 5.5 13t13.5 5q10 0 17 -9l74 -90h2l74 90q7 9 17 9q8 0 13.5 -5t5.5 -13q0 -7 -5 -14l-72 -94q-18 -22 -34 -22z" />
    <glyph glyph-name="Zdotaccent.alt01" horiz-adv-x="540" 
d="M412 319h-124l-169 -264v-1h342q29 0 29 -27t-29 -27h-382q-14 0 -22 7.5t-8 20.5q0 17 14 38l161 253h-87q-27 0 -27 26q0 25 27 25h120l162 255v1h-328q-29 0 -29 27t29 27h368q14 0 22.5 -7.5t8.5 -20.5q0 -17 -14 -38l-155 -244h91q27 0 27 -25q0 -26 -27 -26z
M270 781q-17 0 -29.5 12.5t-12.5 29.5t12.5 29.5t29.5 12.5t29.5 -12.5t12.5 -29.5t-12.5 -29.5t-29.5 -12.5z" />
    <glyph glyph-name="zero.alt01" 
d="M266 -10q-65 0 -110.5 31.5t-64.5 90.5q-15 45 -15 228t15 228q19 59 64.5 90.5t110.5 31.5t110.5 -31.5t64.5 -90.5q15 -45 15 -228t-15 -228q-19 -59 -64.5 -90.5t-110.5 -31.5zM130 340q0 -177 16 -220l219 478q-34 41 -99 41q-94 0 -122 -83q-14 -44 -14 -216z
M266 41q94 0 122 83q14 44 14 216q0 176 -15 219l-220 -478q34 -40 99 -40z" />
    <glyph glyph-name="one.alt01" 
d="M424 0h-276q-27 0 -27 26t27 26h105q6 0 6 6v549h-2l-99 -69q-9 -6 -19 -6q-9 0 -16 7t-7 17q0 15 16 26l115 83q27 19 40 19q26 0 26 -28v-598q0 -6 6 -6h105q27 0 27 -26t-27 -26z" />
    <glyph glyph-name="six.alt01" 
d="M272 -10q-65 0 -110 30.5t-64 87.5q-12 39 -12 109v262q0 104 50.5 157.5t143.5 53.5q66 0 128 -31q17 -9 17 -24q0 -11 -6.5 -18.5t-18.5 -7.5q-10 0 -20 6q-50 24 -100 24q-140 0 -140 -157v-105h1q39 68 135 68q133 0 169 -114q12 -35 12 -114q0 -75 -12 -109
q-19 -57 -63.5 -87.5t-109.5 -30.5zM272 42q96 0 122 84q9 27 9 91q0 65 -9 92q-26 84 -122 84q-97 0 -123 -84q-9 -27 -9 -92q0 -64 9 -91q26 -84 123 -84z" />
    <glyph glyph-name="seven.alt01" 
d="M392 320h-74l-121 -306q-7 -18 -25 -18q-11 0 -18.5 7t-7.5 18q0 5 2 11l114 288h-89q-28 0 -28 25t28 25h109l101 255v3h-281q-28 0 -28 26t28 26h319q27 0 27 -25q0 -11 -8 -30l-102 -255h54q28 0 28 -25t-28 -25z" />
    <glyph glyph-name="nine.alt01" 
d="M252 -10q-66 0 -128 31q-17 9 -17 24q0 11 6.5 18.5t18.5 7.5q10 0 20 -6q50 -24 100 -24q140 0 140 157v105h-1q-39 -68 -135 -68q-133 0 -169 114q-12 34 -12 114q0 75 12 109q19 57 63.5 87.5t109.5 30.5t110 -30.5t64 -87.5q12 -39 12 -109v-262q0 -104 -50.5 -157.5
t-143.5 -53.5zM260 287q97 0 123 84q9 27 9 92q0 64 -9 91q-26 84 -123 84q-96 0 -122 -84q-9 -27 -9 -91q0 -65 9 -92q26 -84 122 -84z" />
    <glyph glyph-name="zero.alt02" 
d="M266 -10q-65 0 -110.5 31.5t-64.5 90.5q-15 45 -15 228t15 228q19 59 64.5 90.5t110.5 31.5t110.5 -31.5t64.5 -90.5q15 -45 15 -228t-15 -228q-19 -59 -64.5 -90.5t-110.5 -31.5zM130 340q0 -177 16 -220l219 478q-34 41 -99 41q-94 0 -122 -83q-14 -44 -14 -216z
M266 41q94 0 122 83q14 44 14 216q0 176 -15 219l-220 -478q34 -40 99 -40z" />
    <glyph glyph-name="one.alt02" horiz-adv-x="420" 
d="M369 0h-276q-27 0 -27 26t27 26h105q6 0 6 6v549h-2l-99 -69q-9 -6 -19 -6q-9 0 -16 7t-7 17q0 15 16 26l115 83q27 19 40 19q26 0 26 -28v-598q0 -6 6 -6h105q27 0 27 -26t-27 -26z" />
    <glyph glyph-name="six.alt02" horiz-adv-x="512" 
d="M262 -10q-65 0 -110 30.5t-64 87.5q-12 39 -12 109v262q0 104 50.5 157.5t143.5 53.5q66 0 128 -31q17 -9 17 -24q0 -11 -6.5 -18.5t-18.5 -7.5q-10 0 -20 6q-50 24 -100 24q-140 0 -140 -157v-105h1q39 68 135 68q133 0 169 -114q12 -35 12 -114q0 -75 -12 -109
q-19 -57 -63.5 -87.5t-109.5 -30.5zM262 42q96 0 122 84q9 27 9 91q0 65 -9 92q-26 84 -122 84q-97 0 -123 -84q-9 -27 -9 -92q0 -64 9 -91q26 -84 123 -84z" />
    <glyph glyph-name="seven.alt02" horiz-adv-x="492" 
d="M374 320h-74l-121 -306q-7 -18 -25 -18q-11 0 -18.5 7t-7.5 18q0 5 2 11l114 288h-89q-28 0 -28 25t28 25h109l101 255v3h-281q-28 0 -28 26t28 26h319q27 0 27 -25q0 -11 -8 -30l-102 -255h54q28 0 28 -25t-28 -25z" />
    <glyph glyph-name="nine.alt02" horiz-adv-x="512" 
d="M242 -10q-66 0 -128 31q-17 9 -17 24q0 11 6.5 18.5t18.5 7.5q10 0 20 -6q50 -24 100 -24q140 0 140 157v105h-1q-39 -68 -135 -68q-133 0 -169 114q-12 34 -12 114q0 75 12 109q19 57 63.5 87.5t109.5 30.5t110 -30.5t64 -87.5q12 -39 12 -109v-262q0 -104 -50.5 -157.5
t-143.5 -53.5zM250 287q97 0 123 84q9 27 9 92q0 64 -9 91q-26 84 -123 84q-96 0 -122 -84q-9 -27 -9 -91q0 -65 9 -92q26 -84 122 -84z" />
    <glyph glyph-name="zero.nominator" horiz-adv-x="331" 
d="M166 267q-91 0 -117 81q-9 29 -9 129q0 98 9 129q26 81 117 81q90 0 116 -81q9 -31 9 -129q0 -100 -9 -129q-26 -81 -116 -81zM166 310q55 0 71 50q7 23 7 117t-7 117q-16 50 -71 50q-54 0 -72 -50q-7 -23 -7 -117t7 -117q18 -50 72 -50z" />
    <glyph glyph-name="one.nominator" horiz-adv-x="331" 
d="M182 272q-23 0 -23 26v324h-1l-48 -33q-8 -5 -15 -5q-9 0 -15 6t-6 16q0 12 12 21l61 42q18 13 32 13q27 0 27 -26v-358q0 -26 -24 -26z" />
    <glyph glyph-name="two.nominator" horiz-adv-x="331" 
d="M269 274h-206q-24 0 -24 22q0 14 15 30l150 175q34 40 34 76q0 29 -18.5 48t-49.5 19q-55 0 -72 -49q-7 -20 -24 -20q-22 0 -22 20q0 6 2 12q11 34 39.5 57t75.5 23q54 0 85 -31.5t31 -78.5q0 -50 -45 -101l-135 -157v-2h164q23 0 23 -21q0 -22 -23 -22z" />
    <glyph glyph-name="three.nominator" horiz-adv-x="331" 
d="M167 267q-93 0 -120 70q-3 7 -3 13q0 20 21 20q13 0 23 -17q29 -43 78 -43q35 0 56.5 22t21.5 55t-23 54.5t-62 21.5q-10 0 -17 6t-7 15q0 22 24 22q35 0 55 19t20 51q0 30 -19 49t-52 19q-45 0 -69 -39q-10 -17 -23 -17q-21 0 -21 20q0 6 3 13q12 28 41 47t70 19
q53 0 85 -30.5t32 -78.5q0 -57 -51 -90v-1q24 -10 42.5 -36t18.5 -64q0 -53 -34 -86.5t-90 -33.5z" />
    <glyph glyph-name="four.nominator" horiz-adv-x="331" 
d="M230 272q-24 0 -24 26v46q0 6 -6 6h-150q-25 0 -25 22q0 12 12 35l128 260q7 15 21 15q9 0 15.5 -5.5t6.5 -14.5q0 -8 -4 -16l-124 -252v-1h120q6 0 6 6v84q0 26 24 26q23 0 23 -26v-84q0 -6 6 -6h21q24 0 24 -21q0 -22 -24 -22h-21q-6 0 -6 -6v-46q0 -12 -6.5 -19
t-16.5 -7z" />
    <glyph glyph-name="five.nominator" horiz-adv-x="331" 
d="M168 267q-82 0 -112 68q-3 7 -3 13q0 9 6.5 15t16.5 6q13 0 23 -18q23 -41 69 -41q56 0 70 46q5 17 5 49q0 35 -5 49q-15 43 -67 43q-39 0 -60 -27q-14 -20 -30 -20q-23 0 -23 26v182q0 9 6 15.5t15 6.5h183q23 0 23 -22q0 -21 -23 -21h-154q-6 0 -6 -6v-121h1
q22 31 74 31q83 0 105 -68q8 -24 8 -68q0 -40 -9 -67q-25 -71 -113 -71z" />
    <glyph glyph-name="six.nominator" horiz-adv-x="331" 
d="M165 267q-56 0 -91.5 34.5t-35.5 90.5q0 44 28 95l100 180q8 15 21 15q22 0 22 -21q0 -6 -3 -12l-80 -144l1 -1q15 12 46 12q53 0 87 -34.5t34 -89.5q0 -56 -36 -90.5t-93 -34.5zM166 310q37 0 59.5 22.5t22.5 59.5q0 36 -22.5 58.5t-59.5 22.5t-59.5 -22.5t-22.5 -58.5
q0 -37 22.5 -59.5t59.5 -22.5z" />
    <glyph glyph-name="seven.nominator" horiz-adv-x="331" 
d="M143 289q-9 -17 -23 -17q-10 0 -16 6t-6 15q0 5 3 13l140 329v2h-139q-6 0 -6 -6v-30q0 -11 -6.5 -18t-16.5 -7t-16.5 7t-6.5 18v57q0 22 22 22h200q23 0 23 -22q0 -11 -7 -28z" />
    <glyph glyph-name="eight.nominator" horiz-adv-x="331" 
d="M166 267q-57 0 -93.5 33t-36.5 87q0 35 17.5 61.5t44.5 38.5v2q-52 28 -52 86q0 48 33.5 80t86.5 32q52 0 85.5 -32t33.5 -80q0 -58 -52 -86v-2q27 -12 44.5 -38t17.5 -62q0 -54 -36 -87t-93 -33zM166 507q31 0 52 19.5t21 48.5q0 30 -21 49.5t-52 19.5t-52.5 -19.5
t-21.5 -49.5q0 -29 21.5 -48.5t52.5 -19.5zM166 310q37 0 60 21.5t23 56.5t-23 56.5t-60 21.5t-60.5 -22t-23.5 -56t23.5 -56t60.5 -22z" />
    <glyph glyph-name="nine.nominator" horiz-adv-x="331" 
d="M145 272q-22 0 -22 21q0 6 3 12l80 144l-1 1q-15 -12 -46 -12q-53 0 -87 34.5t-34 89.5q0 56 36 90.5t93 34.5q56 0 91.5 -34.5t35.5 -90.5q0 -44 -28 -95l-100 -180q-8 -15 -21 -15zM166 481q37 0 59.5 22.5t22.5 58.5q0 37 -22.5 59.5t-59.5 22.5t-59.5 -22.5
t-22.5 -59.5q0 -36 22.5 -58.5t59.5 -22.5z" />
    <glyph glyph-name="zero.denominator" horiz-adv-x="331" 
d="M166 -7q-91 0 -117 81q-9 29 -9 129q0 98 9 129q26 81 117 81q90 0 116 -81q9 -31 9 -129q0 -100 -9 -129q-26 -81 -116 -81zM166 36q55 0 71 50q7 23 7 117t-7 117q-16 50 -71 50q-54 0 -72 -50q-7 -23 -7 -117t7 -117q18 -50 72 -50z" />
    <glyph glyph-name="one.denominator" horiz-adv-x="331" 
d="M182 -2q-23 0 -23 26v324h-1l-48 -33q-8 -5 -15 -5q-9 0 -15 6t-6 16q0 12 12 21l61 42q18 13 32 13q27 0 27 -26v-358q0 -26 -24 -26z" />
    <glyph glyph-name="two.denominator" horiz-adv-x="331" 
d="M269 0h-206q-24 0 -24 22q0 14 15 30l150 175q34 40 34 76q0 29 -18.5 48t-49.5 19q-55 0 -72 -49q-7 -20 -24 -20q-22 0 -22 20q0 6 2 12q11 34 39.5 57t75.5 23q54 0 85 -31.5t31 -78.5q0 -50 -45 -101l-135 -157v-2h164q23 0 23 -21q0 -22 -23 -22z" />
    <glyph glyph-name="three.denominator" horiz-adv-x="331" 
d="M167 -7q-93 0 -120 70q-3 7 -3 13q0 20 21 20q13 0 23 -17q29 -43 78 -43q35 0 56.5 22t21.5 55t-23 54.5t-62 21.5q-10 0 -17 6t-7 15q0 22 24 22q35 0 55 19t20 51q0 30 -19 49t-52 19q-45 0 -69 -39q-10 -17 -23 -17q-21 0 -21 20q0 6 3 13q12 28 41 47t70 19
q53 0 85 -30.5t32 -78.5q0 -57 -51 -90v-1q24 -10 42.5 -36t18.5 -64q0 -53 -34 -86.5t-90 -33.5z" />
    <glyph glyph-name="four.denominator" horiz-adv-x="331" 
d="M230 -2q-24 0 -24 26v46q0 6 -6 6h-150q-25 0 -25 22q0 12 12 35l128 260q7 15 21 15q9 0 15.5 -5.5t6.5 -14.5q0 -8 -4 -16l-124 -252v-1h120q6 0 6 6v84q0 26 24 26q23 0 23 -26v-84q0 -6 6 -6h21q24 0 24 -21q0 -22 -24 -22h-21q-6 0 -6 -6v-46q0 -12 -6.5 -19
t-16.5 -7z" />
    </font>
</defs>
</svg>
